<svg xmlns="http://www.w3.org/2000/svg" width="24.186" height="24.186" viewBox="0 0 24.186 24.186">
  <path id="Icon_awesome-arrow-alt-circle-down" data-name="Icon awesome-arrow-alt-circle-down" d="M24.749,12.656A12.093,12.093,0,1,1,12.656.563,12.091,12.091,0,0,1,24.749,12.656ZM10.51,7v5.656H7.053a.586.586,0,0,0-.414,1l5.6,5.574a.58.58,0,0,0,.824,0l5.6-5.574a.585.585,0,0,0-.414-1H14.8V7a.587.587,0,0,0-.585-.585H11.1A.587.587,0,0,0,10.51,7Z" transform="translate(-0.563 -0.563)" fill="#e3d42d"/>
</svg>
