<svg xmlns="http://www.w3.org/2000/svg" width="85" height="85" viewBox="0 0 85 85">
  <g id="Icon_ionic-ios-checkmark-circle-outline" data-name="Icon ionic-ios-checkmark-circle-outline" transform="translate(-3.375 -3.375)">
    <path id="Pfad_732" data-name="Pfad 732" d="M54.2,16.15l-3.6-3.7a.773.773,0,0,0-.572-.245h0a.742.742,0,0,0-.572.245L24.533,37.563l-9.072-9.072a.79.79,0,0,0-1.144,0L10.68,32.128a.814.814,0,0,0,0,1.165L22.122,44.735A3.619,3.619,0,0,0,24.513,45.9a3.792,3.792,0,0,0,2.37-1.124h.02L54.222,17.314A.873.873,0,0,0,54.2,16.15Z" transform="translate(13.455 16.832)" fill="#e3d42e"/>
    <path id="Pfad_733" data-name="Pfad 733" d="M45.875,9.1a36.785,36.785,0,0,1,26.011,62.79A36.785,36.785,0,0,1,19.864,19.864,36.535,36.535,0,0,1,45.875,9.1m0-5.721a42.5,42.5,0,1,0,42.5,42.5,42.494,42.494,0,0,0-42.5-42.5Z" fill="#e3d42e"/>
  </g>
</svg>
