<svg xmlns="http://www.w3.org/2000/svg" width="21.867" height="21.867" viewBox="0 0 21.867 21.867">
  <defs>
    <style>
      .cls-1 {
        fill: #e3d42d;
      }
    </style>
  </defs>
  <path id="Icon_material-language" data-name="Icon material-language" class="cls-1" d="M13.923,3A10.933,10.933,0,1,0,24.867,13.933,10.928,10.928,0,0,0,13.923,3ZM21.5,9.56H18.274a17.11,17.11,0,0,0-1.509-3.892A8.779,8.779,0,0,1,21.5,9.56ZM13.933,5.23a15.4,15.4,0,0,1,2.088,4.33H11.845A15.4,15.4,0,0,1,13.933,5.23ZM5.471,16.12a8.552,8.552,0,0,1,0-4.373h3.7a18.057,18.057,0,0,0-.153,2.187,18.057,18.057,0,0,0,.153,2.187Zm.9,2.187H9.593A17.11,17.11,0,0,0,11.1,22.2,8.732,8.732,0,0,1,6.368,18.307ZM9.593,9.56H6.368A8.732,8.732,0,0,1,11.1,5.668,17.11,17.11,0,0,0,9.593,9.56Zm4.341,13.076a15.4,15.4,0,0,1-2.088-4.33h4.177A15.4,15.4,0,0,1,13.933,22.636Zm2.558-6.516H11.375a16.086,16.086,0,0,1-.175-2.187,15.946,15.946,0,0,1,.175-2.187h5.117a15.946,15.946,0,0,1,.175,2.187A16.086,16.086,0,0,1,16.492,16.12Zm.273,6.079a17.11,17.11,0,0,0,1.509-3.892H21.5A8.779,8.779,0,0,1,16.765,22.2ZM18.7,16.12a18.057,18.057,0,0,0,.153-2.187,18.057,18.057,0,0,0-.153-2.187h3.7a8.552,8.552,0,0,1,0,4.373Z" transform="translate(-3 -3)"/>
</svg>
