<svg xmlns="http://www.w3.org/2000/svg" width="19.315" height="19.32" viewBox="0 0 19.315 19.32">
  <g id="ionic-ios-timer" transform="translate(-3.938 -3.938)">
    <path id="Path_299" data-name="Path 299" d="M13.6,23.258a9.66,9.66,0,0,1-6.7-16.615A.775.775,0,1,1,7.971,7.758a8.107,8.107,0,1,0,6.4-2.231V8.55a.778.778,0,1,1-1.555,0V4.715a.777.777,0,0,1,.778-.778,9.66,9.66,0,0,1,0,19.32Z" transform="translate(0 0)" fill="#e3d42d"/>
    <path id="Path_300" data-name="Path 300" d="M12.019,11.342,16.825,14.8a1.454,1.454,0,0,1-1.691,2.367,1.4,1.4,0,0,1-.338-.338l-3.453-4.806a.485.485,0,0,1,.676-.676Z" transform="translate(-2.29 -2.29)" fill="#e3d42d"/>
  </g>
</svg>
