<svg xmlns="http://www.w3.org/2000/svg" width="19.345" height="19.344" viewBox="0 0 19.345 19.344">
  <path id="ionic-md-settings" d="M20.393,14.015a6.049,6.049,0,0,0,.049-.967c0-.339-.049-.629-.049-.967l2.077-1.6a.444.444,0,0,0,.1-.629L20.59,6.519A.482.482,0,0,0,20,6.325l-2.473.967a7.2,7.2,0,0,0-1.681-.967L15.5,3.762A.53.53,0,0,0,15,3.375H11.044a.53.53,0,0,0-.495.387l-.4,2.563a8.376,8.376,0,0,0-1.682.967L6,6.325a.463.463,0,0,0-.594.194L3.426,9.856a.584.584,0,0,0,.1.629l2.127,1.6c0,.339-.049.629-.049.967s.049.629.049.967l-2.077,1.6a.444.444,0,0,0-.1.629l1.979,3.337a.482.482,0,0,0,.594.194L8.521,18.8a7.2,7.2,0,0,0,1.681.967l.4,2.563a.479.479,0,0,0,.495.387H15.05a.53.53,0,0,0,.495-.387l.4-2.563a8.371,8.371,0,0,0,1.681-.967l2.473.967a.463.463,0,0,0,.594-.194l1.979-3.337a.583.583,0,0,0-.1-.629Zm-7.37,2.418a3.386,3.386,0,1,1,3.463-3.385A3.4,3.4,0,0,1,13.022,16.433Z" transform="translate(-3.375 -3.375)" fill="#e3d42d"/>
</svg>
