<svg xmlns="http://www.w3.org/2000/svg" width="18" height="16" viewBox="0 0 18 16">
  <path id="Icon_awesome-external-link-alt" data-name="Icon awesome-external-link-alt" d="M18,.75v4a.751.751,0,0,1-1.28.53L15.6,4.164l-7.61,7.61a.75.75,0,0,1-1.061,0l-.707-.707a.75.75,0,0,1,0-1.061l7.61-7.61L12.72,1.28A.751.751,0,0,1,13.251,0h4A.75.75,0,0,1,18,.75ZM12.72,8.462l-.5.5a.75.75,0,0,0-.22.53V14H2V4h8.25a.75.75,0,0,0,.53-.22l.5-.5A.75.75,0,0,0,10.75,2H1.5A1.5,1.5,0,0,0,0,3.5v11A1.5,1.5,0,0,0,1.5,16h11A1.5,1.5,0,0,0,14,14.5V8.993A.75.75,0,0,0,12.72,8.462Z" fill="#212E52"/>
</svg>
