<svg xmlns="http://www.w3.org/2000/svg" width="28.35" height="28.35" viewBox="0 0 28.35 28.35">
  <path id="Differenzmenge_2" data-name="Differenzmenge 2" d="M14.175,28.35A14.175,14.175,0,0,1,4.152,4.152,14.175,14.175,0,0,1,24.2,24.2,14.083,14.083,0,0,1,14.175,28.35ZM6.792,11.5a.519.519,0,0,0-.427.194.559.559,0,0,0-.074.5l.843,3.057L8.581,20.5a1.735,1.735,0,0,0,1.537,1.255H19.33A1.735,1.735,0,0,0,20.867,20.5l1.167-4.159a1.053,1.053,0,0,0-.131-.926.869.869,0,0,0-.714-.329H12.2a1.737,1.737,0,0,0-1.538,1.255L9.538,20.353c-.071-.109-1.666-5.489-1.682-5.543A.829.829,0,0,1,8,14l-.591-2.5Zm8.529-4.9a1.219,1.219,0,0,0-.28.033L8.568,8.16a1.219,1.219,0,0,0-.9,1.464l1.913,8.09.388-1.38L8.34,9.464a.521.521,0,0,1,.387-.627L15.2,7.306a.52.52,0,0,1,.627.387l1.587,6.714h.714L16.5,7.533A1.21,1.21,0,0,0,15.321,6.6Zm-1.756,6.982-3.337.789.148.628.533-.126a2.183,2.183,0,0,1,1.294-.463h.663l.847-.2Zm2.282-2.729L9.737,12.3l.148.628,6.109-1.444Zm-.49-2.074L9.247,10.222l.148.627L15.5,9.4Z" fill="#e3d42d"/>
</svg>
