<svg id="Layer_2" data-name="Layer 2" xmlns="http://www.w3.org/2000/svg" width="30.008" height="29.763" viewBox="0 0 30.008 29.763">
  <g id="Layer_1-2" data-name="Layer 1-2" transform="translate(0 0)">
    <g id="github">
      <path id="Pfad_200" data-name="Pfad 200" d="M847.714,835.043a14.988,14.988,0,0,0-2.541,29.763v-4.645H844.9a4.615,4.615,0,0,1-3.049-.981,4.02,4.02,0,0,1-1.052-1.713c-.152-.412-.224-.574-.376-.686a1.423,1.423,0,0,0-.945-.163,1.276,1.276,0,1,1-.239-2.541h0a3.781,3.781,0,0,1,2.7.656,3.644,3.644,0,0,1,1.235,1.835,1.851,1.851,0,0,0,.381.722,2.573,2.573,0,0,0,1.672.305,3.6,3.6,0,0,1,.269-1.123,4.209,4.209,0,0,1,1.525-1.85c-3.853-.427-5.662-2.3-5.662-4.839a4.685,4.685,0,0,1,1.281-3.049c-.254-.884-.595-2.7.112-3.41a4.066,4.066,0,0,1,2.989,1.393,8.723,8.723,0,0,1,2.734-.523,8.568,8.568,0,0,1,2.755.458,4.066,4.066,0,0,1,2.989-1.393c.681.681.366,2.541.081,3.41a4.574,4.574,0,0,1,1.291,3.115c0,2.541-1.794,4.437-5.591,4.834a3.961,3.961,0,0,1,1.789,3.212v6.638a14.993,14.993,0,0,0-4.076-29.423Z" transform="translate(-832.705 -835.043)" fill="#e3d42d"/>
    </g>
  </g>
</svg>
