<svg xmlns="http://www.w3.org/2000/svg" width="30.529" height="30.529" viewBox="0 0 30.529 30.529">
  <path id="Icon_awesome-telegram" data-name="Icon awesome-telegram" d="M15.265.563A15.265,15.265,0,1,0,30.529,15.827,15.262,15.262,0,0,0,15.265.563Zm7.5,10.457L20.256,22.825c-.185.837-.683,1.04-1.379.646l-3.816-2.813-1.84,1.773a.963.963,0,0,1-.769.375l.271-3.884,7.072-6.389c.308-.271-.068-.425-.474-.154l-8.74,5.5L6.814,16.707c-.819-.259-.837-.819.172-1.213L21.7,9.82c.683-.246,1.28.166,1.059,1.2Z" transform="translate(0 -0.563)" fill="#e3d42d"/>
</svg>
