<svg xmlns="http://www.w3.org/2000/svg" width="30.018" height="30.018" viewBox="0 0 30.018 30.018">
  <path id="Differenzmenge_1" data-name="Differenzmenge 1" d="M15.009,30.018A15.009,15.009,0,0,1,4.4,4.4,15.009,15.009,0,1,1,25.622,25.622,14.911,14.911,0,0,1,15.009,30.018Zm-7.3-9.461h0a9.615,9.615,0,0,0,5.169,1.51,9.178,9.178,0,0,0,7.111-3.119A9.894,9.894,0,0,0,22.453,12.5c0-.141,0-.288-.01-.431a6.832,6.832,0,0,0,1.683-1.743l-.032-.014a6.852,6.852,0,0,1-1.933.531,3.387,3.387,0,0,0,1.48-1.863,6.95,6.95,0,0,1-2.14.81,3.364,3.364,0,0,0-5.822,2.3,3.44,3.44,0,0,0,.087.769A9.562,9.562,0,0,1,8.829,9.348a3.28,3.28,0,0,0-.456,1.693,3.369,3.369,0,0,0,1.5,2.8,3.379,3.379,0,0,1-1.524-.422v.042a3.375,3.375,0,0,0,2.7,3.3,3.4,3.4,0,0,1-1.513.058,3.375,3.375,0,0,0,3.15,2.338A6.789,6.789,0,0,1,8.507,20.6,7.148,7.148,0,0,1,7.707,20.557Z" fill="#e3d42d"/>
</svg>
