<svg xmlns="http://www.w3.org/2000/svg" width="34" height="34" viewBox="0 0 34 34">
  <g id="cardano_ada" data-name="cardano ada" transform="translate(-0.216 -0.216)">
    <g id="cardano_ada-2" data-name="cardano ada-2" transform="translate(0.216 0.216)">
      <circle id="Эллипс_6" data-name="Эллипс 6" cx="17" cy="17" r="17" fill="#3468d1"/>
      <path id="Эллипс_6_копия_29" data-name="Эллипс 6 копия 29" d="M43.781,45.642a1.69,1.69,0,1,1-1.69,1.69A1.69,1.69,0,0,1,43.781,45.642Zm4.079,0a1.69,1.69,0,1,1-1.69,1.69,1.69,1.69,0,0,1,1.69-1.69Zm0,7.108a1.69,1.69,0,1,1-1.69,1.69,1.69,1.69,0,0,1,1.69-1.69Zm-4.079,0a1.69,1.69,0,1,1-1.69,1.69A1.69,1.69,0,0,1,43.781,52.75Zm-2.1-3.5a1.69,1.69,0,1,1-1.69,1.69,1.69,1.69,0,0,1,1.69-1.69Zm8.275,0a1.69,1.69,0,1,1-1.69,1.69,1.69,1.69,0,0,1,1.69-1.69Zm1.923-2.913a1.049,1.049,0,1,1-1.049,1.049,1.049,1.049,0,0,1,1.049-1.049Zm0,6.991a1.049,1.049,0,1,1-1.049,1.049,1.049,1.049,0,0,1,1.049-1.049Zm-12.121,0a1.049,1.049,0,1,1-1.049,1.049,1.049,1.049,0,0,1,1.049-1.049Zm0-6.991a1.049,1.049,0,1,1-1.049,1.049,1.049,1.049,0,0,1,1.049-1.049Zm6.061-3.5a1.049,1.049,0,1,1-1.049,1.049,1.049,1.049,0,0,1,1.049-1.049Zm0,13.983a1.049,1.049,0,1,1-1.049,1.049,1.049,1.049,0,0,1,1.049-1.049Zm4.487,1.049a.874.874,0,1,1-.874.874.874.874,0,0,1,.874-.874Zm-8.974,0a.874.874,0,1,1-.874.874.874.874,0,0,1,.874-.874Zm0-15.731a.874.874,0,1,1-.874.874.874.874,0,0,1,.874-.874Zm8.974,0a.874.874,0,1,1-.874.874.874.874,0,0,1,.874-.874Zm4.545,7.807a.874.874,0,1,1-.874.874.874.874,0,0,1,.874-.874Zm-18.065,0a.874.874,0,1,1-.874.874.874.874,0,0,1,.874-.874Zm-.641-5.36a.7.7,0,1,1-.7.7h0a.7.7,0,0,1,.7-.7Zm0,11.187a.7.7,0,1,1-.7.7h0a.7.7,0,0,1,.7-.7Zm19.347,0a.7.7,0,1,1-.7.7h0a.7.7,0,0,1,.7-.7Zm0-11.187a.7.7,0,1,1-.7.7h0a.7.7,0,0,1,.7-.7ZM45.821,39a.7.7,0,1,1-.7.7h0a.7.7,0,0,1,.7-.7Zm0,22.373a.7.7,0,1,1-.7.7.7.7,0,0,1,.7-.7ZM52,60.907a.583.583,0,1,1-.583.583h0A.583.583,0,0,1,52,60.907Zm-12.354,0a.583.583,0,1,1-.583.583h0A.583.583,0,0,1,39.643,60.907Zm0-21.207a.583.583,0,1,1-.583.583h0a.583.583,0,0,1,.582-.583h0ZM52,39.7a.583.583,0,1,1-.583.583h0A.583.583,0,0,1,52,39.7h0Zm6.061,10.6a.583.583,0,1,1-.583.583h0a.583.583,0,0,1,.583-.583Zm-24.476,0a.583.583,0,1,1-.583.583h0a.583.583,0,0,1,.583-.583Z" transform="translate(-28.781 -33.98)" fill="#fff" fill-rule="evenodd"/>
    </g>
  </g>
</svg>
