<svg xmlns="http://www.w3.org/2000/svg" xmlns:xlink="http://www.w3.org/1999/xlink" width="34" height="34" viewBox="0 0 34 34">
  <defs>
    <clipPath id="clip-path">
      <circle id="Ellipse_41" data-name="Ellipse 41" cx="17" cy="17" r="17" fill="#132342"/>
    </clipPath>
  </defs>
  <g id="Gruppe_109" data-name="Gruppe 109" transform="translate(486.653 65.627)">
    <g id="Gruppe_107" data-name="Gruppe 107" transform="translate(-486.653 -65.627)">
      <g id="Gruppe_106" data-name="Gruppe 106">
        <g id="Gruppe_105" data-name="Gruppe 105">
          <circle id="Ellipse_40" data-name="Ellipse 40" cx="17" cy="17" r="17" fill="#132342"/>
          <g id="Gruppe_104" data-name="Gruppe 104" clip-path="url(#clip-path)">
            <path id="Pfad_443" data-name="Pfad 443" d="M-486.653,54.048l8.149,11.637h-8.149Z" transform="translate(486.653 -31.685)" fill="#132342"/>
            <path id="Pfad_444" data-name="Pfad 444" d="M-486.653,52.086l8.405,12h-.257l-8.149-11.637Z" transform="translate(486.653 -30.09)" fill="#132342"/>
            <path id="Pfad_445" data-name="Pfad 445" d="M-486.653,50.123l8.662,12.371h-.257l-8.405-12Z" transform="translate(486.653 -28.494)" fill="#132342"/>
            <path id="Pfad_446" data-name="Pfad 446" d="M-486.653,48.161l8.919,12.737h-.257l-8.662-12.371Z" transform="translate(486.653 -26.899)" fill="#132342"/>
            <path id="Pfad_447" data-name="Pfad 447" d="M-486.653,46.2l9.175,13.1h-.257l-8.919-12.737Z" transform="translate(486.653 -25.303)" fill="#132342"/>
            <path id="Pfad_448" data-name="Pfad 448" d="M-486.653,44.237l9.432,13.471h-.257l-9.175-13.1Z" transform="translate(486.653 -23.707)" fill="#132342"/>
            <path id="Pfad_449" data-name="Pfad 449" d="M-486.653,42.275l9.689,13.837h-.257l-9.432-13.471Z" transform="translate(486.653 -22.112)" fill="#132342"/>
            <path id="Pfad_450" data-name="Pfad 450" d="M-486.653,40.312l9.946,14.2h-.257l-9.689-13.837Z" transform="translate(486.653 -20.516)" fill="#132342"/>
            <path id="Pfad_451" data-name="Pfad 451" d="M-486.653,38.35l10.2,14.571h-.257l-9.946-14.2Z" transform="translate(486.653 -18.921)" fill="#132342"/>
            <path id="Pfad_452" data-name="Pfad 452" d="M-486.653,36.388l10.459,14.937h-.257l-10.2-14.571Z" transform="translate(486.653 -17.325)" fill="#132342"/>
            <path id="Pfad_453" data-name="Pfad 453" d="M-486.653,34.426l10.716,15.3h-.257l-10.459-14.937Z" transform="translate(486.653 -15.73)" fill="#132342"/>
            <path id="Pfad_454" data-name="Pfad 454" d="M-486.653,32.464l10.973,15.671h-.257l-10.716-15.3Z" transform="translate(486.653 -14.134)" fill="#132342"/>
            <path id="Pfad_455" data-name="Pfad 455" d="M-486.653,30.5l11.229,16.037h-.257l-10.973-15.671Z" transform="translate(486.653 -12.539)" fill="#132342"/>
            <path id="Pfad_456" data-name="Pfad 456" d="M-486.653,28.539l11.486,16.4h-.257l-11.229-16.037Z" transform="translate(486.653 -10.943)" fill="#132342"/>
            <path id="Pfad_457" data-name="Pfad 457" d="M-486.653,26.577l11.743,16.771h-.257l-11.486-16.4Z" transform="translate(486.653 -9.348)" fill="#132342"/>
            <path id="Pfad_458" data-name="Pfad 458" d="M-486.653,24.615l12,17.137h-.257l-11.743-16.771Z" transform="translate(486.653 -7.752)" fill="#132342"/>
            <path id="Pfad_459" data-name="Pfad 459" d="M-486.653,22.652l12.256,17.5h-.257l-12-17.137Z" transform="translate(486.653 -6.156)" fill="#132342"/>
            <path id="Pfad_460" data-name="Pfad 460" d="M-486.653,20.69l12.513,17.871h-.257l-12.256-17.5Z" transform="translate(486.653 -4.561)" fill="#132342"/>
            <path id="Pfad_461" data-name="Pfad 461" d="M-486.653,18.728l12.77,18.237h-.257l-12.513-17.871Z" transform="translate(486.653 -2.965)" fill="#132342"/>
            <path id="Pfad_462" data-name="Pfad 462" d="M-486.653,16.766l13.027,18.6h-.257l-12.77-18.237Z" transform="translate(486.653 -1.37)" fill="#132342"/>
            <path id="Pfad_463" data-name="Pfad 463" d="M-486.653,14.8l13.283,18.971h-.257l-13.027-18.6Z" transform="translate(486.653 0.226)" fill="#132342"/>
            <path id="Pfad_464" data-name="Pfad 464" d="M-486.653,12.841l13.54,19.337h-.257l-13.283-18.971Z" transform="translate(486.653 1.821)" fill="#132342"/>
            <path id="Pfad_465" data-name="Pfad 465" d="M-486.653,10.879l13.8,19.7h-.257l-13.54-19.337Z" transform="translate(486.653 3.417)" fill="#132342"/>
            <path id="Pfad_466" data-name="Pfad 466" d="M-486.653,8.917-472.6,28.988h-.257l-13.8-19.7Z" transform="translate(486.653 5.012)" fill="#132342"/>
            <path id="Pfad_467" data-name="Pfad 467" d="M-486.653,6.955l14.31,20.437h-.257L-486.653,7.321Z" transform="translate(486.653 6.608)" fill="#132342"/>
            <path id="Pfad_468" data-name="Pfad 468" d="M-486.653,4.993l14.567,20.8h-.257l-14.31-20.437Z" transform="translate(486.653 8.204)" fill="#132342"/>
            <path id="Pfad_469" data-name="Pfad 469" d="M-486.653,3.03-471.829,24.2h-.257L-486.653,3.4Z" transform="translate(486.653 9.799)" fill="#132342"/>
            <path id="Pfad_470" data-name="Pfad 470" d="M-486.653,1.068l15.081,21.537h-.257L-486.653,1.435Z" transform="translate(486.653 11.395)" fill="#132342"/>
            <path id="Pfad_471" data-name="Pfad 471" d="M-486.653-.894l15.337,21.9h-.257L-486.653-.527Z" transform="translate(486.653 12.99)" fill="#132342"/>
            <path id="Pfad_472" data-name="Pfad 472" d="M-486.653-2.856l15.594,22.271h-.257l-15.337-21.9Z" transform="translate(486.653 14.586)" fill="#132342"/>
            <path id="Pfad_473" data-name="Pfad 473" d="M-486.653-4.819-470.8,17.819h-.257L-486.653-4.452Z" transform="translate(486.653 16.181)" fill="#132342"/>
            <path id="Pfad_474" data-name="Pfad 474" d="M-486.653-6.781l16.108,23h-.257L-486.653-6.414Z" transform="translate(486.653 17.777)" fill="#132342"/>
            <path id="Pfad_475" data-name="Pfad 475" d="M-486.653-8.743l16.364,23.371h-.257l-16.108-23Z" transform="translate(486.653 19.372)" fill="#132342"/>
            <path id="Pfad_476" data-name="Pfad 476" d="M-486.653-10.705l16.621,23.737h-.257l-16.364-23.371Z" transform="translate(486.653 20.968)" fill="#132342"/>
            <path id="Pfad_477" data-name="Pfad 477" d="M-486.653-12.667l16.878,24.1h-.257L-486.653-12.3Z" transform="translate(486.653 22.564)" fill="#132342"/>
            <path id="Pfad_478" data-name="Pfad 478" d="M-486.653-14.63l17.134,24.471h-.257l-16.878-24.1Z" transform="translate(486.653 24.159)" fill="#132342"/>
            <path id="Pfad_479" data-name="Pfad 479" d="M-486.653-16.592l17.391,24.837h-.257l-17.134-24.471Z" transform="translate(486.653 25.755)" fill="#132342"/>
            <path id="Pfad_480" data-name="Pfad 480" d="M-486.653-18.554l17.648,25.2h-.257l-17.391-24.837Z" transform="translate(486.653 27.35)" fill="#132342"/>
            <path id="Pfad_481" data-name="Pfad 481" d="M-486.653-20.516l17.9,25.571h-.257l-17.648-25.2Z" transform="translate(486.653 28.946)" fill="#132342"/>
            <path id="Pfad_482" data-name="Pfad 482" d="M-486.653-22.479l18.161,25.937h-.257l-17.9-25.571Z" transform="translate(486.653 30.541)" fill="#132342"/>
            <path id="Pfad_483" data-name="Pfad 483" d="M-486.653-24.441l18.418,26.3h-.257l-18.161-25.937Z" transform="translate(486.653 32.137)" fill="#132342"/>
            <path id="Pfad_484" data-name="Pfad 484" d="M-486.653-26.4-467.978.268h-.257l-18.418-26.3Z" transform="translate(486.653 33.732)" fill="#132342"/>
            <path id="Pfad_485" data-name="Pfad 485" d="M-486.653-28.365l18.932,27.037h-.257L-486.653-28Z" transform="translate(486.653 35.328)" fill="#132342"/>
            <path id="Pfad_486" data-name="Pfad 486" d="M-486.653-30.327l19.188,27.4h-.257l-18.932-27.037Z" transform="translate(486.653 36.923)" fill="#132342"/>
            <path id="Pfad_487" data-name="Pfad 487" d="M-486.653-32.29l19.445,27.771h-.257l-19.188-27.4Z" transform="translate(486.653 38.519)" fill="#132342"/>
            <path id="Pfad_488" data-name="Pfad 488" d="M-486.653-34.252l19.7,28.137h-.257l-19.445-27.771Z" transform="translate(486.653 40.115)" fill="#132342"/>
            <path id="Pfad_489" data-name="Pfad 489" d="M-486.653-36.214l19.959,28.5h-.257l-19.7-28.137Z" transform="translate(486.653 41.71)" fill="#132342"/>
            <path id="Pfad_490" data-name="Pfad 490" d="M-486.653-38.176l20.215,28.871h-.257l-19.959-28.5Z" transform="translate(486.653 43.306)" fill="#132342"/>
            <path id="Pfad_491" data-name="Pfad 491" d="M-486.653-40.138-466.181-10.9h-.257l-20.215-28.871Z" transform="translate(486.653 44.901)" fill="#132342"/>
            <path id="Pfad_492" data-name="Pfad 492" d="M-486.653-41.812l.035-.024,20.694,29.555h-.257l-20.472-29.237Z" transform="translate(486.653 46.282)" fill="#132342"/>
            <path id="Pfad_493" data-name="Pfad 493" d="M-486.468-42.361l.172-.121,20.779,29.675h-.257Z" transform="translate(486.503 46.807)" fill="#132342"/>
            <path id="Pfad_494" data-name="Pfad 494" d="M-485.546-43.007l.172-.121,20.863,29.8h-.257Z" transform="translate(485.753 47.332)" fill="#132342"/>
            <path id="Pfad_495" data-name="Pfad 495" d="M-484.624-43.652l.172-.121L-463.5-13.857h-.257Z" transform="translate(485.003 47.857)" fill="#132342"/>
            <path id="Pfad_496" data-name="Pfad 496" d="M-483.7-44.3l.172-.121L-462.5-14.382h-.257Z" transform="translate(484.254 48.382)" fill="#132342"/>
            <path id="Pfad_497" data-name="Pfad 497" d="M-482.78-44.943l.172-.121,21.117,30.158h-.257Z" transform="translate(483.504 48.906)" fill="#132342"/>
            <path id="Pfad_498" data-name="Pfad 498" d="M-481.858-45.589l.172-.121,21.2,30.278h-.257Z" transform="translate(482.754 49.431)" fill="#132342"/>
            <path id="Pfad_499" data-name="Pfad 499" d="M-480.936-46.235l.172-.121,21.286,30.4h-.257Z" transform="translate(482.005 49.956)" fill="#132342"/>
            <path id="Pfad_500" data-name="Pfad 500" d="M-480.014-46.88l.172-.121,21.37,30.52h-.257Z" transform="translate(481.255 50.481)" fill="#132342"/>
            <path id="Pfad_501" data-name="Pfad 501" d="M-479.092-47.526l.172-.121,21.454,30.64h-.257Z" transform="translate(480.505 51.006)" fill="#132342"/>
            <path id="Pfad_502" data-name="Pfad 502" d="M-478.171-48.171l.172-.121,21.539,30.761h-.257Z" transform="translate(479.756 51.531)" fill="#132342"/>
            <path id="Pfad_503" data-name="Pfad 503" d="M-477.249-48.817l.172-.121,21.623,30.881h-.257Z" transform="translate(479.006 52.056)" fill="#132342"/>
            <path id="Pfad_504" data-name="Pfad 504" d="M-476.327-49.462l.172-.121,21.708,31h-.257Z" transform="translate(478.256 52.581)" fill="#132342"/>
            <path id="Pfad_505" data-name="Pfad 505" d="M-475.4-50.108l.172-.121,21.792,31.123h-.257Z" transform="translate(477.507 53.106)" fill="#132342"/>
            <path id="Pfad_506" data-name="Pfad 506" d="M-474.483-50.753l.172-.121,21.877,31.243h-.257Z" transform="translate(476.757 53.631)" fill="#132342"/>
            <path id="Pfad_507" data-name="Pfad 507" d="M-473.561-51.4l.172-.121,21.961,31.364h-.257Z" transform="translate(476.007 54.156)" fill="#132342"/>
            <path id="Pfad_508" data-name="Pfad 508" d="M-472.639-52.045l.172-.121,22.046,31.485h-.257Z" transform="translate(475.258 54.681)" fill="#132342"/>
            <path id="Pfad_509" data-name="Pfad 509" d="M-471.717-52.69l.172-.121,22.13,31.605h-.257Z" transform="translate(474.508 55.206)" fill="#132342"/>
            <path id="Pfad_510" data-name="Pfad 510" d="M-470.795-53.336l.172-.121,22.215,31.726h-.257Z" transform="translate(473.758 55.73)" fill="#132342"/>
            <path id="Pfad_511" data-name="Pfad 511" d="M-469.873-53.981l.172-.121,22.3,31.846h-.257Z" transform="translate(473.009 56.255)" fill="#132342"/>
            <path id="Pfad_512" data-name="Pfad 512" d="M-468.951-54.627l.172-.121L-446.4-22.78h-.257Z" transform="translate(472.259 56.78)" fill="#132342"/>
            <path id="Pfad_513" data-name="Pfad 513" d="M-468.029-55.272l.172-.121,22.468,32.088h-.257Z" transform="translate(471.509 57.305)" fill="#132342"/>
            <path id="Pfad_514" data-name="Pfad 514" d="M-467.107-55.918l.172-.121,22.553,32.208h-.257Z" transform="translate(470.76 57.83)" fill="#132342"/>
            <path id="Pfad_515" data-name="Pfad 515" d="M-466.185-56.563l.172-.121,22.637,32.329h-.257Z" transform="translate(470.01 58.355)" fill="#132342"/>
            <path id="Pfad_516" data-name="Pfad 516" d="M-465.263-57.209l.172-.121,22.721,32.45h-.257Z" transform="translate(469.26 58.88)" fill="#132342"/>
            <path id="Pfad_517" data-name="Pfad 517" d="M-464.341-57.854l.172-.121,22.806,32.57h-.257Z" transform="translate(468.511 59.405)" fill="#132342"/>
            <path id="Pfad_518" data-name="Pfad 518" d="M-463.419-58.169l.064-.045L-440.519-25.6h-.1Z" transform="translate(467.761 59.599)" fill="#132342"/>
            <path id="Pfad_519" data-name="Pfad 519" d="M-463.078-58.408l.064-.045,22.868,32.659h-.095Z" transform="translate(467.484 59.793)" fill="#132342"/>
            <path id="Pfad_520" data-name="Pfad 520" d="M-462.737-58.647l.064-.045,22.9,32.7h-.1Z" transform="translate(467.206 59.988)" fill="#132342"/>
            <path id="Pfad_521" data-name="Pfad 521" d="M-462.4-58.886l.064-.045L-439.4-26.182h-.1Z" transform="translate(466.929 60.182)" fill="#132342"/>
            <path id="Pfad_522" data-name="Pfad 522" d="M-462.055-59.125l.064-.045,22.96,32.791,0,0h-.089Z" transform="translate(466.652 60.376)" fill="#132342"/>
            <rect id="Rechteck_101" data-name="Rechteck 101" width="0.078" height="40.03" transform="translate(4.66 1.207) rotate(-35)" fill="#132342"/>
            <rect id="Rechteck_102" data-name="Rechteck 102" width="0.078" height="40.03" transform="matrix(0.819, -0.574, 0.574, 0.819, 4.724, 1.162)" fill="#132342"/>
            <rect id="Rechteck_103" data-name="Rechteck 103" width="0.078" height="40.03" transform="translate(4.788 1.117) rotate(-35)" fill="#132342"/>
            <rect id="Rechteck_104" data-name="Rechteck 104" width="0.078" height="40.03" transform="translate(4.851 1.073) rotate(-35)" fill="#132342"/>
            <rect id="Rechteck_105" data-name="Rechteck 105" width="0.078" height="40.03" transform="matrix(0.819, -0.574, 0.574, 0.819, 4.915, 1.028)" fill="#132342"/>
            <rect id="Rechteck_106" data-name="Rechteck 106" width="0.078" height="40.03" transform="matrix(0.819, -0.574, 0.574, 0.819, 4.979, 0.984)" fill="#132342"/>
            <rect id="Rechteck_107" data-name="Rechteck 107" width="0.078" height="40.03" transform="translate(5.043 0.939) rotate(-35)" fill="#132342"/>
            <rect id="Rechteck_108" data-name="Rechteck 108" width="0.078" height="40.03" transform="matrix(0.819, -0.574, 0.574, 0.819, 5.106, 0.894)" fill="#132342"/>
            <rect id="Rechteck_109" data-name="Rechteck 109" width="0.078" height="40.03" transform="translate(5.17 0.85) rotate(-35)" fill="#132342"/>
            <rect id="Rechteck_110" data-name="Rechteck 110" width="0.078" height="40.03" transform="matrix(0.819, -0.574, 0.574, 0.819, 5.234, 0.805)" fill="#132342"/>
            <rect id="Rechteck_111" data-name="Rechteck 111" width="0.078" height="40.03" transform="translate(5.297 0.76) rotate(-35)" fill="#132342"/>
            <rect id="Rechteck_112" data-name="Rechteck 112" width="0.078" height="40.03" transform="translate(5.361 0.716) rotate(-35)" fill="#132342"/>
            <rect id="Rechteck_113" data-name="Rechteck 113" width="0.078" height="40.03" transform="matrix(0.819, -0.574, 0.574, 0.819, 5.425, 0.671)" fill="#132342"/>
            <rect id="Rechteck_114" data-name="Rechteck 114" width="0.078" height="40.03" transform="matrix(0.819, -0.574, 0.574, 0.819, 5.489, 0.627)" fill="#132342"/>
            <rect id="Rechteck_115" data-name="Rechteck 115" width="0.078" height="40.03" transform="translate(5.552 0.582) rotate(-35)" fill="#132342"/>
            <rect id="Rechteck_116" data-name="Rechteck 116" width="0.078" height="40.03" transform="matrix(0.819, -0.574, 0.574, 0.819, 5.616, 0.537)" fill="#132342"/>
            <rect id="Rechteck_117" data-name="Rechteck 117" width="0.078" height="40.03" transform="translate(5.68 0.493) rotate(-35)" fill="#132342"/>
            <rect id="Rechteck_118" data-name="Rechteck 118" width="0.078" height="40.03" transform="matrix(0.819, -0.574, 0.574, 0.819, 5.744, 0.448)" fill="#132342"/>
            <rect id="Rechteck_119" data-name="Rechteck 119" width="0.078" height="40.03" transform="translate(5.807 0.403) rotate(-35)" fill="#132342"/>
            <rect id="Rechteck_120" data-name="Rechteck 120" width="0.078" height="40.03" transform="translate(5.871 0.359) rotate(-35)" fill="#132342"/>
            <rect id="Rechteck_121" data-name="Rechteck 121" width="0.078" height="40.03" transform="matrix(0.819, -0.574, 0.574, 0.819, 5.935, 0.314)" fill="#132342"/>
            <rect id="Rechteck_122" data-name="Rechteck 122" width="0.078" height="40.03" transform="matrix(0.819, -0.574, 0.574, 0.819, 5.999, 0.269)" fill="#132342"/>
            <rect id="Rechteck_123" data-name="Rechteck 123" width="0.078" height="40.03" transform="translate(6.062 0.225) rotate(-35)" fill="#132342"/>
            <rect id="Rechteck_124" data-name="Rechteck 124" width="0.078" height="40.03" transform="matrix(0.819, -0.574, 0.574, 0.819, 6.126, 0.18)" fill="#132342"/>
            <rect id="Rechteck_125" data-name="Rechteck 125" width="0.078" height="40.03" transform="matrix(0.819, -0.574, 0.574, 0.819, 6.19, 0.136)" fill="#132342"/>
            <rect id="Rechteck_126" data-name="Rechteck 126" width="0.078" height="40.03" transform="translate(6.254 0.091) rotate(-35)" fill="#132342"/>
            <rect id="Rechteck_127" data-name="Rechteck 127" width="0.078" height="40.03" transform="translate(6.317 0.046) rotate(-35)" fill="#132342"/>
            <path id="Pfad_523" data-name="Pfad 523" d="M-452.5-65.625l0,0h.091l22.93,32.748-.064.045Z" transform="translate(458.886 65.627)" fill="#132342"/>
            <path id="Pfad_524" data-name="Pfad 524" d="M-451.908-65.627l22.9,32.7-.064.045L-452-65.627Z" transform="translate(458.478 65.627)" fill="#132342"/>
            <path id="Pfad_525" data-name="Pfad 525" d="M-451.4-65.627l22.868,32.659-.064.045-22.9-32.7Z" transform="translate(458.064 65.627)" fill="#132342"/>
            <path id="Pfad_526" data-name="Pfad 526" d="M-450.891-65.627l22.837,32.614-.064.045-22.868-32.659Z" transform="translate(457.651 65.627)" fill="#132342"/>
            <path id="Pfad_527" data-name="Pfad 527" d="M-450.383-65.627l22.805,32.569-.064.045-22.836-32.614Z" transform="translate(457.238 65.627)" fill="#132342"/>
            <path id="Pfad_528" data-name="Pfad 528" d="M-449.875-65.627-427.1-33.1l-.064.045L-449.97-65.627Z" transform="translate(456.824 65.627)" fill="#132342"/>
            <path id="Pfad_529" data-name="Pfad 529" d="M-449.367-65.627l22.743,32.48-.064.045-22.774-32.525Z" transform="translate(456.411 65.627)" fill="#132342"/>
            <path id="Pfad_530" data-name="Pfad 530" d="M-448.858-65.627l22.711,32.435-.064.045-22.743-32.48Z" transform="translate(455.998 65.627)" fill="#132342"/>
            <path id="Pfad_531" data-name="Pfad 531" d="M-448.35-65.627l22.68,32.391-.064.045-22.711-32.435Z" transform="translate(455.585 65.627)" fill="#132342"/>
            <path id="Pfad_532" data-name="Pfad 532" d="M-447.842-65.627l22.649,32.346-.064.045-22.68-32.391Z" transform="translate(455.171 65.627)" fill="#132342"/>
            <path id="Pfad_533" data-name="Pfad 533" d="M-447.333-65.627l22.618,32.3-.064.045-22.649-32.346Z" transform="translate(454.758 65.627)" fill="#132342"/>
            <path id="Pfad_534" data-name="Pfad 534" d="M-446.825-65.627l22.586,32.257-.064.045-22.618-32.3Z" transform="translate(454.345 65.627)" fill="#132342"/>
            <path id="Pfad_535" data-name="Pfad 535" d="M-446.317-65.627l22.555,32.212-.064.045-22.587-32.257Z" transform="translate(453.931 65.627)" fill="#132342"/>
            <path id="Pfad_536" data-name="Pfad 536" d="M-445.808-65.627l22.524,32.168-.064.045L-445.9-65.627Z" transform="translate(453.518 65.627)" fill="#132342"/>
            <path id="Pfad_537" data-name="Pfad 537" d="M-445.3-65.627-422.807-33.5l-.064.045L-445.4-65.627Z" transform="translate(453.105 65.627)" fill="#132342"/>
            <path id="Pfad_538" data-name="Pfad 538" d="M-444.792-65.627l22.462,32.078-.064.045-22.493-32.123Z" transform="translate(452.691 65.627)" fill="#132342"/>
            <path id="Pfad_539" data-name="Pfad 539" d="M-444.283-65.627l22.43,32.034-.064.045-22.462-32.078Z" transform="translate(452.278 65.627)" fill="#132342"/>
            <path id="Pfad_540" data-name="Pfad 540" d="M-443.775-65.627l22.4,31.989-.064.045-22.43-32.034Z" transform="translate(451.865 65.627)" fill="#132342"/>
            <path id="Pfad_541" data-name="Pfad 541" d="M-443.267-65.627-420.9-33.682l-.064.045-22.4-31.989Z" transform="translate(451.451 65.627)" fill="#132342"/>
            <path id="Pfad_542" data-name="Pfad 542" d="M-442.759-65.627l22.337,31.9-.064.045-22.368-31.944Z" transform="translate(451.038 65.627)" fill="#132342"/>
            <path id="Pfad_543" data-name="Pfad 543" d="M-442.25-65.627l22.305,31.855-.064.045-22.337-31.9Z" transform="translate(450.625 65.627)" fill="#132342"/>
            <path id="Pfad_544" data-name="Pfad 544" d="M-441.742-65.627l22.274,31.811-.064.045-22.305-31.855Z" transform="translate(450.211 65.627)" fill="#132342"/>
            <path id="Pfad_545" data-name="Pfad 545" d="M-441.234-65.627l22.243,31.766-.064.045-22.274-31.811Z" transform="translate(449.798 65.627)" fill="#132342"/>
            <path id="Pfad_546" data-name="Pfad 546" d="M-440.725-65.627l22.212,31.721-.064.045L-440.82-65.627Z" transform="translate(449.385 65.627)" fill="#132342"/>
            <path id="Pfad_547" data-name="Pfad 547" d="M-440.217-65.627l22.18,31.677-.064.045-22.212-31.721Z" transform="translate(448.971 65.627)" fill="#132342"/>
            <path id="Pfad_548" data-name="Pfad 548" d="M-439.709-65.627l22.149,31.632-.064.045L-439.8-65.627Z" transform="translate(448.558 65.627)" fill="#132342"/>
            <path id="Pfad_549" data-name="Pfad 549" d="M-439.2-65.627l22.118,31.587-.064.045L-439.3-65.627Z" transform="translate(448.145 65.627)" fill="#132342"/>
            <path id="Pfad_550" data-name="Pfad 550" d="M-438.692-65.627l22.087,31.543-.064.045-22.118-31.587Z" transform="translate(447.731 65.627)" fill="#132342"/>
            <path id="Pfad_551" data-name="Pfad 551" d="M-438.184-65.627l22.055,31.5-.064.045-22.087-31.543Z" transform="translate(447.318 65.627)" fill="#132342"/>
            <path id="Pfad_552" data-name="Pfad 552" d="M-437.675-65.627l22.024,31.454-.064.045-22.055-31.5Z" transform="translate(446.905 65.627)" fill="#132342"/>
            <path id="Pfad_553" data-name="Pfad 553" d="M-437.167-65.627l21.993,31.409-.064.045-22.024-31.454Z" transform="translate(446.491 65.627)" fill="#132342"/>
            <path id="Pfad_554" data-name="Pfad 554" d="M-436.659-65.627-414.7-34.262l-.064.045-21.993-31.409Z" transform="translate(446.078 65.627)" fill="#132342"/>
            <path id="Pfad_555" data-name="Pfad 555" d="M-436.151-65.627l21.93,31.32-.064.045-21.962-31.364Z" transform="translate(445.665 65.627)" fill="#132342"/>
            <path id="Pfad_556" data-name="Pfad 556" d="M-435.642-65.627l21.9,31.275-.064.045-21.93-31.32Z" transform="translate(445.251 65.627)" fill="#132342"/>
            <path id="Pfad_557" data-name="Pfad 557" d="M-435.134-65.627l21.868,31.23-.064.045-21.9-31.275Z" transform="translate(444.838 65.627)" fill="#132342"/>
            <path id="Pfad_558" data-name="Pfad 558" d="M-434.626-65.627l21.837,31.186-.064.045-21.868-31.23Z" transform="translate(444.425 65.627)" fill="#132342"/>
            <path id="Pfad_559" data-name="Pfad 559" d="M-434.117-65.627l21.805,31.141-.064.045-21.837-31.186Z" transform="translate(444.011 65.627)" fill="#132342"/>
            <path id="Pfad_560" data-name="Pfad 560" d="M-433.609-65.627l21.774,31.1-.064.045L-433.7-65.627Z" transform="translate(443.598 65.627)" fill="#132342"/>
            <path id="Pfad_561" data-name="Pfad 561" d="M-433.1-65.627l21.743,31.052-.064.045-21.774-31.1Z" transform="translate(443.185 65.627)" fill="#132342"/>
            <path id="Pfad_562" data-name="Pfad 562" d="M-432.592-65.627l21.712,31.007-.064.045-21.743-31.052Z" transform="translate(442.771 65.627)" fill="#132342"/>
            <path id="Pfad_563" data-name="Pfad 563" d="M-432.084-65.627l21.68,30.963-.064.045-21.712-31.007Z" transform="translate(442.358 65.627)" fill="#132342"/>
            <path id="Pfad_564" data-name="Pfad 564" d="M-431.576-65.627l21.649,30.918-.064.045-21.68-30.963Z" transform="translate(441.945 65.627)" fill="#132342"/>
            <path id="Pfad_565" data-name="Pfad 565" d="M-431.067-65.627l21.618,30.873-.064.045-21.649-30.918Z" transform="translate(441.531 65.627)" fill="#132342"/>
            <path id="Pfad_566" data-name="Pfad 566" d="M-430.559-65.627-408.973-34.8l-.064.045-21.618-30.873Z" transform="translate(441.118 65.627)" fill="#132342"/>
            <path id="Pfad_567" data-name="Pfad 567" d="M-430.051-65.627-408.5-34.843l-.064.045-21.587-30.829Z" transform="translate(440.705 65.627)" fill="#132342"/>
            <path id="Pfad_568" data-name="Pfad 568" d="M-429.542-65.627l21.524,30.74-.064.045-21.555-30.784Z" transform="translate(440.291 65.627)" fill="#132342"/>
            <path id="Pfad_569" data-name="Pfad 569" d="M-429.034-65.627l21.493,30.695-.064.045-21.524-30.74Z" transform="translate(439.878 65.627)" fill="#132342"/>
            <path id="Pfad_570" data-name="Pfad 570" d="M-428.526-65.627l21.462,30.65-.064.045-21.493-30.695Z" transform="translate(439.465 65.627)" fill="#132342"/>
            <path id="Pfad_571" data-name="Pfad 571" d="M-428.017-65.627l21.43,30.606-.064.045-21.462-30.65Z" transform="translate(439.052 65.627)" fill="#132342"/>
            <path id="Pfad_572" data-name="Pfad 572" d="M-427.509-65.627l21.4,30.561-.064.045L-427.6-65.627Z" transform="translate(438.638 65.627)" fill="#132342"/>
            <path id="Pfad_573" data-name="Pfad 573" d="M-427-65.627l21.368,30.516-.064.045-21.4-30.561Z" transform="translate(438.225 65.627)" fill="#132342"/>
            <path id="Pfad_574" data-name="Pfad 574" d="M-426.493-65.627l21.337,30.472-.064.045-21.368-30.516Z" transform="translate(437.812 65.627)" fill="#132342"/>
            <path id="Pfad_575" data-name="Pfad 575" d="M-425.984-65.627-404.679-35.2l-.064.045-21.337-30.472Z" transform="translate(437.398 65.627)" fill="#132342"/>
            <path id="Pfad_576" data-name="Pfad 576" d="M-425.476-65.627-404.2-35.244l-.064.045-21.305-30.427Z" transform="translate(436.985 65.627)" fill="#132342"/>
            <path id="Pfad_577" data-name="Pfad 577" d="M-424.968-65.627l21.243,30.338-.064.045-21.274-30.382Z" transform="translate(436.572 65.627)" fill="#132342"/>
            <path id="Pfad_578" data-name="Pfad 578" d="M-424.459-65.627l21.212,30.293-.064.045-21.243-30.338Z" transform="translate(436.158 65.627)" fill="#132342"/>
            <path id="Pfad_579" data-name="Pfad 579" d="M-423.951-65.627l21.18,30.249-.064.045-21.212-30.293Z" transform="translate(435.745 65.627)" fill="#132342"/>
            <path id="Pfad_580" data-name="Pfad 580" d="M-423.443-65.627l21.149,30.2-.064.045-21.18-30.249Z" transform="translate(435.332 65.627)" fill="#132342"/>
            <path id="Pfad_581" data-name="Pfad 581" d="M-422.934-65.627l21.118,30.159-.064.045-21.149-30.2Z" transform="translate(434.918 65.627)" fill="#132342"/>
            <path id="Pfad_582" data-name="Pfad 582" d="M-422.426-65.627l21.087,30.115-.064.045-21.118-30.159Z" transform="translate(434.505 65.627)" fill="#132342"/>
            <path id="Pfad_583" data-name="Pfad 583" d="M-421.918-65.627l21.055,30.07-.064.045-21.087-30.115Z" transform="translate(434.092 65.627)" fill="#132342"/>
            <path id="Pfad_584" data-name="Pfad 584" d="M-421.409-65.627-400.385-35.6l-.064.045L-421.5-65.627Z" transform="translate(433.678 65.627)" fill="#132342"/>
            <path id="Pfad_585" data-name="Pfad 585" d="M-420.9-65.627l20.993,29.981-.064.045L-421-65.627Z" transform="translate(433.265 65.627)" fill="#132342"/>
            <path id="Pfad_586" data-name="Pfad 586" d="M-420.393-65.627l20.962,29.936-.064.045-20.993-29.981Z" transform="translate(432.852 65.627)" fill="#132342"/>
            <path id="Pfad_587" data-name="Pfad 587" d="M-419.885-65.627l20.93,29.892-.064.045L-419.98-65.627Z" transform="translate(432.438 65.627)" fill="#132342"/>
            <path id="Pfad_588" data-name="Pfad 588" d="M-419.376-65.627l20.9,29.847-.064.045-20.93-29.892Z" transform="translate(432.025 65.627)" fill="#132342"/>
            <path id="Pfad_589" data-name="Pfad 589" d="M-418.868-65.627-398-35.824l-.064.045-20.9-29.847Z" transform="translate(431.612 65.627)" fill="#132342"/>
            <path id="Pfad_590" data-name="Pfad 590" d="M-418.36-65.627l20.837,29.758-.064.045-20.868-29.8Z" transform="translate(431.198 65.627)" fill="#132342"/>
            <path id="Pfad_591" data-name="Pfad 591" d="M-417.851-65.627l20.805,29.713-.064.045-20.837-29.758Z" transform="translate(430.785 65.627)" fill="#132342"/>
            <path id="Pfad_592" data-name="Pfad 592" d="M-417.343-65.627l20.774,29.668-.064.045-20.805-29.713Z" transform="translate(430.372 65.627)" fill="#132342"/>
            <path id="Pfad_593" data-name="Pfad 593" d="M-416.835-65.627-396.092-36l-.064.045L-416.93-65.627Z" transform="translate(429.958 65.627)" fill="#132342"/>
            <path id="Pfad_594" data-name="Pfad 594" d="M-416.326-65.627l20.712,29.579-.064.045-20.743-29.624Z" transform="translate(429.545 65.627)" fill="#132342"/>
            <path id="Pfad_595" data-name="Pfad 595" d="M-415.818-65.627l20.68,29.535-.064.045-20.712-29.579Z" transform="translate(429.132 65.627)" fill="#132342"/>
            <path id="Pfad_596" data-name="Pfad 596" d="M-415.31-65.627l20.591,29.408v.123l-.006,0L-415.4-65.627Z" transform="translate(428.718 65.627)" fill="#132342"/>
            <path id="Pfad_597" data-name="Pfad 597" d="M-414.8-65.627l20.5,29.272v.136L-414.9-65.627Z" transform="translate(428.305 65.627)" fill="#132342"/>
            <path id="Pfad_598" data-name="Pfad 598" d="M-414.293-65.627l20.4,29.136v.136l-20.5-29.272Z" transform="translate(427.892 65.627)" fill="#132342"/>
            <path id="Pfad_599" data-name="Pfad 599" d="M-413.785-65.627l20.307,29v.136l-20.4-29.136Z" transform="translate(427.478 65.627)" fill="#132342"/>
            <path id="Pfad_600" data-name="Pfad 600" d="M-413.277-65.627l20.211,28.865v.136l-20.306-29Z" transform="translate(427.065 65.627)" fill="#132342"/>
            <path id="Pfad_601" data-name="Pfad 601" d="M-412.768-65.627-392.652-36.9v.136l-20.211-28.865Z" transform="translate(426.652 65.627)" fill="#132342"/>
            <path id="Pfad_602" data-name="Pfad 602" d="M-412.26-65.627l20.022,28.594v.136l-20.117-28.729Z" transform="translate(426.238 65.627)" fill="#132342"/>
            <path id="Pfad_603" data-name="Pfad 603" d="M-411.752-65.627l19.927,28.458v.136l-20.022-28.594Z" transform="translate(425.825 65.627)" fill="#132342"/>
            <path id="Pfad_604" data-name="Pfad 604" d="M-411.243-65.627-391.412-37.3v.136l-19.927-28.458Z" transform="translate(425.412 65.627)" fill="#132342"/>
            <path id="Pfad_605" data-name="Pfad 605" d="M-410.735-65.627-391-37.44v.136L-410.83-65.627Z" transform="translate(424.998 65.627)" fill="#132342"/>
            <path id="Pfad_606" data-name="Pfad 606" d="M-410.227-65.627l19.642,28.051v.136l-19.737-28.187Z" transform="translate(424.585 65.627)" fill="#132342"/>
            <path id="Pfad_607" data-name="Pfad 607" d="M-409.718-65.627l19.547,27.915v.136l-19.642-28.051Z" transform="translate(424.172 65.627)" fill="#132342"/>
            <path id="Pfad_608" data-name="Pfad 608" d="M-409.21-65.627l19.452,27.78v.136l-19.547-27.915Z" transform="translate(423.758 65.627)" fill="#132342"/>
            <path id="Pfad_609" data-name="Pfad 609" d="M-408.7-65.627l19.357,27.644v.136L-408.8-65.627Z" transform="translate(423.345 65.627)" fill="#132342"/>
            <path id="Pfad_610" data-name="Pfad 610" d="M-408.193-65.627l19.262,27.509v.136l-19.357-27.644Z" transform="translate(422.932 65.627)" fill="#132342"/>
            <path id="Pfad_611" data-name="Pfad 611" d="M-407.685-65.627l19.167,27.373v.136L-407.78-65.627Z" transform="translate(422.518 65.627)" fill="#132342"/>
            <path id="Pfad_612" data-name="Pfad 612" d="M-407.177-65.627l19.072,27.237v.136l-19.167-27.373Z" transform="translate(422.105 65.627)" fill="#132342"/>
            <path id="Pfad_613" data-name="Pfad 613" d="M-406.668-65.627l18.977,27.1v.136l-19.072-27.237Z" transform="translate(421.692 65.627)" fill="#132342"/>
            <path id="Pfad_614" data-name="Pfad 614" d="M-406.16-65.627l18.882,26.966v.136l-18.977-27.1Z" transform="translate(421.278 65.627)" fill="#132342"/>
            <path id="Pfad_615" data-name="Pfad 615" d="M-405.652-65.627l18.787,26.83v.136l-18.882-26.966Z" transform="translate(420.865 65.627)" fill="#132342"/>
            <path id="Pfad_616" data-name="Pfad 616" d="M-405.144-65.627l18.692,26.695v.136l-18.787-26.83Z" transform="translate(420.452 65.627)" fill="#132342"/>
            <path id="Pfad_617" data-name="Pfad 617" d="M-404.635-65.627l18.6,26.559v.136L-404.73-65.627Z" transform="translate(420.038 65.627)" fill="#132342"/>
            <path id="Pfad_618" data-name="Pfad 618" d="M-404.127-65.627l18.5,26.423v.136l-18.6-26.559Z" transform="translate(419.625 65.627)" fill="#132342"/>
            <path id="Pfad_619" data-name="Pfad 619" d="M-403.619-65.627l18.407,26.288v.136l-18.5-26.423Z" transform="translate(419.212 65.627)" fill="#132342"/>
            <path id="Pfad_620" data-name="Pfad 620" d="M-403.11-65.627-384.8-39.475v.136l-18.407-26.288Z" transform="translate(418.799 65.627)" fill="#132342"/>
            <path id="Pfad_621" data-name="Pfad 621" d="M-402.6-65.627l18.217,26.016v.136L-402.7-65.627Z" transform="translate(418.385 65.627)" fill="#132342"/>
            <path id="Pfad_622" data-name="Pfad 622" d="M-402.094-65.627l18.122,25.881v.136l-18.217-26.016Z" transform="translate(417.972 65.627)" fill="#132342"/>
            <path id="Pfad_623" data-name="Pfad 623" d="M-401.585-65.627l18.027,25.745v.136L-401.68-65.627Z" transform="translate(417.559 65.627)" fill="#132342"/>
            <path id="Pfad_624" data-name="Pfad 624" d="M-401.077-65.627l17.932,25.609v.136l-18.027-25.745Z" transform="translate(417.145 65.627)" fill="#132342"/>
            <path id="Pfad_625" data-name="Pfad 625" d="M-400.569-65.627l17.837,25.474v.136l-17.932-25.609Z" transform="translate(416.732 65.627)" fill="#132342"/>
            <path id="Pfad_626" data-name="Pfad 626" d="M-400.06-65.627l17.742,25.338v.136l-17.837-25.474Z" transform="translate(416.319 65.627)" fill="#132342"/>
            <path id="Pfad_627" data-name="Pfad 627" d="M-399.552-65.627l17.647,25.2v.136l-17.742-25.338Z" transform="translate(415.905 65.627)" fill="#132342"/>
            <path id="Pfad_628" data-name="Pfad 628" d="M-399.044-65.627l17.552,25.067v.136l-17.647-25.2Z" transform="translate(415.492 65.627)" fill="#132342"/>
            <path id="Pfad_629" data-name="Pfad 629" d="M-398.536-65.627-381.079-40.7v.136l-17.552-25.067Z" transform="translate(415.079 65.627)" fill="#132342"/>
            <path id="Pfad_630" data-name="Pfad 630" d="M-398.027-65.627l17.362,24.8v.136l-17.457-24.931Z" transform="translate(414.665 65.627)" fill="#132342"/>
            <path id="Pfad_631" data-name="Pfad 631" d="M-397.519-65.627l17.267,24.66v.136l-17.362-24.8Z" transform="translate(414.252 65.627)" fill="#132342"/>
            <path id="Pfad_632" data-name="Pfad 632" d="M-397.011-65.627-379.839-41.1v.136l-17.267-24.66Z" transform="translate(413.839 65.627)" fill="#132342"/>
            <path id="Pfad_633" data-name="Pfad 633" d="M-396.5-65.627l17.077,24.389v.136L-396.6-65.627Z" transform="translate(413.425 65.627)" fill="#132342"/>
            <path id="Pfad_634" data-name="Pfad 634" d="M-395.994-65.627l16.982,24.253v.136l-17.077-24.389Z" transform="translate(413.012 65.627)" fill="#132342"/>
            <path id="Pfad_635" data-name="Pfad 635" d="M-395.486-65.627-378.6-41.51v.136l-16.982-24.253Z" transform="translate(412.599 65.627)" fill="#132342"/>
            <path id="Pfad_636" data-name="Pfad 636" d="M-394.977-65.627l16.792,23.982v.136l-16.887-24.117Z" transform="translate(412.185 65.627)" fill="#132342"/>
            <path id="Pfad_637" data-name="Pfad 637" d="M-394.469-65.627l16.7,23.846v.136l-16.792-23.982Z" transform="translate(411.772 65.627)" fill="#132342"/>
            <path id="Pfad_638" data-name="Pfad 638" d="M-393.961-65.627l16.6,23.71v.136l-16.7-23.846Z" transform="translate(411.359 65.627)" fill="#132342"/>
            <path id="Pfad_639" data-name="Pfad 639" d="M-393.452-65.627l16.507,23.575v.136l-16.6-23.71Z" transform="translate(410.945 65.627)" fill="#132342"/>
            <path id="Pfad_640" data-name="Pfad 640" d="M-392.944-65.627l16.412,23.439v.136l-16.507-23.575Z" transform="translate(410.532 65.627)" fill="#132342"/>
            <path id="Pfad_641" data-name="Pfad 641" d="M-392.436-65.627l16.317,23.3v.136l-16.412-23.439Z" transform="translate(410.119 65.627)" fill="#132342"/>
            <path id="Pfad_642" data-name="Pfad 642" d="M-391.928-65.627l16.222,23.168v.136l-16.317-23.3Z" transform="translate(409.705 65.627)" fill="#132342"/>
            <path id="Pfad_643" data-name="Pfad 643" d="M-391.419-65.627l16.127,23.032v.136l-16.222-23.168Z" transform="translate(409.292 65.627)" fill="#132342"/>
            <path id="Pfad_644" data-name="Pfad 644" d="M-390.911-65.627l16.032,22.9v.136l-16.127-23.032Z" transform="translate(408.879 65.627)" fill="#132342"/>
            <path id="Pfad_645" data-name="Pfad 645" d="M-390.4-65.627l15.937,22.761v.136l-16.032-22.9Z" transform="translate(408.465 65.627)" fill="#132342"/>
            <path id="Pfad_646" data-name="Pfad 646" d="M-389.894-65.627-374.052-43v.136l-15.937-22.761Z" transform="translate(408.052 65.627)" fill="#132342"/>
            <path id="Pfad_647" data-name="Pfad 647" d="M-389.386-65.627l15.747,22.489V-43l-15.842-22.625Z" transform="translate(407.639 65.627)" fill="#132342"/>
            <path id="Pfad_648" data-name="Pfad 648" d="M-388.878-65.627l15.652,22.354v.136l-15.747-22.489Z" transform="translate(407.225 65.627)" fill="#132342"/>
            <path id="Pfad_649" data-name="Pfad 649" d="M-388.369-65.627l15.557,22.218v.136l-15.652-22.354Z" transform="translate(406.812 65.627)" fill="#132342"/>
            <path id="Pfad_650" data-name="Pfad 650" d="M-387.861-65.627-372.4-43.544v.136l-15.557-22.218Z" transform="translate(406.399 65.627)" fill="#132342"/>
            <path id="Pfad_651" data-name="Pfad 651" d="M-387.353-65.627l15.367,21.947v.136l-15.462-22.083Z" transform="translate(405.985 65.627)" fill="#132342"/>
            <path id="Pfad_652" data-name="Pfad 652" d="M-386.844-65.627l15.272,21.811v.136l-15.367-21.947Z" transform="translate(405.572 65.627)" fill="#132342"/>
            <path id="Pfad_653" data-name="Pfad 653" d="M-386.336-65.627l15.177,21.676v.136l-15.272-21.811Z" transform="translate(405.159 65.627)" fill="#132342"/>
            <path id="Pfad_654" data-name="Pfad 654" d="M-385.828-65.627l15.082,21.54v.136l-15.177-21.676Z" transform="translate(404.745 65.627)" fill="#132342"/>
            <path id="Pfad_655" data-name="Pfad 655" d="M-385.32-65.627l14.987,21.4v.136l-15.082-21.54Z" transform="translate(404.332 65.627)" fill="#132342"/>
            <path id="Pfad_656" data-name="Pfad 656" d="M-384.811-65.627l14.892,21.269v.136l-14.987-21.4Z" transform="translate(403.919 65.627)" fill="#132342"/>
            <path id="Pfad_657" data-name="Pfad 657" d="M-384.3-65.627l14.8,21.133v.136L-384.4-65.627Z" transform="translate(403.505 65.627)" fill="#132342"/>
            <path id="Pfad_658" data-name="Pfad 658" d="M-383.795-65.627l14.7,21v.136l-14.8-21.133Z" transform="translate(403.092 65.627)" fill="#132342"/>
            <path id="Pfad_659" data-name="Pfad 659" d="M-383.286-65.627l14.607,20.862v.136l-14.7-21Z" transform="translate(402.679 65.627)" fill="#132342"/>
            <path id="Pfad_660" data-name="Pfad 660" d="M-382.778-65.627-368.265-44.9v.136l-14.607-20.862Z" transform="translate(402.265 65.627)" fill="#132342"/>
            <path id="Pfad_661" data-name="Pfad 661" d="M-382.27-65.627l14.418,20.59v.136l-14.513-20.726Z" transform="translate(401.852 65.627)" fill="#132342"/>
            <path id="Pfad_662" data-name="Pfad 662" d="M-381.761-65.627l14.323,20.455v.136l-14.418-20.59Z" transform="translate(401.439 65.627)" fill="#132342"/>
            <path id="Pfad_663" data-name="Pfad 663" d="M-381.253-65.627l14.228,20.319v.136l-14.323-20.455Z" transform="translate(401.026 65.627)" fill="#132342"/>
            <path id="Pfad_664" data-name="Pfad 664" d="M-380.745-65.627l14.133,20.183v.136L-380.84-65.627Z" transform="translate(400.612 65.627)" fill="#132342"/>
            <path id="Pfad_665" data-name="Pfad 665" d="M-380.236-65.627-366.2-45.579v.136l-14.133-20.183Z" transform="translate(400.199 65.627)" fill="#132342"/>
            <path id="Pfad_666" data-name="Pfad 666" d="M-379.728-65.627l13.943,19.912v.136l-14.038-20.048Z" transform="translate(399.786 65.627)" fill="#132342"/>
            <path id="Pfad_667" data-name="Pfad 667" d="M-379.22-65.627l13.848,19.776v.136l-13.943-19.912Z" transform="translate(399.372 65.627)" fill="#132342"/>
            <path id="Pfad_668" data-name="Pfad 668" d="M-378.711-65.627l13.753,19.641v.136l-13.848-19.776Z" transform="translate(398.959 65.627)" fill="#132342"/>
            <path id="Pfad_669" data-name="Pfad 669" d="M-378.2-65.627l13.658,19.505v.136L-378.3-65.627Z" transform="translate(398.546 65.627)" fill="#132342"/>
            <path id="Pfad_670" data-name="Pfad 670" d="M-377.695-65.627l13.563,19.369v.136L-377.79-65.627Z" transform="translate(398.132 65.627)" fill="#132342"/>
            <path id="Pfad_671" data-name="Pfad 671" d="M-377.187-65.627l13.468,19.234v.136l-13.563-19.369Z" transform="translate(397.719 65.627)" fill="#132342"/>
            <path id="Pfad_672" data-name="Pfad 672" d="M-376.678-65.627l13.373,19.1v.136l-13.468-19.234Z" transform="translate(397.306 65.627)" fill="#132342"/>
            <path id="Pfad_673" data-name="Pfad 673" d="M-376.17-65.627l13.278,18.963v.136l-13.373-19.1Z" transform="translate(396.892 65.627)" fill="#132342"/>
            <path id="Pfad_674" data-name="Pfad 674" d="M-375.662-65.627-362.479-46.8v.136l-13.278-18.963Z" transform="translate(396.479 65.627)" fill="#132342"/>
            <path id="Pfad_675" data-name="Pfad 675" d="M-375.153-65.627l13.088,18.691v.136l-13.183-18.827Z" transform="translate(396.066 65.627)" fill="#132342"/>
            <path id="Pfad_676" data-name="Pfad 676" d="M-374.645-65.627l12.993,18.556v.136L-374.74-65.627Z" transform="translate(395.652 65.627)" fill="#132342"/>
            <path id="Pfad_677" data-name="Pfad 677" d="M-374.137-65.627l12.9,18.42v.136l-12.993-18.556Z" transform="translate(395.239 65.627)" fill="#132342"/>
            <path id="Pfad_678" data-name="Pfad 678" d="M-373.628-65.627l12.8,18.284v.136l-12.9-18.42Z" transform="translate(394.826 65.627)" fill="#132342"/>
            <path id="Pfad_679" data-name="Pfad 679" d="M-373.12-65.627l12.708,18.149v.136l-12.8-18.284Z" transform="translate(394.412 65.627)" fill="#132342"/>
            <path id="Pfad_680" data-name="Pfad 680" d="M-372.612-65.627-360-47.614v.136l-12.708-18.149Z" transform="translate(393.999 65.627)" fill="#132342"/>
            <path id="Pfad_681" data-name="Pfad 681" d="M-372.1-65.627l12.518,17.877v.136L-372.2-65.627Z" transform="translate(393.586 65.627)" fill="#132342"/>
            <path id="Pfad_682" data-name="Pfad 682" d="M-371.6-65.627l12.423,17.742v.136L-371.69-65.627Z" transform="translate(393.172 65.627)" fill="#132342"/>
            <path id="Pfad_683" data-name="Pfad 683" d="M-371.087-65.627l12.328,17.606v.136l-12.423-17.742Z" transform="translate(392.759 65.627)" fill="#132342"/>
            <path id="Pfad_684" data-name="Pfad 684" d="M-370.579-65.627l12.233,17.47v.136l-12.328-17.606Z" transform="translate(392.346 65.627)" fill="#132342"/>
            <path id="Pfad_685" data-name="Pfad 685" d="M-370.07-65.627l12.138,17.335v.136l-12.233-17.47Z" transform="translate(391.932 65.627)" fill="#132342"/>
            <path id="Pfad_686" data-name="Pfad 686" d="M-369.562-65.627l12.043,17.2v.136l-12.138-17.335Z" transform="translate(391.519 65.627)" fill="#132342"/>
            <path id="Pfad_687" data-name="Pfad 687" d="M-369.054-65.627l11.948,17.063v.136l-12.043-17.2Z" transform="translate(391.106 65.627)" fill="#132342"/>
            <path id="Pfad_688" data-name="Pfad 688" d="M-368.545-65.627-356.692-48.7v.136L-368.64-65.627Z" transform="translate(390.692 65.627)" fill="#132342"/>
            <path id="Pfad_689" data-name="Pfad 689" d="M-368.037-65.627l11.758,16.792v.136l-11.853-16.928Z" transform="translate(390.279 65.627)" fill="#132342"/>
            <path id="Pfad_690" data-name="Pfad 690" d="M-367.529-65.627l11.663,16.656v.136l-11.758-16.792Z" transform="translate(389.866 65.627)" fill="#132342"/>
            <path id="Pfad_691" data-name="Pfad 691" d="M-367.02-65.627l11.568,16.521v.136l-11.663-16.656Z" transform="translate(389.452 65.627)" fill="#132342"/>
            <path id="Pfad_692" data-name="Pfad 692" d="M-366.512-65.627l11.473,16.385v.136l-11.568-16.521Z" transform="translate(389.039 65.627)" fill="#132342"/>
            <path id="Pfad_693" data-name="Pfad 693" d="M-366-65.627l11.378,16.25v.136L-366.1-65.627Z" transform="translate(388.626 65.627)" fill="#132342"/>
            <path id="Pfad_694" data-name="Pfad 694" d="M-365.5-65.627l11.283,16.114v.136l-11.378-16.25Z" transform="translate(388.212 65.627)" fill="#132342"/>
            <path id="Pfad_695" data-name="Pfad 695" d="M-364.987-65.627-353.8-49.649v.136l-11.283-16.114Z" transform="translate(387.799 65.627)" fill="#132342"/>
            <path id="Pfad_696" data-name="Pfad 696" d="M-364.479-65.627l11.093,15.843v.136l-11.188-15.978Z" transform="translate(387.386 65.627)" fill="#132342"/>
            <path id="Pfad_697" data-name="Pfad 697" d="M-363.97-65.627l11,15.707v.136l-11.093-15.843Z" transform="translate(386.972 65.627)" fill="#132342"/>
            <path id="Pfad_698" data-name="Pfad 698" d="M-363.462-65.627l10.9,15.571v.136l-11-15.707Z" transform="translate(386.559 65.627)" fill="#132342"/>
            <path id="Pfad_699" data-name="Pfad 699" d="M-362.954-65.627l10.808,15.436v.136l-10.9-15.571Z" transform="translate(386.146 65.627)" fill="#132342"/>
            <path id="Pfad_700" data-name="Pfad 700" d="M-362.446-65.627l10.713,15.3v.136l-10.808-15.436Z" transform="translate(385.732 65.627)" fill="#132342"/>
            <path id="Pfad_701" data-name="Pfad 701" d="M-361.937-65.627l10.618,15.164v.136l-10.713-15.3Z" transform="translate(385.319 65.627)" fill="#132342"/>
            <path id="Pfad_702" data-name="Pfad 702" d="M-361.429-65.627-350.906-50.6v.136l-10.618-15.164Z" transform="translate(384.906 65.627)" fill="#132342"/>
            <path id="Pfad_703" data-name="Pfad 703" d="M-360.921-65.627l10.428,14.893v.136l-10.523-15.029Z" transform="translate(384.492 65.627)" fill="#132342"/>
            <path id="Pfad_704" data-name="Pfad 704" d="M-360.412-65.627l10.333,14.757v.136l-10.428-14.893Z" transform="translate(384.079 65.627)" fill="#132342"/>
            <path id="Pfad_705" data-name="Pfad 705" d="M-359.9-65.627l10.238,14.622v.136L-360-65.627Z" transform="translate(383.666 65.627)" fill="#132342"/>
            <path id="Pfad_706" data-name="Pfad 706" d="M-359.4-65.627l10.143,14.486v.136l-10.238-14.622Z" transform="translate(383.252 65.627)" fill="#132342"/>
            <path id="Pfad_707" data-name="Pfad 707" d="M-358.887-65.627l10.048,14.35v.136l-10.143-14.486Z" transform="translate(382.839 65.627)" fill="#132342"/>
            <path id="Pfad_708" data-name="Pfad 708" d="M-358.379-65.627l9.953,14.215v.136l-10.048-14.35Z" transform="translate(382.426 65.627)" fill="#132342"/>
            <path id="Pfad_709" data-name="Pfad 709" d="M-357.871-65.627l9.858,14.079v.136l-9.953-14.215Z" transform="translate(382.013 65.627)" fill="#132342"/>
            <path id="Pfad_710" data-name="Pfad 710" d="M-357.362-65.627l9.763,13.943v.136l-9.858-14.079Z" transform="translate(381.599 65.627)" fill="#132342"/>
            <path id="Pfad_711" data-name="Pfad 711" d="M-356.854-65.627l9.668,13.808v.136l-9.763-13.943Z" transform="translate(381.186 65.627)" fill="#132342"/>
            <path id="Pfad_712" data-name="Pfad 712" d="M-356.346-65.627l9.573,13.672v.136l-9.668-13.808Z" transform="translate(380.773 65.627)" fill="#132342"/>
            <path id="Pfad_713" data-name="Pfad 713" d="M-355.838-65.627l9.478,13.536v.136l-9.573-13.672Z" transform="translate(380.359 65.627)" fill="#132342"/>
            <path id="Pfad_714" data-name="Pfad 714" d="M-355.329-65.627l9.383,13.4v.136l-9.478-13.536Z" transform="translate(379.946 65.627)" fill="#132342"/>
            <path id="Pfad_715" data-name="Pfad 715" d="M-354.821-65.627l9.288,13.265v.136l-9.383-13.4Z" transform="translate(379.533 65.627)" fill="#132342"/>
            <path id="Pfad_716" data-name="Pfad 716" d="M-354.313-65.627l9.193,13.13v.136l-9.288-13.265Z" transform="translate(379.119 65.627)" fill="#132342"/>
            <path id="Pfad_717" data-name="Pfad 717" d="M-353.8-65.627l9.1,12.994v.136l-9.193-13.13Z" transform="translate(378.706 65.627)" fill="#132342"/>
            <path id="Pfad_718" data-name="Pfad 718" d="M-353.3-65.627l9,12.858v.136l-9.1-12.994Z" transform="translate(378.293 65.627)" fill="#132342"/>
            <path id="Pfad_719" data-name="Pfad 719" d="M-352.788-65.627l8.908,12.723v.136l-9-12.858Z" transform="translate(377.879 65.627)" fill="#132342"/>
            <path id="Pfad_720" data-name="Pfad 720" d="M-352.279-65.627l8.813,12.587v.136l-8.908-12.723Z" transform="translate(377.466 65.627)" fill="#132342"/>
            <path id="Pfad_721" data-name="Pfad 721" d="M-351.771-65.627l8.719,12.451v.136l-8.813-12.587Z" transform="translate(377.053 65.627)" fill="#132342"/>
            <path id="Pfad_722" data-name="Pfad 722" d="M-351.263-65.627l8.624,12.316v.136l-8.719-12.451Z" transform="translate(376.639 65.627)" fill="#132342"/>
            <path id="Pfad_723" data-name="Pfad 723" d="M-350.754-65.627l8.529,12.18v.136l-8.624-12.316Z" transform="translate(376.226 65.627)" fill="#132342"/>
            <path id="Pfad_724" data-name="Pfad 724" d="M-350.246-65.627l8.434,12.044v.136l-8.529-12.18Z" transform="translate(375.813 65.627)" fill="#132342"/>
            <path id="Pfad_725" data-name="Pfad 725" d="M-349.738-65.627l8.339,11.909v.136l-8.434-12.044Z" transform="translate(375.399 65.627)" fill="#132342"/>
            <path id="Pfad_726" data-name="Pfad 726" d="M-349.23-65.627l8.244,11.773v.136l-8.339-11.909Z" transform="translate(374.986 65.627)" fill="#132342"/>
            <path id="Pfad_727" data-name="Pfad 727" d="M-348.721-65.627l8.149,11.637v.136l-8.244-11.773Z" transform="translate(374.573 65.627)" fill="#132342"/>
            <path id="Pfad_728" data-name="Pfad 728" d="M-340.159-53.989l-8.149-11.637h8.149Z" transform="translate(374.159 65.627)" fill="#132342"/>
          </g>
        </g>
      </g>
    </g>
    <g id="anchor" transform="translate(-480.795 -62.112)">
      <g id="Gruppe_108" data-name="Gruppe 108">
        <path id="Pfad_729" data-name="Pfad 729" d="M-435.166-30.033a7.013,7.013,0,0,1-4.146,2.354,15.627,15.627,0,0,1,1.245.975,4.247,4.247,0,0,1-4.462.527c-.025-.017-.049-.036-.076-.053h0l-.007,0h0a1.21,1.21,0,0,0-.278-.115q-.209-.109-.411-.236a.447.447,0,0,0-.034-.041,1.271,1.271,0,0,0-.255-.215h0l-.007,0h0a1.2,1.2,0,0,0-.232-.108,7.176,7.176,0,0,1-.854-.782l1.255-4.573.165-.6a1.683,1.683,0,0,0,.2-.078l.107-.06a1,1,0,0,0,.146.055,1.173,1.173,0,0,0,.486.022h.011a1.418,1.418,0,0,0,.525-.216l.108-.085h.006a1.075,1.075,0,0,0,.718-.147h0l.007,0h0a1.013,1.013,0,0,0,.122-.087c.01-.007.021-.013.03-.021a1.3,1.3,0,0,0,.186-.2h0a1.265,1.265,0,0,0,.121-.183l.023-.052c.015-.034.028-.068.041-.1l.011,0a1.091,1.091,0,0,0,.509-.589h0l0-.007h0v0a1.146,1.146,0,0,0,.071-.334,1.432,1.432,0,0,0-.009-.275l-.029-.137,0,0a1.11,1.11,0,0,0,.191-.684h0s0-.005,0-.008a1.325,1.325,0,0,0-.179-.586l-.084-.119a.065.065,0,0,1,0-.008,1.114,1.114,0,0,0-.1-.7h0l0-.007h0a1.338,1.338,0,0,0-.378-.448l-.114-.074a1.13,1.13,0,0,0-.285-.607h0a1.392,1.392,0,0,0-.442-.317l-.118-.045a1.1,1.1,0,0,0-.123-.268l2.321.637a1.193,1.193,0,0,0,.8.722,1.2,1.2,0,0,0,1.477-.84,1.2,1.2,0,0,0-.842-1.475,1.2,1.2,0,0,0-1.054.215l-1.492-.41a1.535,1.535,0,0,0,.2-.063,1,1,0,0,0,.162-.092h0a1.073,1.073,0,0,0,.7-.062.949.949,0,0,0,.086-.041h0a1.879,1.879,0,0,0,.395-.3.88.88,0,0,0,.136-.18h0a1.036,1.036,0,0,0,.63-.588h0c.009-.02.017-.043.025-.065s.008-.018.01-.027,0-.01,0-.015l0,0h0v0h0a1.344,1.344,0,0,0,.055-.31,1.559,1.559,0,0,0-.009-.276.958.958,0,0,0-.058-.2,1.019,1.019,0,0,0,.061-.63c-.008-.04-.018-.082-.031-.125a.818.818,0,0,0-.035-.1h0a1.683,1.683,0,0,0-.3-.454.751.751,0,0,0-.16-.124,1.07,1.07,0,0,0-.413-.629,2.38,2.38,0,0,0-1.728-1.981,2.379,2.379,0,0,0-2.923,1.665,2.388,2.388,0,0,0-.071.382l.031,0a.72.72,0,0,1,.053-.067l.027-.029.035-.035c.012-.072.027-.144.047-.215a2.255,2.255,0,0,1,2.767-1.576,2.244,2.244,0,0,1,1.169.778,2.466,2.466,0,0,0-.7-.314,2.509,2.509,0,0,0-2.734,1.009l.022-.005c-.029.008-.057.014-.087.025s-.054.021-.082.034h0a1.984,1.984,0,0,0-.394.26.753.753,0,0,0-.118.133,1.066,1.066,0,0,0-.634.241.863.863,0,0,0-.073.062h0a1.818,1.818,0,0,0-.3.4h0c-.044-.016-.085-.03-.116-.038l-.072-.018-.139-.02,0-.007a1.023,1.023,0,0,0-.587-.4l-.084-.021a1.146,1.146,0,0,0-.414,0,1.113,1.113,0,0,0-.317.105l-.047.028-.077.052h-.005a1.5,1.5,0,0,0-.5-.053h0a1.468,1.468,0,0,0-.308.074l-.1.036-.019.007a1.049,1.049,0,0,0-.417-.275l-.006,0a1.437,1.437,0,0,0-.5-.075l-.273.021.162.164a1.05,1.05,0,0,1,.207.352c.032.078.06.16.088.24l.008.024c.022.059.044.12.069.18a1.166,1.166,0,0,0,.3.445.947.947,0,0,0,.369.193,1.245,1.245,0,0,0,.325.042.9.9,0,0,0,.1-.006h.005v0a1.445,1.445,0,0,0,.277-.059,1.55,1.55,0,0,0,.226-.091.616.616,0,0,0,.138-.1c.034.011.069.023.1.031a1.814,1.814,0,0,0,.274.055h.028l0,0h0v0h0l.055,0,.065,0c.04,0,.081,0,.106,0h.021c.017,0,.034,0,.051,0h.011l.043-.005a.951.951,0,0,0,.28.329,1.032,1.032,0,0,0,0,.174.753.753,0,0,0,.042.2,1.009,1.009,0,0,0-.115.59h0l-.123-.034-.074-.02a1.2,1.2,0,0,0-.8-.724,1.2,1.2,0,0,0-1.476.839,1.2,1.2,0,0,0,.84,1.476,1.2,1.2,0,0,0,1.054-.214l1.086.3.456.125h0a1.806,1.806,0,0,0,.15.1.738.738,0,0,0,.152.067,1.081,1.081,0,0,0,.33.514l.017.012v0l-.329,1.2-1.071,3.9-.057.209v0c-.052.02-.091.037-.1.044a.744.744,0,0,0-.144.089c-.013,0-.024-.01-.037-.013a1.091,1.091,0,0,0-.608.022h0a.8.8,0,0,0-.083.03h0a1.952,1.952,0,0,0-.414.247.733.733,0,0,0-.126.131,1.057,1.057,0,0,0-.655.249.86.86,0,0,0-.074.065h0a1.806,1.806,0,0,0-.3.41.753.753,0,0,0-.063.178,1.081,1.081,0,0,0-.484.5.879.879,0,0,0-.037.085l0,0h0a1.9,1.9,0,0,0-.1.47.71.71,0,0,0,.01.179l0,0c-.008.013-.018.025-.027.038a.488.488,0,0,0-.082.15l-.029.106a.822.822,0,0,0-.025.082,1.2,1.2,0,0,0-.031.388.8.8,0,0,0,.012.1.005.005,0,0,0,0,0h0v0h0a1.857,1.857,0,0,0,.161.469.847.847,0,0,0,.1.147,1.084,1.084,0,0,0,.1.673c.013.027.027.054.043.081a.008.008,0,0,1,0,0h0v0h0a1.966,1.966,0,0,0,.3.366.705.705,0,0,0,.142.1,1.079,1.079,0,0,0,.263.587h0l-.029-.039c-2.231.407-4.518-.285-5.47-2.667a15.664,15.664,0,0,1,1.567-.2,7,7,0,0,1-2.362-4.141,5.367,5.367,0,0,0-1.475,4.924,13.663,13.663,0,0,1,1.577-.443c.217,3.044,1.976,3.813,4.705,6.419.4.378,1.014,1,1.693,1.762.975-.311,1.823-.527,2.355-.65,1.314-.3,2.4-.467,3.336-.668,0,0,.232.14.289.17l.021.011a.646.646,0,0,0,.116.043l.007,0a1.046,1.046,0,0,0,.2.457h0c.011.014.024.029.036.043a.026.026,0,0,1,0,.005h0a2.854,2.854,0,0,0,.214.213l.03.028a.624.624,0,0,0,.1.068,1.015,1.015,0,0,0,.016.456c0,.016.011.034.016.051,0,0,0,0,0,0h0c.032.094.079.2.106.257.009.018.015.032.019.043a.62.62,0,0,0,.055.089,1.169,1.169,0,0,0-.159.258c-.008.02-.017.039-.023.058s0,.018-.006.027h0a1.25,1.25,0,0,0-.022.133.435.435,0,0,1-.008.06c0,.009,0,.02,0,.031a.609.609,0,0,0-.294-.01l-.012,0-.03.008h0v0c-.016,0-.031.007-.047.012l-.02.005c-.037.01-.081.023-.117.034-.09.028-.163.056-.187.066a.7.7,0,0,0-.133.075.982.982,0,0,0-.153-.058,1.128,1.128,0,0,0-.418-.03c-.024,0-.049.006-.075.011h0a2.5,2.5,0,0,0-.4.12.76.76,0,0,0-.166.1l-.079.063.092.043a2.559,2.559,0,0,1,.439.255c.069.061.136.128.2.194l.135.132a1.394,1.394,0,0,0,.588.363h0a1.168,1.168,0,0,0,.433.033,1.226,1.226,0,0,0,.446-.142h0a1.215,1.215,0,0,0,.2-.125l.046-.041c.032-.03.062-.061.092-.093h.018a1.041,1.041,0,0,0,.724-.563h0l.005-.009v0h0c.007-.015.012-.029.019-.043s.022-.048.031-.072a1.211,1.211,0,0,0,.052-.6l-.013-.054c-.009-.034-.018-.067-.029-.1a1.116,1.116,0,0,0,.094-.748v0a.035.035,0,0,1,0-.006c-.006-.03-.013-.059-.022-.087a1.4,1.4,0,0,0-.24-.454l-.1-.105s0-.005,0-.008a1.118,1.118,0,0,0-.2-.673h0l0-.006a1.344,1.344,0,0,0-.429-.388l-.006,0a5.147,5.147,0,0,0,2.537-2.044,13.675,13.675,0,0,1,1.13,1.187A5.369,5.369,0,0,0-435.166-30.033Zm-18.108-1a7.386,7.386,0,0,1-.281-2.411,7.843,7.843,0,0,0,1.51,2.22c-.294.036-.606.082-.938.14Zm10.05-2.022.007-.025.041.006Zm1.231-.159a.994.994,0,0,1-.1.019l-.019,0a.769.769,0,0,1-.393-.047l0,0h0a.69.69,0,0,0,.246.115l.029.005a.958.958,0,0,1-.108.025l-.031,0-.04,0a.454.454,0,0,1-.09-.02.7.7,0,0,1-.17-.083l0,0,0,0a.725.725,0,0,0,.11.115.944.944,0,0,1-.223-.033,1.006,1.006,0,0,1-.37-.2l.2-.719a1.977,1.977,0,0,1,.324.247l.139.125a2.618,2.618,0,0,0,.227.184,1.308,1.308,0,0,0,.237.135c-.025,0-.051.01-.076.012h0a.76.76,0,0,1-.24-.02h0a.763.763,0,0,0,.233.082.829.829,0,0,0,.2.007C-441.94-33.244-441.965-33.23-441.994-33.215Zm1.293-.607a.82.82,0,0,1-.537.221h0a.645.645,0,0,0,.3,0l.03-.009a.886.886,0,0,1-.105.075c-.014.008-.028.013-.042.021l-.034.012a.52.52,0,0,1-.1.018.668.668,0,0,1-.207-.019h0a.605.605,0,0,0,.148.071.885.885,0,0,1-.4.034.865.865,0,0,1-.11-.026l-.015,0a.878.878,0,0,1-.089-.034l-.021-.01c-.033-.016-.066-.033-.1-.053h0c-.037-.022-.075-.047-.114-.076s-.1-.076-.146-.115l-.217-.183a2,2,0,0,0-.281-.173.8.8,0,0,1,.095,0,.959.959,0,0,1,.207.049h0a1.066,1.066,0,0,0-.193-.11.969.969,0,0,0-.093-.033l.007,0a.541.541,0,0,1,.094-.016.617.617,0,0,1,.11,0,.518.518,0,0,1,.216.073l0,0,0,0a.584.584,0,0,0-.2-.133l-.011,0c.03-.01.06-.019.088-.026h.034a.365.365,0,0,1,.079.014.613.613,0,0,1,.158.075l0,0,0,0a.73.73,0,0,0-.116-.113.836.836,0,0,1,.3.027,1.934,1.934,0,0,1,.322.132l.119.057c.056.027.114.052.174.074a1.392,1.392,0,0,0,.291.08.983.983,0,0,0,.289,0,.847.847,0,0,1-.075.057.718.718,0,0,1-.25.1h0a.693.693,0,0,0,.269-.036.8.8,0,0,0,.194-.1C-440.665-33.873-440.682-33.848-440.7-33.822Zm.746-1.329c0,.01,0,.022,0,.033a.011.011,0,0,1,0,0,.856.856,0,0,1-.283.482l0,0,0,0a.681.681,0,0,0,.237-.184c.007-.008.012-.017.018-.025s0,.012,0,.018a1.017,1.017,0,0,1-.031.105c-.005.014-.013.026-.019.039s-.013.022-.02.032a.555.555,0,0,1-.071.08.679.679,0,0,1-.178.12h0l0,0a.608.608,0,0,0,.162-.039.9.9,0,0,1-.326.3.848.848,0,0,1-.51.08,1.692,1.692,0,0,1-.182-.038c-.085-.023-.167-.053-.261-.088s-.2-.058-.292-.085c.024-.007.048-.012.072-.017a1.114,1.114,0,0,1,.188-.013h0a1.516,1.516,0,0,0-.2-.048c-.028,0-.056-.007-.083-.009l.007-.007a.456.456,0,0,1,.041-.022l.024-.013a.49.49,0,0,1,.086-.026.5.5,0,0,1,.2,0h0a.718.718,0,0,0-.213-.059h-.008l.055-.048.022-.009a.3.3,0,0,1,.064-.011.744.744,0,0,1,.154.011h0a1.183,1.183,0,0,0-.142-.056.881.881,0,0,1,.253-.089c.054-.012.112-.022.172-.033.081-.015.167-.03.254-.051.06-.013.122-.03.182-.05a1.534,1.534,0,0,0,.276-.115,1.3,1.3,0,0,0,.229-.156.664.664,0,0,1-.024.077.746.746,0,0,1-.135.22h0l0,0a.742.742,0,0,0,.188-.185.828.828,0,0,0,.094-.175C-439.957-35.184-439.956-35.168-439.955-35.151Zm-.063-1.325a.714.714,0,0,1,.008.084.731.731,0,0,1-.04.25v0a.72.72,0,0,0,.1-.238.812.812,0,0,0,.019-.2c.013.026.026.053.038.083h0a.839.839,0,0,1-.073.539l0,0,0,0a.68.68,0,0,0,.144-.25c0-.009,0-.019.007-.028a.829.829,0,0,1,.015.12c0,.013,0,.024,0,.037a.358.358,0,0,1-.006.039.536.536,0,0,1-.032.095.7.7,0,0,1-.11.17l0,0,0,0a.665.665,0,0,0,.131-.1.913.913,0,0,1-.15.372,1.029,1.029,0,0,1-.382.316c-.055.028-.112.055-.168.079-.086.036-.175.065-.259.093-.041.014-.088.033-.137.053s-.1.039-.142.055h0c.014-.018.028-.036.044-.053a1.38,1.38,0,0,1,.139-.125h0l0,0c-.064.026-.127.054-.183.084l-.069.04a.1.1,0,0,1,0-.01.406.406,0,0,1,.027-.062.485.485,0,0,1,.05-.073.548.548,0,0,1,.158-.13h0l0,0a.738.738,0,0,0-.206.093l-.006.005c0-.026.009-.052.015-.076a.168.168,0,0,1,.012-.022.314.314,0,0,1,.046-.055.617.617,0,0,1,.137-.1h0l0,0a.75.75,0,0,0-.153.051,1.28,1.28,0,0,1,.463-.522l.057-.045c.049-.038.1-.078.145-.12a1.71,1.71,0,0,0,.209-.211A1.159,1.159,0,0,0-440.018-36.476Zm-.755-.456.039-.076c.029-.055.057-.112.084-.169a1.909,1.909,0,0,0,.108-.275,1.273,1.273,0,0,0,.053-.27.772.772,0,0,1,.036.071.753.753,0,0,1,.058.24v0a.752.752,0,0,0,0-.254.839.839,0,0,0-.056-.19c.019.016.04.035.064.058a.843.843,0,0,1,.139.513v0a.015.015,0,0,1,0,0,.69.69,0,0,0,.033-.282c0-.01,0-.019,0-.03a.924.924,0,0,1,.06.1c0,.01.008.019.012.028a.327.327,0,0,1,.011.044.479.479,0,0,1,.009.1.7.7,0,0,1-.031.2l0,0v0a.64.64,0,0,0,.081-.145.93.93,0,0,1,.014.4.993.993,0,0,1-.223.448c-.041.048-.083.093-.126.137s-.116.109-.172.161l-.033.03c-.062.062-.143.153-.21.229,0-.026.011-.052.018-.077l0-.01a1.066,1.066,0,0,1,.067-.161l0-.01h0v0a1.415,1.415,0,0,0-.134.161c-.016.025-.032.05-.046.075l0-.008a.419.419,0,0,1,0-.069.542.542,0,0,1,.016-.109.523.523,0,0,1,.1-.189l0,0,0,0a.647.647,0,0,0-.154.173.062.062,0,0,0,0,.008c-.007-.029-.012-.056-.016-.082a.2.2,0,0,1,0-.027.36.36,0,0,1,.021-.07.674.674,0,0,1,.087-.142l0,0,0,0a.853.853,0,0,0-.122.1A1.348,1.348,0,0,1-440.773-36.932Zm-.322.814h0c.016.092.045.2.063.263.007.024.012.043.015.057a.674.674,0,0,0,.045.109,1,1,0,0,0-.229.413c0,.015-.007.03-.011.046l0,0h0c-.017.078-.028.165-.036.227,0,.027-.005.047-.008.062a.6.6,0,0,0,0,.088.9.9,0,0,0-.341.15h0l-.033.027h0v0c-.051.043-.11.1-.156.142-.029.027-.052.049-.067.061a.738.738,0,0,0-.074.085l-.015-.005a.973.973,0,0,0-.414-.021l-.059.009c-.018,0-.039.01-.058.015h-.008v0a3.092,3.092,0,0,0-.356.13.562.562,0,0,0-.067.036v0l.027-.1.92-3.351.032-.118h0a2.723,2.723,0,0,0,.278.213l.019.013a.641.641,0,0,0,.1.054h.014a1.056,1.056,0,0,0,.123.447c.005.011.009.021.015.032s.019.031.03.047,0,0,0,0h0a2.848,2.848,0,0,0,.174.231l.031.038a.638.638,0,0,0,.084.08,1.01,1.01,0,0,0-.051.45h0c0,.016.005.034.008.051v0Zm-.1-2.7a.845.845,0,0,1,.243.439v0a.708.708,0,0,0-.034-.269c0-.009-.007-.017-.01-.026a.911.911,0,0,1,.078.077l.02.025a.359.359,0,0,1,.019.033.464.464,0,0,1,.031.087.707.707,0,0,1,.022.191v0s0,0,0,0a.724.724,0,0,0,.037-.154,1,1,0,0,1,.073.843c-.02.059-.041.118-.063.173l-.112.26c-.032.083-.067.2-.1.3a.787.787,0,0,1-.015-.079,1.075,1.075,0,0,1-.005-.2v0s0,0,0,0a1.335,1.335,0,0,0-.056.2c0,.03-.008.059-.011.088l-.006-.007a.493.493,0,0,1-.032-.069.554.554,0,0,1-.028-.1.533.533,0,0,1,.009-.218v0a.63.63,0,0,0-.07.226s0,.006,0,.009c-.018-.025-.034-.049-.049-.073a.239.239,0,0,1-.009-.026.353.353,0,0,1-.01-.076.646.646,0,0,1,.023-.171v0a.786.786,0,0,0-.072.145,1.307,1.307,0,0,1-.026-.789l.032-.184a2.713,2.713,0,0,0,.035-.289,1.5,1.5,0,0,0-.005-.27c.016.019.033.037.047.057a.768.768,0,0,1,.107.211v0a.775.775,0,0,0-.051-.238.847.847,0,0,0-.088-.164Zm-.27.293-.061.468a2.663,2.663,0,0,0,0,.324.768.768,0,0,1-.043-.078,1.013,1.013,0,0,1-.068-.2v0a1.162,1.162,0,0,0,.01.221c.005.032.012.063.02.094l-.006,0a.517.517,0,0,1-.062-.069.574.574,0,0,1-.057-.093.536.536,0,0,1-.056-.224s0,0,0,0v-.005a.6.6,0,0,0,0,.246l0,.01c-.025-.02-.048-.041-.07-.062a.26.26,0,0,1-.019-.029c0-.007-.006-.015-.009-.022l.329-1.2A1.151,1.151,0,0,1-441.461-38.521Zm3.606-1.453a.263.263,0,0,1,.205-.018.744.744,0,0,1,.4.337.737.737,0,0,1,.118.525.253.253,0,0,1-.105.163.261.261,0,0,1-.206.017.744.744,0,0,1-.4-.335C-438.012-39.559-438.017-39.874-437.856-39.974Zm-.5.3-.149.545-3.361-.923-.48-.132.054-.2.1-.349.078.021-.008,0c.02.008.036.018.056.026s.054.019.084.027h.006a1.613,1.613,0,0,0,.172.034Zm-3.853-1.354,0,0a.568.568,0,0,0,.048.165.954.954,0,0,1-.5-.727l-.074-.465a2.32,2.32,0,0,0-.056-.253c.017.013.035.025.051.039a.786.786,0,0,1,.14.163v0l0,0a.859.859,0,0,0-.093-.2.808.808,0,0,0-.1-.128l.054.013.015.005a.82.82,0,0,1,.3.321v0l0,0a.766.766,0,0,0-.088-.23l-.011-.016c.027.013.056.025.079.039l.021.014a.261.261,0,0,1,.024.024.439.439,0,0,1,.046.064.765.765,0,0,1,.069.158,0,0,0,0,1,0,0v0a.92.92,0,0,0-.01-.15,1.345,1.345,0,0,1,.38.665c.018.059.038.119.059.178a2.131,2.131,0,0,0,.109.27,1.2,1.2,0,0,0,.219.286.826.826,0,0,1-.107-.048.869.869,0,0,1-.193-.145v0l0,0a.835.835,0,0,0,.152.193.922.922,0,0,0,.091.073h0a.641.641,0,0,1-.12-.03.693.693,0,0,1-.12-.057.544.544,0,0,1-.188-.184l0,0,0,0a.539.539,0,0,0,.145.231l.011.009a1.083,1.083,0,0,1-.112-.028l-.038-.02a.489.489,0,0,1-.078-.061.587.587,0,0,1-.117-.165Zm-.93-.546,0,0a.555.555,0,0,0,.087.252l.007.009c-.037-.016-.07-.032-.1-.05a.355.355,0,0,1-.028-.024.466.466,0,0,1-.062-.073.606.606,0,0,1-.079-.181v0a.6.6,0,0,0,.012.17.986.986,0,0,1-.353-.791l-.006-.261c0-.071,0-.142,0-.211a2.226,2.226,0,0,0-.026-.26c.016.016.033.031.048.048a.791.791,0,0,1,.12.182.845.845,0,0,0-.069-.217.983.983,0,0,0-.048-.089l.036-.017a.814.814,0,0,1,.254.357.748.748,0,0,0-.06-.243c0-.008-.008-.015-.011-.023a.915.915,0,0,1,.078.056l.021.019a.254.254,0,0,1,.021.027.409.409,0,0,1,.039.072.752.752,0,0,1,.048.169.843.843,0,0,0,.011-.151.964.964,0,0,1,.134.2h0l.013.024a1.626,1.626,0,0,1,.131.509l.023.186a2.722,2.722,0,0,0,.047.286,1.525,1.525,0,0,0,.139.323.8.8,0,0,1-.088-.069.888.888,0,0,1-.15-.18v0l0,0a.9.9,0,0,0,.1.219.89.89,0,0,0,.067.089l-.007,0c-.009,0-.018-.01-.027-.014a.657.657,0,0,1-.173-.118.538.538,0,0,1-.138-.215S-443.138-41.578-443.138-41.577Zm-1.831-.215a.009.009,0,0,0,0,0,.516.516,0,0,0-.033.05l-.118-.033s0-.008,0-.013a.573.573,0,0,1,.08-.209l0,0,0,0a.5.5,0,0,0-.12.142.879.879,0,0,1,.1-.478l.023-.04h0a.886.886,0,0,1,.347-.317,1.829,1.829,0,0,1,.169-.078c.085-.033.175-.06.259-.084l.112-.03.124-.035c-.009.013-.017.027-.026.04a.84.84,0,0,1-.127.136h0l0,0a1.13,1.13,0,0,0,.175-.1.8.8,0,0,0,.1-.085c0,.019,0,.04-.007.061s-.021.038-.032.056a.729.729,0,0,1-.2.212h0l0,0a1,1,0,0,0,.192-.1l.011-.009a.557.557,0,0,1-.014.064c0,.006,0,.011-.007.017a.158.158,0,0,1-.016.021.34.34,0,0,1-.046.044,1.048,1.048,0,0,1-.124.084h0l0,0c.047-.011.092-.024.136-.038a1.141,1.141,0,0,1-.14.2c-.058.067-.123.135-.19.205l-.114.12a1.828,1.828,0,0,0-.124.144,1.589,1.589,0,0,0-.121.18l-.283-.078c.006-.017.008-.036.015-.053Zm.467.182c.055-.085.118-.167.16-.221l.078-.1.074-.092c0,.015,0,.031,0,.046v.006a.872.872,0,0,1-.021.168s0,.006,0,.01h0v0a1.267,1.267,0,0,0,.085-.181.87.87,0,0,0,.033-.121c0,.01.005.021.01.031s.016.027.023.041v0a.774.774,0,0,1-.032.326v0a1.082,1.082,0,0,0,.1-.2l0-.013c.009.021.02.041.026.062,0,.005,0,.011,0,.016a.26.26,0,0,1,0,.029.408.408,0,0,1-.011.066,1.041,1.041,0,0,1-.051.147v0a1.353,1.353,0,0,0,.088-.115,1.148,1.148,0,0,1,.005.241l-.576-.158Zm.543-.64,0,0a.924.924,0,0,0,.065.228,1.037,1.037,0,0,0,.051.1l0,0c-.009-.005-.018-.014-.027-.02a1.838,1.838,0,0,0-.1-.2l-.062-.1a1.119,1.119,0,0,0,.182-.293c0,.073,0,.15.008.229a2.064,2.064,0,0,0,.089.339.878.878,0,0,1-.077-.082.906.906,0,0,1-.119-.2Zm.192.485a.73.73,0,0,0,.1.02,1.073,1.073,0,0,0,.417.459l.062.037-.352-.1-.226-.062-.028-.008h0a1.231,1.231,0,0,0-.02-.366C-443.8-41.776-443.785-41.77-443.767-41.765Zm.586.521h0Zm-.281-1.933c.017-.012.033-.026.05-.039s.031-.023.047-.037a.971.971,0,0,0,.081-.081,2.412,2.412,0,0,0,.524.668l-.026.1-.031-.008-.1-.016a1.117,1.117,0,0,0-.337-.445h0l-.007-.006A.818.818,0,0,0-443.462-43.177Zm-1.886,11.055.18-.656.381-1.389.082-.3,1-3.64.3-1.1.38-1.384.081-.3.066-.241.07.02.052.013a.731.731,0,0,0,.168.017,1.66,1.66,0,0,0,.13.148l-.094.343-.065.236-.4,1.46-.245.893-.943,3.436-.111.4-.386,1.406-.056.2-1.144,4.166-.086-.026a1.14,1.14,0,0,0-.251-.474Zm3.672-12.913h0a.859.859,0,0,0-.218-.109,1.008,1.008,0,0,0-.112-.028h0a.592.592,0,0,1,.077-.015c.015,0,.028-.007.043-.009a.7.7,0,0,1,.132,0,.545.545,0,0,1,.249.084l0,0,0,0a.55.55,0,0,0-.23-.145l-.015,0a1.1,1.1,0,0,1,.112-.024h.044a.491.491,0,0,1,.1.02.589.589,0,0,1,.178.1l0,0,0,0a.57.57,0,0,0-.115-.127,1.008,1.008,0,0,1,.224.03.987.987,0,0,1,.543.419c.035.052.069.1.1.155l.144.252c.046.081.085.149.124.208-.018-.006-.035-.011-.052-.018a.839.839,0,0,1-.177-.1h0a.978.978,0,0,0,.148.155.887.887,0,0,0,.122.083l-.064.007a.819.819,0,0,1-.36-.184l0,0,0,0a.821.821,0,0,0,.156.177l.016.013a.829.829,0,0,1-.084-.008l-.02,0-.029-.013a.374.374,0,0,1-.063-.041.839.839,0,0,1-.118-.116v0l0,0a1.03,1.03,0,0,0,.067.134,1.485,1.485,0,0,1-.611-.442q-.064-.069-.131-.135a2.216,2.216,0,0,0-.216-.2,1.214,1.214,0,0,0-.319-.164h0a.784.784,0,0,1,.119,0,.869.869,0,0,1,.235.047Zm.6.869a1.127,1.127,0,0,0,.338.159,1.128,1.128,0,0,0,.132.027h.006a1.444,1.444,0,0,0,.417-.01l.084-.016a1.289,1.289,0,0,0,.1.129l0,.007a1.241,1.241,0,0,1-.1.165l-.024.033a1.37,1.37,0,0,1-.094.112l-.037.039a1.321,1.321,0,0,1-.319.235c-.035.018-.07.034-.106.049h0c-.036.015-.073.028-.11.04l-.006,0q-.054.017-.11.029l-.014,0c-.035.007-.07.013-.105.017l-.027,0c-.032,0-.063.006-.1.007h-.043c-.027,0-.054,0-.081,0l-.067-.008-.06-.007a1.307,1.307,0,0,1-.128-.028,1.263,1.263,0,0,1-.141-.048l-.008,0a1.372,1.372,0,0,1-.126-.06,1.31,1.31,0,0,1-.3-.224,1.328,1.328,0,0,1-.107-.121l-.012-.015a1.333,1.333,0,0,1-.119-.193,2.074,2.074,0,0,0,.167-.124l.073-.067c.024.008.047.018.072.024a1.116,1.116,0,0,0,.453.029,1.445,1.445,0,0,0,.42-.135Zm-.775,1.047-.254.925a1.155,1.155,0,0,0-.263-.217h0l-.006,0a1.086,1.086,0,0,0-.125-.062l.247-.9a.216.216,0,0,1,.013-.029A1.471,1.471,0,0,0-441.855-43.12Zm1.308,2.349h0a.812.812,0,0,0,.217.129.93.93,0,0,0,.116.036h0a.644.644,0,0,1-.13.015.717.717,0,0,1-.139-.012.544.544,0,0,1-.249-.112l0,0,0,0a.53.53,0,0,0,.223.171l.013.005a1.072,1.072,0,0,1-.12.011.342.342,0,0,1-.046-.007.494.494,0,0,1-.1-.032.587.587,0,0,1-.171-.122l0,0,0,0a.552.552,0,0,0,.1.145c-.036-.006-.071-.013-.1-.021a.86.86,0,0,1-.317-.161,1.1,1.1,0,0,1-.283-.389c-.026-.057-.05-.115-.073-.17l-.1-.264c-.034-.088-.066-.166-.1-.236.019.009.038.017.055.028a.8.8,0,0,1,.164.129v0l0,0a.9.9,0,0,0-.128-.178.86.86,0,0,0-.118-.1l.067,0a.808.808,0,0,1,.343.246v0l0,0a.789.789,0,0,0-.128-.2l-.016-.017c.029.007.057.014.084.023l.021.008a.221.221,0,0,1,.028.018.385.385,0,0,1,.056.051.831.831,0,0,1,.1.135v0l0,0a1.01,1.01,0,0,0-.043-.143,1.464,1.464,0,0,1,.5.5l.026.036c.035.051.073.1.111.151a1.83,1.83,0,0,0,.2.222,1.159,1.159,0,0,0,.313.187.83.83,0,0,1-.124-.006.841.841,0,0,1-.24-.068Zm1.65-.276a.619.619,0,0,1-.076.045c-.012.007-.021.014-.034.02a.69.69,0,0,1-.131.046.552.552,0,0,1-.274,0h0a.537.537,0,0,0,.275.064l.016,0a1.042,1.042,0,0,1-.108.061l-.044.013a.516.516,0,0,1-.1.012.592.592,0,0,1-.209-.04l0,0h0a.553.553,0,0,0,.156.09.876.876,0,0,1-.466.006l-.007,0a.987.987,0,0,1-.416-.253c-.045-.044-.088-.089-.129-.135s-.085-.1-.125-.15l-.061-.075c-.057-.071-.106-.13-.153-.181.019,0,.037.005.055.009a.805.805,0,0,1,.188.068h0a.966.966,0,0,0-.169-.127.825.825,0,0,0-.134-.062l.062-.018a.8.8,0,0,1,.377.119l0,0,0,0a.851.851,0,0,0-.178-.146l-.018-.01c.026,0,.053-.006.078-.007h.021l.031.007a.371.371,0,0,1,.065.029.888.888,0,0,1,.132.091l0,0,0,0a1.17,1.17,0,0,0-.087-.118.973.973,0,0,1,.2.05l0,0,.052.014.016.006a3.245,3.245,0,0,1,.36.193l.039.023c.053.032.108.063.164.092a1.787,1.787,0,0,0,.272.12,1.209,1.209,0,0,0,.362.042.784.784,0,0,1-.115.045.87.87,0,0,1-.246.036h0a.831.831,0,0,0,.25.028c.041,0,.079-.007.119-.014Zm.814-1.393v0a.807.807,0,0,1-.038.133.783.783,0,0,1-.143.237h0l0,0a.747.747,0,0,0,.2-.2.91.91,0,0,0,.066-.118,0,0,0,0,0,0,0,.671.671,0,0,1-.012.082c0,.022,0,.043-.01.065a.748.748,0,0,1-.058.151.575.575,0,0,1-.21.233h0l0,0a.542.542,0,0,0,.256-.185l.009-.012a1.139,1.139,0,0,1-.039.14c-.008.016-.017.033-.026.048a.619.619,0,0,1-.078.1.6.6,0,0,1-.206.132h0l0,0a.49.49,0,0,0,.192-.048l-.006.01a.846.846,0,0,1-.448.337.711.711,0,0,1-.268.027,1.354,1.354,0,0,1-.233-.061c-.059-.022-.117-.045-.172-.07-.073-.033-.145-.069-.214-.1l-.074-.037c-.069-.035-.129-.064-.186-.089.017,0,.033-.01.051-.013h.007a.829.829,0,0,1,.184-.014h.009a1.032,1.032,0,0,0-.206-.046.835.835,0,0,0-.143,0l.049-.041a.808.808,0,0,1,.389-.046h0a.86.86,0,0,0-.223-.059l-.02,0a.759.759,0,0,1,.069-.039l.018-.008.031-.006a.371.371,0,0,1,.072,0,.841.841,0,0,1,.16.028h0a1.051,1.051,0,0,0-.13-.071c.019-.006.039-.013.055-.016a1.007,1.007,0,0,1,.119,0v0l.023,0h.024A2.281,2.281,0,0,0-438.82-42a1.138,1.138,0,0,0,.187-.038,1.09,1.09,0,0,0,.283-.12A.978.978,0,0,0-438.083-42.44Zm-.607-.612c.038-.049.076-.1.11-.153a1.424,1.424,0,0,0,.143-.264,1.015,1.015,0,0,0,.051-.375.839.839,0,0,1,.047.127.8.8,0,0,1,.026.262v0a.757.757,0,0,0,.039-.261.85.85,0,0,0-.015-.13h0a.59.59,0,0,1,.037.06c.01.019.019.038.027.058l0,.008a.723.723,0,0,1,.043.145.552.552,0,0,1-.019.287v0s0,0,0,0a.526.526,0,0,0,.084-.28s0-.01,0-.015a1,1,0,0,1,.054.116.369.369,0,0,1,.01.051.51.51,0,0,1,0,.112.593.593,0,0,1-.062.212l0,0a.048.048,0,0,0,0,0,.533.533,0,0,0,.107-.15.89.89,0,0,1-.055.485l-.009.02a.86.86,0,0,1-.333.368,1.41,1.41,0,0,1-.164.087,1.588,1.588,0,0,1-.251.083,2.063,2.063,0,0,1-.226.04l.018-.024a1.018,1.018,0,0,1,.119-.115h0l0,0c-.061.026-.118.051-.166.077a.936.936,0,0,0-.088.051c0-.016,0-.033,0-.05a.761.761,0,0,1,.2-.212h0l0,0c-.07.027-.129.059-.182.085l-.011.006a.348.348,0,0,1,.009-.053l.006-.014.013-.017a.362.362,0,0,1,.042-.04l.022-.016.064-.046.031-.021h0l0,0c-.045.013-.089.028-.132.042a2.554,2.554,0,0,1,.3-.422Zm-.75.221h0l.007-.008a2.325,2.325,0,0,0,.162-.194h0a2.332,2.332,0,0,0,.377-.774,2.353,2.353,0,0,0,.083-.7c0,.014,0,.027,0,.041a.573.573,0,0,1,.028.11.022.022,0,0,0,0,0v0a.521.521,0,0,0,0-.185.887.887,0,0,1,.241.438v0l.006.034s0,.007,0,.012a.888.888,0,0,1-.062.455,1.813,1.813,0,0,1-.078.168c-.045.082-.095.161-.143.234l-.064.1c-.026.039-.05.074-.071.107,0-.016-.005-.031-.006-.047a.8.8,0,0,1,.007-.188v0a.024.024,0,0,1,0,0,1.14,1.14,0,0,0-.069.189.872.872,0,0,0-.022.131l-.034-.048a.755.755,0,0,1,0-.358v0a.951.951,0,0,0-.082.2c0,.006,0,.012,0,.018-.009-.017-.018-.035-.025-.052-.026.041-.053.08-.082.119a2.052,2.052,0,0,0,.148.227l.042.053a1.149,1.149,0,0,0-.175.329c0,.012,0,.025-.007.037a.9.9,0,0,0-.018.164c0,.024,0,.046,0,.075v.03a1.213,1.213,0,0,0-.149,0,.984.984,0,0,0-.164.052c-.028.011-.055.021-.084.035a1.492,1.492,0,0,0-.326.236l-.059.058a1.085,1.085,0,0,0-.466-.088,1.308,1.308,0,0,0-.306.053l0,0,.092-.337A2.4,2.4,0,0,0-439.44-42.831Zm-.618-.657.035-.039c.017-.02.034-.041.05-.061.033-.041.065-.083.1-.126l.018-.025c.034-.05.066-.1.1-.152a.853.853,0,0,1-.021.207h0c-.006.031-.013.064-.02.095v0c-.007.028-.014.056-.02.082l0,.011-.018.062,0,.012c-.006.02-.012.037-.017.049a1.313,1.313,0,0,1-.066.132.96.96,0,0,1-.549.455.748.748,0,0,0-.028-.34,1.547,1.547,0,0,0,.373-.283h0l.015-.015Zm-.09-1.685a.582.582,0,0,1,.133.131,1.3,1.3,0,0,1,.1.939,1.251,1.251,0,0,1-.043.131c0-.011.007-.023.012-.035s-.016-.016-.022-.024l-.029-.04a3.078,3.078,0,0,1-.23-.417c-.026-.056-.055-.113-.085-.168a2.038,2.038,0,0,0-.153-.25,1.181,1.181,0,0,0-.267-.245.8.8,0,0,1,.118.03.86.86,0,0,1,.217.111v0l0,0a.858.858,0,0,0-.184-.166.97.97,0,0,0-.1-.057h0a.622.622,0,0,1,.127.01.694.694,0,0,1,.13.036.555.555,0,0,1,.221.153l0,0,0,0a.545.545,0,0,0-.185-.206l-.013-.007a1.086,1.086,0,0,1,.118.01.373.373,0,0,1,.044.014A.475.475,0,0,1-440.148-45.174Zm-2.142.01a1.316,1.316,0,0,1,1.455-.556,1.3,1.3,0,0,1,.57.331c.011.01.019.022.03.033l-.057-.009h0a1.906,1.906,0,0,0-.48.021.722.722,0,0,0-.167.054.958.958,0,0,0-.222-.092,1.22,1.22,0,0,0-.424-.033c-.028,0-.057.007-.086.012h0a2.01,2.01,0,0,0-.443.149.729.729,0,0,0-.143.094l-.031-.006Zm-.968.388c.014-.008.031-.015.046-.022a.58.58,0,0,1,.065-.032.675.675,0,0,1,.128-.034.542.542,0,0,1,.263.018l0,0h.005a.541.541,0,0,0-.26-.081h-.015c.034-.019.069-.037.1-.052a.384.384,0,0,1,.043-.01.486.486,0,0,1,.1-.005.59.59,0,0,1,.2.049l0,0h0a.568.568,0,0,0-.146-.1.884.884,0,0,1,.436,0,1.177,1.177,0,0,1,.421.235c.048.041.095.082.139.123l.2.195c.069.064.131.121.193.169h-.061a.807.807,0,0,1-.2-.044h0a.9.9,0,0,0,.193.105.849.849,0,0,0,.15.042l-.061.027a.82.82,0,0,1-.416-.072l0,0h0a.8.8,0,0,0,.2.126l.022.008a.85.85,0,0,1-.087.016l-.022,0-.034,0a.428.428,0,0,1-.074-.022.814.814,0,0,1-.149-.079l0,0,0,0a.969.969,0,0,0,.1.112.97.97,0,0,1-.226-.034h0l0,0-.043-.009a2.023,2.023,0,0,1-.446-.222c-.052-.034-.106-.067-.16-.1a2.188,2.188,0,0,0-.258-.135.548.548,0,0,0-.09-.032,2.2,2.2,0,0,0-.264-.043.8.8,0,0,1,.116-.034.872.872,0,0,1,.241-.015h0a.855.855,0,0,0-.24-.048.964.964,0,0,0-.116,0Zm-1.122.781a.636.636,0,0,1,.091-.095.721.721,0,0,1,.115-.08.553.553,0,0,1,.263-.072h0a.535.535,0,0,0-.28.01l-.014,0a1.006,1.006,0,0,1,.085-.084.434.434,0,0,1,.04-.025.493.493,0,0,1,.1-.038.584.584,0,0,1,.208-.015h0a.55.55,0,0,0-.169-.046.847.847,0,0,1,.683-.095,1.562,1.562,0,0,1,.218.08c.057.027.112.055.166.083l.246.136a2.557,2.557,0,0,0,.234.113c-.021.006-.042.012-.064.016a.8.8,0,0,1-.208.009h0a.9.9,0,0,0,.212.053.861.861,0,0,0,.155,0l-.052.041a.812.812,0,0,1-.419.035h0a.791.791,0,0,0,.229.07l.023,0a.86.86,0,0,1-.079.037l-.022.008-.033,0a.4.4,0,0,1-.076,0,.812.812,0,0,1-.162-.039h0a1.03,1.03,0,0,0,.124.081.955.955,0,0,1-.22.023l0,0-.055,0a2.326,2.326,0,0,1-.452-.087l-.028-.007c-.057-.016-.115-.03-.174-.043a1.811,1.811,0,0,0-.293-.045,1.117,1.117,0,0,0-.36.056h0a.815.815,0,0,1,.1-.074.831.831,0,0,1,.229-.1h0a.8.8,0,0,0-.25.039.894.894,0,0,0-.112.047Zm-.363.078.062.015c.027.007.062.019.1.033a.581.581,0,0,0-.019.064c-.024.012-.047.028-.07.042a.728.728,0,0,0-.074-.153Zm-1.769.752a.715.715,0,0,1-.279.024.553.553,0,0,1-.27-.1.529.529,0,0,0,.246.162l.015,0a1.187,1.187,0,0,1-.134.018.406.406,0,0,1-.048,0,.534.534,0,0,1-.108-.03.574.574,0,0,1-.183-.121.517.517,0,0,0,.11.145,1.02,1.02,0,0,1-.12-.024.825.825,0,0,1-.321-.168,1.051,1.051,0,0,1-.271-.4c-.024-.058-.046-.117-.067-.173l-.008-.023c-.028-.082-.058-.167-.091-.247a1.763,1.763,0,0,0-.117-.238c.022.01.044.018.065.03a.788.788,0,0,1,.181.135.818.818,0,0,0-.143-.185.851.851,0,0,0-.139-.106l.078,0a.778.778,0,0,1,.374.261.615.615,0,0,0-.132-.209l-.017-.016a.873.873,0,0,1,.1.028l.021.009.027.019a.423.423,0,0,1,.055.054.788.788,0,0,1,.092.138.958.958,0,0,0-.038-.145.925.925,0,0,1,.179.133l0,0,.033.027a2.215,2.215,0,0,1,.217.278l.072.1c.036.052.074.1.114.15a1.414,1.414,0,0,0,.212.212,1.139,1.139,0,0,0,.333.163.848.848,0,0,1-.127,0,.829.829,0,0,1-.255-.052.79.79,0,0,0,.236.113.988.988,0,0,0,.121.025Zm.745-.291,0,0c.031.058.061.112.094.163.015.022.03.042.046.062h-.01a.346.346,0,0,1-.127-.052.532.532,0,0,1-.12-.124l0,0,0,0a1.132,1.132,0,0,0,.1.178l0,0h-.008l-.046,0-.016-.006a.264.264,0,0,1-.042-.03c-.029-.026-.063-.061-.1-.1l0,0,0,0,.07.127c-.045-.008-.1-.02-.176-.04a1.392,1.392,0,0,1-.535-.262c-.049-.04-.095-.081-.138-.124-.069-.07-.133-.145-.182-.2l-.061-.075c-.034-.042-.065-.08-.1-.114l.047.007a.846.846,0,0,1,.177.062h0a1.126,1.126,0,0,0-.16-.121.8.8,0,0,0-.121-.059l.005,0,.053-.017a.775.775,0,0,1,.344.1l0,0,0,0a1.105,1.105,0,0,0-.171-.136l-.016-.01c.024,0,.046-.008.069-.01h.019l.027.006a.368.368,0,0,1,.062.025,1.173,1.173,0,0,1,.137.08l0,0,0,0c-.03-.039-.062-.075-.1-.11a1.476,1.476,0,0,1,.21.028h0l.022,0c.031.007.062.013.1.022a1.022,1.022,0,0,1,.436.239,1.135,1.135,0,0,1,.121.14,1.585,1.585,0,0,1,.133.233l.138.258c-.019-.011-.038-.023-.055-.035a1.162,1.162,0,0,1-.127-.113Zm.664.2a.828.828,0,0,0-.036.091l0,.009h0v0h0a1.372,1.372,0,0,0-.048.22,1.056,1.056,0,0,1-.293-.514c-.016-.05-.033-.1-.052-.153a1.427,1.427,0,0,0-.075-.174,1,1,0,0,0-.178-.254.908.908,0,0,0-.245-.178.7.7,0,0,1,.108,0,.7.7,0,0,1,.279.085.652.652,0,0,0-.255-.145.83.83,0,0,0-.241-.033c.028-.012.062-.024.1-.035a.811.811,0,0,1,.617.182.614.614,0,0,0-.249-.209l-.033-.014a.92.92,0,0,1,.148.016c.02,0,.036.011.055.016l.034.014a.556.556,0,0,1,.1.061.636.636,0,0,1,.145.162.561.561,0,0,0-.062-.158.847.847,0,0,1,.325.273.929.929,0,0,1,.142.344A1.146,1.146,0,0,0-445.1-43.26Zm.091.444a.91.91,0,0,0-.073.109h0a.662.662,0,0,1,.03-.142.694.694,0,0,1,.061-.138.557.557,0,0,1,.2-.208h0l0,0a.526.526,0,0,0-.248.161l-.01.012c.008-.035.017-.07.027-.1,0-.007.006-.014.008-.022a.452.452,0,0,1,.025-.046.513.513,0,0,1,.071-.087.585.585,0,0,1,.186-.12h0l0,0a.525.525,0,0,0-.179.044.86.86,0,0,1,.364-.331.8.8,0,0,1,.13-.047l.009,0a.842.842,0,0,1,.115-.021l.024,0c.034,0,.067-.006.1-.006h.011c.034,0,.067,0,.1,0,.062,0,.124.012.184.022s.139.025.207.039l.077.015c.088.017.166.032.238.041l-.048.028a.829.829,0,0,1-.189.068h0a.947.947,0,0,0,.212-.011.8.8,0,0,0,.143-.039l-.038.054a.785.785,0,0,1-.367.149h0a.821.821,0,0,0,.23,0l.02,0c-.018.02-.037.04-.057.057l-.016.012-.028.014a.384.384,0,0,1-.068.019.867.867,0,0,1-.158.013h0a1.144,1.144,0,0,0,.141.036.972.972,0,0,1-.246.108c-.093.027-.192.045-.3.065l-.142.027a1.814,1.814,0,0,0-.184.044,1.367,1.367,0,0,0-.281.109,1.007,1.007,0,0,0-.282.253h0a.784.784,0,0,1,.046-.126.8.8,0,0,1,.15-.217h0l0,0A.782.782,0,0,0-445.012-42.816Zm-1.377.784a.82.82,0,0,1-.334.309.743.743,0,0,1-.518.082.262.262,0,0,1-.169-.12.254.254,0,0,1-.007-.193.732.732,0,0,1,.369-.391.745.745,0,0,1,.52-.084.261.261,0,0,1,.167.121A.3.3,0,0,1-446.388-42.032Zm1.568,1.165-.228-.063-1.155-.317.149-.545.755.207.066.018,1.9.52.115.032-.028.1-.122.443Zm1.19,1.3a.61.61,0,0,1-.045-.189v0a.634.634,0,0,0-.017.169.9.9,0,0,1-.2-.376l.363.1-.084.306A.054.054,0,0,1-443.63-39.564Zm-2.745,5.966a.627.627,0,0,1,.115-.051.664.664,0,0,1,.132-.029.543.543,0,0,1,.263.03h0a.538.538,0,0,0-.257-.094h-.014a1.1,1.1,0,0,1,.105-.046l.044-.008a.481.481,0,0,1,.1,0,.584.584,0,0,1,.194.059l0,0,0,0a.555.555,0,0,0-.14-.1.89.89,0,0,1,.389.014.893.893,0,0,1,.226.1l-.194.706c-.076-.044-.148-.092-.214-.138-.051-.036-.1-.072-.155-.106a2.041,2.041,0,0,0-.252-.147.585.585,0,0,0-.123-.047s-.115-.025-.234-.041h0a.8.8,0,0,1,.118-.03.844.844,0,0,1,.243,0h0a.841.841,0,0,0-.24-.059.984.984,0,0,0-.118,0Zm-1.151.794a.708.708,0,0,1,.2-.182.551.551,0,0,1,.266-.079h0a.536.536,0,0,0-.284.017l-.015.007a1.013,1.013,0,0,1,.087-.09.326.326,0,0,1,.04-.026.507.507,0,0,1,.1-.041.584.584,0,0,1,.213-.018h0a.544.544,0,0,0-.175-.044.879.879,0,0,1,.452-.131.868.868,0,0,1,.227.032,1.3,1.3,0,0,1,.24.1c.056.029.11.059.162.09l.239.149c.08.049.153.092.223.126-.02,0-.04.009-.06.011a.811.811,0,0,1-.207,0h0a.9.9,0,0,0,.209.064.821.821,0,0,0,.141.009l0,.014-.037.025a.8.8,0,0,1-.417.013h0a.781.781,0,0,0,.222.082l.023,0a.837.837,0,0,1-.08.033l-.021.006-.033,0a.356.356,0,0,1-.074-.007.8.8,0,0,1-.157-.047l0,0h0a1,1,0,0,0,.121.087,1.458,1.458,0,0,1-.645-.07l-.1-.026c-.055-.015-.112-.029-.169-.04a1.678,1.678,0,0,0-.294-.039,1.123,1.123,0,0,0-.362.066.872.872,0,0,1,.1-.078.849.849,0,0,1,.229-.107h0a.8.8,0,0,0-.251.046.945.945,0,0,0-.112.051Zm-.709,1.188a.633.633,0,0,1,.042-.119.717.717,0,0,1,.069-.117.555.555,0,0,1,.206-.176h0l0,0a.54.54,0,0,0-.248.127l-.01.011a1.052,1.052,0,0,1,.04-.112.382.382,0,0,1,.025-.039.549.549,0,0,1,.071-.076.6.6,0,0,1,.183-.1h0l0,0a.562.562,0,0,0-.176.033.9.9,0,0,1,.352-.312h0l.013-.006a1,1,0,0,1,.463-.077c.062,0,.125.01.185.017.093.013.185.031.273.048l.051.01c.072.014.135.025.194.034-.015.01-.031.02-.047.028a.861.861,0,0,1-.185.067h0a1.032,1.032,0,0,0,.209-.01.838.838,0,0,0,.138-.036l-.035.052a.79.79,0,0,1-.356.148h0a.88.88,0,0,0,.226,0l.02,0c-.017.019-.035.038-.053.055l-.015.012-.028.014a.418.418,0,0,1-.067.02.939.939,0,0,1-.158.017h0a1.212,1.212,0,0,0,.142.033,1.73,1.73,0,0,1-.643.21l-.047.009c-.061.01-.123.024-.185.038a1.966,1.966,0,0,0-.281.083,1.291,1.291,0,0,0-.3.194.751.751,0,0,1,.058-.1.86.86,0,0,1,.163-.183h0l0,0a.848.848,0,0,0-.208.136.982.982,0,0,0-.081.085A.007.007,0,0,0-448.234-31.616Zm.023,1.477a.741.741,0,0,1-.006-.122.831.831,0,0,1,.043-.245v0a.809.809,0,0,0-.106.229.885.885,0,0,0-.024.118v0c0-.008,0-.017-.005-.025a.65.65,0,0,1-.022-.1.687.687,0,0,1,0-.138.555.555,0,0,1,.085-.26l0,0,0,0a.537.537,0,0,0-.147.24l0,.014a.973.973,0,0,1-.023-.118.3.3,0,0,1,0-.047.574.574,0,0,1,.022-.1.6.6,0,0,1,.1-.184l0,0,0,0a.524.524,0,0,0-.134.119,1.035,1.035,0,0,1,.028-.19.716.716,0,0,1,.023-.075l.03-.109a.37.37,0,0,1,.063-.111.325.325,0,0,0,.023-.034,1.086,1.086,0,0,1,.413-.25c.059-.021.119-.04.176-.057l.289-.075c.086-.022.16-.041.225-.062-.01.016-.02.031-.031.046a.857.857,0,0,1-.142.144h0l0,0a1,1,0,0,0,.187-.1.78.78,0,0,0,.112-.095c0,.021-.006.041-.01.064a.813.813,0,0,1-.27.3h0l0,0a.838.838,0,0,0,.21-.1l.017-.012a.717.717,0,0,1-.028.077c0,.007-.007.013-.01.02a.258.258,0,0,1-.02.025.447.447,0,0,1-.055.049.835.835,0,0,1-.143.085h0l0,0a.974.974,0,0,0,.145-.03c-.014.022-.028.044-.044.066a.673.673,0,0,1-.1.108l-.026,0-.029.009a.418.418,0,0,0-.048.017l-.274.248c-.047.041-.093.083-.139.127a1.849,1.849,0,0,0-.2.217A1.156,1.156,0,0,0-448.211-30.139Zm.739.425c-.028.055-.056.112-.082.169a2.027,2.027,0,0,0-.109.272,1.262,1.262,0,0,0-.039.356.808.808,0,0,1-.044-.108.876.876,0,0,1-.04-.238.007.007,0,0,0,0,0,.016.016,0,0,1,0,0,.878.878,0,0,0-.023.245.9.9,0,0,0,.014.115l0,0c-.008-.01-.014-.023-.022-.034a.665.665,0,0,1-.044-.07.641.641,0,0,1-.047-.125.545.545,0,0,1-.01-.266v0a.022.022,0,0,1,0,0,.544.544,0,0,0-.054.27s0,.01,0,.014a1.071,1.071,0,0,1-.062-.1.362.362,0,0,1-.015-.044.518.518,0,0,1-.015-.1.61.61,0,0,1,.029-.2l0,0v0a.567.567,0,0,0-.081.156.911.911,0,0,1,.179-.891c.038-.049.081-.1.12-.141.064-.069.13-.135.2-.2l.034-.035c.053-.053.1-.1.14-.146,0,.019,0,.037,0,.056a.782.782,0,0,1-.048.193h0v0a1,1,0,0,0,.108-.182.791.791,0,0,0,.048-.138l.024.059a.8.8,0,0,1-.078.387l0,0,0,0a.868.868,0,0,0,.127-.193l.008-.018c.006.026.012.052.015.078,0,.008,0,.014,0,.022a.256.256,0,0,1,0,.029.472.472,0,0,1-.022.069.926.926,0,0,1-.077.142l0,0,0,0a1.183,1.183,0,0,0,.108-.1A1.664,1.664,0,0,1-447.472-29.714Zm.347-.875h0s0,0,0-.006a1.513,1.513,0,0,0-.122-.387l-.01-.021a.75.75,0,0,0,.118-.127,1.156,1.156,0,0,0,.137-.236,1.451,1.451,0,0,0,.1-.4l0-.083a1.107,1.107,0,0,0,.407-.236,1.567,1.567,0,0,0,.244-.311l.039-.074a1.077,1.077,0,0,0,.5-.057,1.162,1.162,0,0,0,.2-.1l-.116.424-.854,3.109c-.039-.026-.079-.052-.124-.077l-.088-.034a1.145,1.145,0,0,0-.133-.507h0l0-.007a1.489,1.489,0,0,0-.265-.334l-.067-.055a1.11,1.11,0,0,0,.042-.483h0Zm-.29,2.313a.947.947,0,0,1-.081-.882c.02-.059.042-.117.065-.173l.111-.258c.037-.087.069-.164.094-.235.006.018.013.036.018.055a.809.809,0,0,1,.027.2v0a.017.017,0,0,0,0,0,.958.958,0,0,0,.033-.214.9.9,0,0,0-.009-.15l.045.048a.817.817,0,0,1,.072.4v0a.013.013,0,0,1,0,0,.82.82,0,0,0,.047-.233c0-.007,0-.014,0-.021a.8.8,0,0,1,.044.072l.01.021a.22.22,0,0,1,.007.031.41.41,0,0,1,.005.075.846.846,0,0,1-.022.166v0a.942.942,0,0,0,.068-.132,1.452,1.452,0,0,1,0,.758l-.035.183a2.621,2.621,0,0,0-.04.288,2.013,2.013,0,0,0,.038.351.857.857,0,0,1-.064-.093.9.9,0,0,1-.09-.218.007.007,0,0,1,0,0v0a.91.91,0,0,0,.03.238,1.015,1.015,0,0,0,.037.105l0,0c-.012-.01-.023-.023-.035-.035a.582.582,0,0,1-.047-.047.683.683,0,0,1-.072-.106.547.547,0,0,1-.069-.249s0,0,0,0a.019.019,0,0,0,0,0,.554.554,0,0,0,.009.268s0,.008,0,.013a1.115,1.115,0,0,1-.082-.077c-.008-.011-.016-.023-.022-.035a.472.472,0,0,1-.038-.09.594.594,0,0,1-.021-.2v0s0,0,0,0A.594.594,0,0,0-447.415-28.276Zm-2.734.378a6.254,6.254,0,0,0,2.961.036s0,0,0,0a2.111,2.111,0,0,0,.189.128.714.714,0,0,0,.151.064,1.073,1.073,0,0,0,.348.514c.02.017.041.033.064.05l0,0h0l.034.024a4.746,4.746,0,0,1-2.68-.087,5.848,5.848,0,0,1-.973-.359,6.73,6.73,0,0,1-2-1.418A4.505,4.505,0,0,0-450.149-27.9Zm2.784,4.816c-.584-.634-1.072-1.113-1.336-1.365-.588-.562-1.137-1.044-1.622-1.469a8.191,8.191,0,0,1-2.675-3.2,17.416,17.416,0,0,0,4.094,3.705c.734.532,1.738,1.258,1.763,1.511Zm1.192-4.282,0,0a.932.932,0,0,0,.062.229.985.985,0,0,0,.049.1l0,0-.021-.016a.6.6,0,0,1-.069-.052.648.648,0,0,1-.084-.092.537.537,0,0,1-.1-.231s0,0,0,0a.037.037,0,0,0,0,0,.558.558,0,0,0,.047.26s0,.007.006.012c-.032-.02-.062-.04-.09-.061a.378.378,0,0,1-.027-.03.469.469,0,0,1-.049-.08.6.6,0,0,1-.051-.189v0a.6.6,0,0,0-.012.172.973.973,0,0,1-.237-.837l.068-.465a2.463,2.463,0,0,0,.025-.256c.012.017.025.033.035.051a.811.811,0,0,1,.083.2v0a.9.9,0,0,0-.026-.221.848.848,0,0,0-.055-.149l.058.035a.828.828,0,0,1,.186.392v0a.794.794,0,0,0-.016-.244c0-.008,0-.016-.007-.024a.783.783,0,0,1,.064.065c.006.006.01.013.015.019a.232.232,0,0,1,.016.031.383.383,0,0,1,.025.075.78.78,0,0,1,.02.171v0a.865.865,0,0,0,.035-.146,1,1,0,0,1,.1.21h0l.012.033a1.671,1.671,0,0,1,.055.516l0,.187c0,.081,0,.186,0,.29a2.1,2.1,0,0,0,.082.337.82.82,0,0,1-.073-.08.916.916,0,0,1-.117-.2Zm.972.732,0,0a.928.928,0,0,0,.079.22,1.053,1.053,0,0,0,.055.091l-.006,0a.582.582,0,0,1-.092-.057.643.643,0,0,1-.09-.083.539.539,0,0,1-.121-.217.026.026,0,0,1,0,0,.016.016,0,0,0,0,0,.569.569,0,0,0,.069.252l.008.011c-.033-.016-.064-.034-.094-.052a.279.279,0,0,1-.028-.026.483.483,0,0,1-.056-.074.6.6,0,0,1-.068-.181.009.009,0,0,0,0,0v0a.6.6,0,0,0,0,.169,1,1,0,0,1-.327-.794l0-.267c0-.069,0-.138,0-.2a2.073,2.073,0,0,0-.02-.26c.015.016.032.03.046.047a.8.8,0,0,1,.116.183v0l0,0a.877.877,0,0,0-.065-.218.862.862,0,0,0-.084-.143l.066.028a.829.829,0,0,1,.254.367s0,0,0,0v0a.761.761,0,0,0-.056-.243l-.01-.021c.026.017.052.035.076.055l.019.018a.319.319,0,0,1,.021.028.388.388,0,0,1,.038.073.761.761,0,0,1,.046.169v0a.814.814,0,0,0,.012-.151.983.983,0,0,1,.132.2h0l.013.024a1.515,1.515,0,0,1,.122.517l.015.186c.007.094.016.193.031.287a2.271,2.271,0,0,0,.108.327.829.829,0,0,1-.077-.073.922.922,0,0,1-.132-.186Zm1,.653,0,0a1.05,1.05,0,0,0,.079.214c.016.03.033.059.05.087l-.006,0a.536.536,0,0,1-.075-.045.621.621,0,0,1-.1-.083.537.537,0,0,1-.123-.208v0l0,0a.574.574,0,0,0,.073.245l.007.01c-.032-.014-.062-.029-.091-.045a.252.252,0,0,1-.028-.024.448.448,0,0,1-.056-.069.615.615,0,0,1-.074-.175v0a.629.629,0,0,0,.011.168,1.04,1.04,0,0,1-.37-.761l-.022-.221c-.007-.083-.015-.168-.026-.249A2,2,0,0,0-445-27.4c.017.014.035.027.051.042a.792.792,0,0,1,.137.173v0l0,0a.839.839,0,0,0-.089-.212.855.855,0,0,0-.1-.135l.069.021a.831.831,0,0,1,.3.347v0l0,0a.75.75,0,0,0-.082-.24l-.013-.021a.893.893,0,0,1,.082.049l.022.018.023.025a.461.461,0,0,1,.045.07.748.748,0,0,1,.063.166.005.005,0,0,1,0,0v0a.815.815,0,0,0,0-.152.994.994,0,0,1,.152.189h0l0,.007a1.407,1.407,0,0,1,.17.529l.024.186c.011.094.023.191.04.284a2.061,2.061,0,0,0,.1.317c-.024-.02-.047-.042-.07-.066a.973.973,0,0,1-.13-.178Zm1.016.633,0,0a1,1,0,0,0,.089.212.948.948,0,0,0,.057.086l-.007,0a.561.561,0,0,1-.09-.05.625.625,0,0,1-.091-.075.542.542,0,0,1-.132-.2v0l0,0a.572.572,0,0,0,.083.243l.007.01c-.032-.013-.063-.027-.092-.041a.314.314,0,0,1-.03-.024.473.473,0,0,1-.059-.068.62.62,0,0,1-.081-.173s0,0,0,0v0a.616.616,0,0,0,.018.169.933.933,0,0,1-.268-.307v0l-.018-.032a1.092,1.092,0,0,1-.094-.353l-.033-.254c-.011-.094-.023-.192-.041-.284a1.863,1.863,0,0,0-.065-.256c.018.013.037.026.055.041a.79.79,0,0,1,.149.17h0l0,0a.8.8,0,0,0-.1-.211.836.836,0,0,0-.112-.131l.061.014.011,0a.845.845,0,0,1,.323.343v0l0,0a.746.746,0,0,0-.1-.242l-.011-.017a.965.965,0,0,1,.086.045l.023.017a.3.3,0,0,1,.025.026.459.459,0,0,1,.051.071.753.753,0,0,1,.073.172.007.007,0,0,0,0,0v0a.746.746,0,0,0-.008-.156c.024.022.048.043.07.067a.433.433,0,0,1,.06.081l.009.015.016.029h0l.028.044.017.031a1.675,1.675,0,0,1,.136.452l.03.184c.015.094.03.191.05.283a1.738,1.738,0,0,0,.121.316.843.843,0,0,1-.077-.066.943.943,0,0,1-.139-.174Zm.993.612,0,0a1.044,1.044,0,0,0,.071.215c.014.03.03.058.047.087l-.009,0a.59.59,0,0,1-.08-.052.574.574,0,0,1-.083-.078.535.535,0,0,1-.115-.207.025.025,0,0,1,0,0,.023.023,0,0,1,0,0,.579.579,0,0,0,.064.243l.006.01c-.036-.017-.064-.032-.088-.045l-.026-.023a.431.431,0,0,1-.052-.068.618.618,0,0,1-.069-.172s0,0,0,0v0a.659.659,0,0,0,.008.166.91.91,0,0,1-.239-.3h0l-.009-.017a1.627,1.627,0,0,1-.123-.427l-.03-.185c-.015-.093-.03-.191-.05-.283a1.847,1.847,0,0,0-.072-.253c.019.013.038.024.055.038a.789.789,0,0,1,.154.164v0l0,0a.82.82,0,0,0-.108-.207.841.841,0,0,0-.115-.127l.073.016.024.016a.82.82,0,0,1,.307.314v0l0,0a.732.732,0,0,0-.1-.237l-.014-.018a.941.941,0,0,1,.088.043l.024.016a.244.244,0,0,1,.026.024.427.427,0,0,1,.052.069.738.738,0,0,1,.077.166.006.006,0,0,0,0,0v0a.763.763,0,0,0-.013-.154.972.972,0,0,1,.171.187h0l.007.01a1.253,1.253,0,0,1,.184.529l.028.229c.008.08.017.162.029.241a2.019,2.019,0,0,0,.093.319.8.8,0,0,1-.068-.068.985.985,0,0,1-.123-.179Zm1,.875a1.029,1.029,0,0,1-.092-.191v0a1.111,1.111,0,0,0,.036.218c.009.031.02.061.032.091l-.007,0a.533.533,0,0,1-.07-.061.559.559,0,0,1-.067-.086.53.53,0,0,1-.082-.215.012.012,0,0,0,0,0v0a.6.6,0,0,0,.027.245s0,.007,0,.01c-.027-.017-.053-.035-.077-.053a.231.231,0,0,1-.022-.026.444.444,0,0,1-.041-.072.635.635,0,0,1-.045-.175v0s0,0,0,0a.683.683,0,0,0-.013.164,1.155,1.155,0,0,1-.286-.763l-.018-.186c-.009-.092-.019-.191-.036-.287a1.635,1.635,0,0,0-.067-.259c.02.014.039.027.058.043a.782.782,0,0,1,.151.175v0l0,0a.785.785,0,0,0-.1-.215.821.821,0,0,0-.118-.135l.045.011.03.009a.84.84,0,0,1,.33.356v0l0,0a.709.709,0,0,0-.1-.247c0-.008-.011-.015-.016-.023a.984.984,0,0,1,.092.054l.025.019.024.026a.455.455,0,0,1,.05.074.731.731,0,0,1,.068.174.009.009,0,0,1,0,0v0a.7.7,0,0,0,0-.156,1.061,1.061,0,0,1,.3.766l0,.473a2.652,2.652,0,0,0,.04.322A.825.825,0,0,1-441.187-23.859Zm.686.82a1.089,1.089,0,0,1-.035-.2v0a1.339,1.339,0,0,0-.025.212c0,.031,0,.061,0,.09l-.006-.005a.448.448,0,0,1-.047-.071.632.632,0,0,1-.039-.093.535.535,0,0,1-.022-.219.018.018,0,0,0,0,0s0,0,0,0a.635.635,0,0,0-.037.235s0,.006,0,.01c-.022-.022-.041-.044-.059-.066a.219.219,0,0,1-.013-.026.423.423,0,0,1-.021-.075.644.644,0,0,1,0-.174v0a.04.04,0,0,0,0,0,.749.749,0,0,0-.051.154,1.274,1.274,0,0,1-.128-.783l.01-.187c0-.087.007-.19,0-.292a1.467,1.467,0,0,0-.039-.267.731.731,0,0,1,.054.051.755.755,0,0,1,.132.2,0,0,0,0,1,0,0v0a.767.767,0,0,0-.079-.23.831.831,0,0,0-.108-.153l.074.03a.84.84,0,0,1,.295.407v0a.7.7,0,0,0-.066-.263c0-.008-.009-.016-.013-.025a.972.972,0,0,1,.086.067c.008.007.015.015.023.023a.359.359,0,0,1,.023.031.478.478,0,0,1,.042.082.719.719,0,0,1,.045.186v0a.016.016,0,0,1,0,0,.72.72,0,0,0,.019-.158,1,1,0,0,1,.176.826c-.011.062-.025.122-.039.181l-.075.274c-.019.086-.038.208-.053.308A.727.727,0,0,1-440.5-23.039Zm-.8-2.3a1.2,1.2,0,0,0-.221-.206,4.438,4.438,0,0,0,1.77-.017A6.225,6.225,0,0,1-441.3-25.343Zm.945,5.228a.753.753,0,0,1-.565-.018.513.513,0,0,0,.245.126l.028,0a.892.892,0,0,1-.126.024h-.034l-.03,0a.477.477,0,0,1-.082-.024.752.752,0,0,1-.158-.088.8.8,0,0,0,.1.12,1,1,0,0,1-.186-.032h0a1.276,1.276,0,0,1-.534-.332l-.134-.131c-.067-.067-.137-.136-.208-.2a1.67,1.67,0,0,0-.287-.183.807.807,0,0,1,.1.007.939.939,0,0,1,.216.059.972.972,0,0,0-.2-.119,1.025,1.025,0,0,0-.1-.035l.007,0a.624.624,0,0,1,.224-.007.538.538,0,0,1,.227.087.569.569,0,0,0-.209-.148l-.011,0c.037-.009.072-.016.106-.021h.032a.423.423,0,0,1,.087.02.611.611,0,0,1,.165.092.638.638,0,0,0-.109-.123.948.948,0,0,1,.236.029.87.87,0,0,1,.135.051l.032.015a1.546,1.546,0,0,1,.354.267l.133.131a1.413,1.413,0,0,0,.231.195.914.914,0,0,0,.268.119.747.747,0,0,1-.1.022.7.7,0,0,1-.27-.016.668.668,0,0,0,.262.08.767.767,0,0,0,.227-.013C-440.3-20.147-440.326-20.131-440.356-20.115Zm.811-.926,0,0a.7.7,0,0,0,.208-.2.844.844,0,0,0,.1-.215c0,.028.005.06.005.1a.9.9,0,0,1-.027.1c0,.016-.007.03-.013.046a.786.786,0,0,1-.307.4h0l0,0a.669.669,0,0,0,.277-.195c.009-.01.015-.022.024-.033,0,.014-.008.028-.013.042a.735.735,0,0,1-.035.082l-.009.02c-.007.014-.015.026-.023.04s-.021.029-.032.042a.608.608,0,0,1-.093.086.656.656,0,0,1-.22.108h0a.547.547,0,0,0,.186-.021.853.853,0,0,1-.456.253.714.714,0,0,1-.31-.014.83.83,0,0,1-.211-.094,1.493,1.493,0,0,1-.15-.11c-.039-.032-.074-.066-.109-.1s-.062-.061-.1-.089a1.67,1.67,0,0,0-.286-.183.85.85,0,0,1,.1.007.75.75,0,0,1,.208.059h0a.679.679,0,0,0-.191-.119,1.01,1.01,0,0,0-.1-.036l.005,0a.566.566,0,0,1,.105-.014.629.629,0,0,1,.118.006.459.459,0,0,1,.178.083l0,0,0,0a.691.691,0,0,0-.165-.143l-.011,0,.02-.006.053-.014h.023a.277.277,0,0,1,.059.017.709.709,0,0,1,.127.075l0,0,0,0a1.369,1.369,0,0,0-.1-.11.577.577,0,0,1,.2.029l.036.01h0l.009,0a1.318,1.318,0,0,0,.381.053.97.97,0,0,0,.19-.021,1.042,1.042,0,0,0,.292-.1.964.964,0,0,0,.234-.177.774.774,0,0,1-.027.094.724.724,0,0,1-.156.241Zm-.037-1.453a1.169,1.169,0,0,0,.116-.253.711.711,0,0,1,.019.081.761.761,0,0,1,0,.252v0a.009.009,0,0,0,0,0,.732.732,0,0,0,.066-.248.792.792,0,0,0-.007-.2c.015.021.03.046.046.073a.838.838,0,0,1,.008.54v0a.014.014,0,0,1,0,0,.681.681,0,0,0,.1-.269c0-.009,0-.017,0-.026a.946.946,0,0,1,.033.112c0,.015,0,.027,0,.042s0,.024,0,.036a.5.5,0,0,1-.017.1.7.7,0,0,1-.082.188l0,0,0,0a.649.649,0,0,0,.114-.118.889.889,0,0,1-.456.778,1.332,1.332,0,0,1-.168.077,1.365,1.365,0,0,1-.26.064,1.276,1.276,0,0,1-.254.026h-.006l.03-.021.136-.076h0c-.063.014-.123.024-.175.032l-.057.008c0-.005,0-.011,0-.017a.24.24,0,0,1,.063-.068.682.682,0,0,1,.151-.084h0l0,0a1.844,1.844,0,0,0-.2.048h0c0-.019.007-.036.011-.053l.009-.013a.358.358,0,0,1,.042-.037,1.072,1.072,0,0,1,.128-.076h0l0,0c-.051.01-.1.023-.147.036a2.4,2.4,0,0,1,.434-.539l.014-.015c.043-.045.085-.093.125-.141A1.881,1.881,0,0,0-439.582-22.494Zm-.431-1.5a.838.838,0,0,1,.205.485v0s0,0,0,0a.685.685,0,0,0-.005-.282c0-.01-.006-.019-.008-.028a.9.9,0,0,1,.073.093c.006.008.01.017.016.025a.428.428,0,0,1,.017.041.518.518,0,0,1,.022.1.7.7,0,0,1,0,.2v0a.013.013,0,0,1,0,0,.656.656,0,0,0,.059-.155.941.941,0,0,1,.073.4.986.986,0,0,1-.155.476c-.034.053-.069.1-.1.154s-.094.122-.141.181l-.031.038c-.034.043-.073.1-.11.161l-.063.1h0a.792.792,0,0,1,.007-.079,1.113,1.113,0,0,1,.047-.191h0v0a1.394,1.394,0,0,0-.107.18c-.013.027-.024.053-.035.079h0l0-.006a.418.418,0,0,1-.014-.079.513.513,0,0,1,0-.1.53.53,0,0,1,.065-.2l0,0,0,0a.653.653,0,0,0-.125.2l0,.009c-.01-.027-.02-.053-.028-.079a.239.239,0,0,1,0-.028.349.349,0,0,1,.01-.074.628.628,0,0,1,.065-.155l0,0,0,0a.782.782,0,0,0-.1.118.889.889,0,0,1,.011-.317,2.645,2.645,0,0,1,.106-.354l.025-.073c.021-.059.041-.119.058-.179a2.048,2.048,0,0,0,.069-.286,1.315,1.315,0,0,0,.017-.274.77.77,0,0,1,.045.065.767.767,0,0,1,.089.229v0a.755.755,0,0,0-.03-.25.828.828,0,0,0-.079-.18C-440.062-24.031-440.039-24.016-440.013-24Zm2.376-2.746-.225-.192c-.257-.22-.5-.419-.736-.6a7.842,7.842,0,0,0,2.432-1.137A7.376,7.376,0,0,1-437.637-26.742Z" transform="translate(455.306 46.818)" fill="#fff"/>
      </g>
    </g>
  </g>
</svg>
