<svg xmlns="http://www.w3.org/2000/svg" width="33.996" height="34" viewBox="0 0 33.996 34">
  <g id="Gruppe_161" data-name="Gruppe 161" transform="translate(-2220.367 -655.003)">
    <path id="Pfad_804" data-name="Pfad 804" d="M2253.854,676.115a16.994,16.994,0,1,1-12.379-20.6A17,17,0,0,1,2253.854,676.115Z" fill="#f7931a"/>
    <path id="Pfad_805" data-name="Pfad 805" d="M2342.542,739.529c.339-2.262-1.384-3.478-3.739-4.289l.764-3.064-1.865-.465-.744,2.983c-.49-.122-.994-.237-1.494-.352l.749-3-1.864-.465-.764,3.063c-.406-.093-.8-.184-1.191-.28l0-.01-2.572-.642-.5,1.992s1.384.317,1.354.337a.993.993,0,0,1,.87,1.085l-.871,3.491a1.663,1.663,0,0,1,.194.062l-.2-.049-1.22,4.89a.679.679,0,0,1-.854.443c.018.027-1.356-.339-1.356-.339l-.926,2.136,2.427.605c.451.113.894.231,1.33.343l-.772,3.1,1.863.465.764-3.067c.509.138,1,.266,1.486.387l-.762,3.052,1.865.465.772-3.093c3.18.6,5.572.359,6.579-2.517.812-2.316-.041-3.652-1.714-4.524A2.976,2.976,0,0,0,2342.542,739.529Zm-4.261,5.975c-.576,2.316-4.476,1.065-5.741.75l1.024-4.106C2334.828,742.464,2338.883,743.089,2338.28,745.5Zm.577-6.009c-.526,2.107-3.772,1.036-4.825.774l.929-3.724C2336.014,736.807,2339.405,737.3,2338.857,739.5Z" transform="translate(-97.682 -69.947)" fill="#fff"/>
  </g>
</svg>
