<svg xmlns="http://www.w3.org/2000/svg" width="34" height="34" viewBox="0 0 34 34">
  <g id="Gruppe_182" data-name="Gruppe 182" transform="translate(-871 -382)">
    <g id="Gruppe_169" data-name="Gruppe 169" transform="translate(159)">
      <circle id="Ellipse_53" data-name="Ellipse 53" cx="17" cy="17" r="17" transform="translate(712 382)" fill="#fff"/>
    </g>
    <g id="Gruppe_170" data-name="Gruppe 170" transform="translate(876.908 387.803)">
      <path id="Pfad_811" data-name="Pfad 811" d="M3.989,3.5A2.932,2.932,0,1,1,9.8,2.939V6.578c.42,0,.84-.07,1.26-.07a6.79,6.79,0,0,1,1.19.07V2.939A2.957,2.957,0,0,1,15.186,0a3.027,3.027,0,0,1,2.939,3.5l-.77,4.269c2.729,1.19,4.829,3.289,4.829,5.879v1.61a6.171,6.171,0,0,1-3.429,5.179,14.606,14.606,0,0,1-7.7,1.96,14.606,14.606,0,0,1-7.7-1.96A6.238,6.238,0,0,1,0,15.256v-1.61c0-2.589,2.03-4.689,4.759-5.879ZM16.306,8.328l.91-5.039A2.068,2.068,0,0,0,15.186.84a2.031,2.031,0,0,0-2.03,2.03V7.488a3.99,3.99,0,0,0-.91-.07c-.42,0-.77-.07-1.19-.07a7.606,7.606,0,0,0-1.26.07c-.28,0-.63.07-.91.07V2.939a2.018,2.018,0,1,0-3.989.42L5.809,8.4C2.869,9.518.91,11.477.91,13.717v1.61c0,3.429,4.549,6.228,10.148,6.228S21.2,18.755,21.2,15.326v-1.61C21.275,11.407,19.315,9.448,16.306,8.328Z" fill="#633001" fill-rule="evenodd"/>
      <path id="Pfad_812" data-name="Pfad 812" d="M21.7,21.11c0,3.429-4.549,6.228-10.148,6.228S1.4,24.539,1.4,21.11V19.5H21.765v1.61Z" transform="translate(-0.42 -5.853)" fill="#fedc90"/>
      <path id="Pfad_813" data-name="Pfad 813" d="M5.319,3.749a2.018,2.018,0,1,1,3.989-.42V7.948a21.194,21.194,0,0,1,2.169-.14c.7,0,1.4.07,2.1.14V3.33a2.031,2.031,0,0,1,2.03-2.03,2.106,2.106,0,0,1,2.03,2.449l-.91,5.039c2.939,1.12,4.969,3.079,4.969,5.319,0,3.429-4.549,6.228-10.148,6.228S1.4,17.536,1.4,14.107c0-2.239,1.96-4.2,4.9-5.319Z" transform="translate(-0.42 -0.39)" fill="#d1884f" fill-rule="evenodd"/>
      <path id="Pfad_814" data-name="Pfad 814" d="M10.839,18.18c0,.91-.49,1.68-1.12,1.68s-1.12-.77-1.12-1.68.49-1.68,1.12-1.68S10.839,17.27,10.839,18.18Z" transform="translate(-2.581 -4.953)" fill="#633001"/>
      <path id="Pfad_815" data-name="Pfad 815" d="M21.939,18.18c0,.91-.49,1.68-1.12,1.68s-1.12-.77-1.12-1.68.49-1.68,1.12-1.68S21.939,17.27,21.939,18.18Z" transform="translate(-5.913 -4.953)" fill="#633001"/>
    </g>
  </g>
</svg>
