<svg xmlns="http://www.w3.org/2000/svg" xmlns:xlink="http://www.w3.org/1999/xlink" width="64" height="64" viewBox="0 0 64 64">
  <defs>
    <linearGradient id="linear-gradient" x1="0.146" y1="0.854" x2="0.854" y2="0.146" gradientUnits="objectBoundingBox">
      <stop offset="0" stop-color="#05bcf4"/>
      <stop offset="1" stop-color="#76ffcf"/>
    </linearGradient>
  </defs>
  <g id="Gruppe_103" data-name="Gruppe 103" transform="translate(-0.002 -0.002)">
    <g id="Gruppe_101" data-name="Gruppe 101" transform="translate(0.002 0.002)">
      <path id="Pfad_441" data-name="Pfad 441" d="M32,0A32,32,0,1,1,0,32,32,32,0,0,1,32,0Z" transform="translate(-0.002 -0.002)" fill-rule="evenodd" fill="url(#linear-gradient)"/>
    </g>
    <g id="Gruppe_102" data-name="Gruppe 102" transform="translate(17.885 17.887)">
      <path id="Pfad_442" data-name="Pfad 442" d="M1000.157,978.062a6.1,6.1,0,0,0-6.1,6.092v6.754c-.628.042-1.27.069-1.935.069s-1.3.027-1.935.065v-6.888a6.1,6.1,0,0,0-12.19,0V1000.3a6.1,6.1,0,0,0,12.19,0v-6.754c.628-.043,1.27-.069,1.935-.069s1.3-.027,1.935-.064v6.888a6.1,6.1,0,0,0,12.19,0V984.153a6.1,6.1,0,0,0-6.094-6.092Zm-16.062,2.5a3.6,3.6,0,0,1,3.6,3.6v7.152a20.461,20.461,0,0,0-5.179,1.468,9.409,9.409,0,0,0-2.009,1.2v-9.823a3.6,3.6,0,0,1,3.591-3.6Zm3.6,19.738a3.6,3.6,0,1,1-7.195,0v-1.619c0-1.43,1.13-2.785,3.025-3.629a17.7,17.7,0,0,1,4.17-1.223v6.471Zm12.465,3.6a3.6,3.6,0,0,1-3.6-3.6v-7.152a20.463,20.463,0,0,0,5.179-1.468,9.412,9.412,0,0,0,2.009-1.2v9.823a3.6,3.6,0,0,1-3.591,3.6Zm.573-14.5a17.7,17.7,0,0,1-4.17,1.223v-6.461a3.6,3.6,0,1,1,7.195,0v1.619c0,1.424-1.13,2.779-3.024,3.619Z" transform="translate(-978 -978.062)" fill="#fff"/>
    </g>
  </g>
</svg>
