<svg xmlns="http://www.w3.org/2000/svg" width="34" height="34" viewBox="0 0 34 34">
  <g id="Gruppe_165" data-name="Gruppe 165" transform="translate(-712 -382)">
    <circle id="Ellipse_53" data-name="Ellipse 53" cx="17" cy="17" r="17" transform="translate(712 382)" fill="#fff"/>
    <g id="Gruppe_164" data-name="Gruppe 164" transform="translate(720.593 387.755)">
      <path id="Pfad_806" data-name="Pfad 806" d="M8.52,0A8.554,8.554,0,0,0,0,8.52a8.752,8.752,0,0,0,.449,2.767,1.219,1.219,0,0,0,1.5.747,1.213,1.213,0,0,0,.724-1.493,5.622,5.622,0,0,1-.332-2.172,6.146,6.146,0,1,1,6.516,6.319s-1.2.073-1.791.146a6.184,6.184,0,0,0-.651.129.078.078,0,0,1-.111,0h0a.078.078,0,0,1,0-.1l.185-1.01L7.611,8.806a1.168,1.168,0,0,0-2.284-.489S2.655,20.682,2.655,20.795a1.123,1.123,0,0,0,.811,1.365l.02,0h.062a1.122,1.122,0,0,0,1.368-.806.3.3,0,0,0,.007-.031.288.288,0,0,1,0-.056c.033-.146.37-1.791.37-1.791A3.031,3.031,0,0,1,7.8,17.1c.258-.04,1.341-.112,1.341-.112A8.514,8.514,0,0,0,8.52,0Z" fill="#1e1e1e"/>
      <path id="Pfad_807" data-name="Pfad 807" d="M816.375,2182.979a1.42,1.42,0,0,0-1.679,1.1c0,.007,0,.014,0,.021a1.414,1.414,0,0,0,1.081,1.683h.042a1.392,1.392,0,0,0,1.679-1.026c0-.006,0-.012,0-.017v-.078A1.472,1.472,0,0,0,816.375,2182.979Z" transform="translate(-807.339 -2163.335)" fill="#e6007a"/>
    </g>
  </g>
</svg>
