<svg xmlns="http://www.w3.org/2000/svg" width="34" height="34" viewBox="0 0 34 34">
  <g id="icon" transform="translate(1.944 1.944)">
    <circle id="Ellipse_54" data-name="Ellipse 54" cx="17" cy="17" r="17" transform="translate(-1.944 -1.944)" fill="#ffc843"/>
    <circle id="Ellipse_55" data-name="Ellipse 55" cx="14.167" cy="14.167" r="14.167" transform="translate(0.889 0.889)" fill="#d38700"/>
    <path id="Pfad_808" data-name="Pfad 808" d="M100.709,109.606a.745.745,0,0,1-.132-.012.756.756,0,0,1-.571-.466L94.188,94.4a.756.756,0,0,1,.77-1.03l10.956.982a.756.756,0,0,1,.486.239l3.627,3.908a.755.755,0,0,1,.011,1.016l-8.764,9.843A.755.755,0,0,1,100.709,109.606ZM96.044,94.98l4.917,12.452,7.491-8.413-2.962-3.191Z" transform="translate(-86.749 -86.051)" fill="#ffc843"/>
    <path id="Pfad_809" data-name="Pfad 809" d="M102.184,100.535a.757.757,0,0,1-.464-.159L94.429,94.71a.756.756,0,1,1,.927-1.193l7.05,5.48,6.988-.745a.756.756,0,0,1,.16,1.5l-7.291.777C102.237,100.534,102.21,100.535,102.184,100.535Z" transform="translate(-86.75 -86.046)" fill="#ffc843"/>
    <path id="Pfad_810" data-name="Pfad 810" d="M154.8,118.739a.756.756,0,0,1-.746-.876l1.473-9.067a.755.755,0,0,1,.151-.345l3.664-4.684a.756.756,0,0,1,1.19.931l-3.545,4.531-1.443,8.875A.755.755,0,0,1,154.8,118.739Z" transform="translate(-140.842 -95.183)" fill="#ffc843"/>
  </g>
</svg>
