<svg xmlns="http://www.w3.org/2000/svg" width="14.286" height="19.891" viewBox="0 0 14.286 19.891">
  <path id="Pfad_182" data-name="Pfad 182" d="M380.294,110.56a9.054,9.054,0,0,1-6.437-2.676.474.474,0,0,0-.606,0,9.054,9.054,0,0,1-6.437,2.676.411.411,0,0,0-.4.408v7.6c0,3.7,2.474,6.088,6.808,9a.651.651,0,0,0,.67,0c4.334-2.913,6.807-5.3,6.807-9v-7.6A.41.41,0,0,0,380.294,110.56Zm-3.608,5.888-3.6,3.6a.405.405,0,0,1-.511.048.4.4,0,0,1-.066-.052l-2.062-2.024a.4.4,0,0,1-.005-.57l.5-.511a.4.4,0,0,1,.57-.005l1.28,1.256,2.819-2.819a.4.4,0,0,1,.57,0l.506.506A.4.4,0,0,1,376.686,116.447Z" transform="translate(-366.412 -107.774)" fill="#e3d42d"/>
</svg>
