<svg xmlns="http://www.w3.org/2000/svg" width="14.043" height="20.835" viewBox="0 0 14.043 20.835">
  <path id="Pfad_190" data-name="Pfad 190" d="M2550.5,2238.693c0-.008,0-.016,0-.024s0-.042,0-.064a.025.025,0,0,0,0,0l-.005-.08a.685.685,0,0,0-.008-.075l0-.022a.054.054,0,0,0,0-.009v-.008c0-.012,0-.03-.007-.05l-.018-.086c0-.007,0-.014-.005-.021l-.012-.043,0-.012a1.082,1.082,0,0,0-.039-.105,1.693,1.693,0,0,0-.2-.345v0a2.919,2.919,0,0,0-.235-.276,5.331,5.331,0,0,0-.5-.457c-.234-.188-.49-.373-.781-.564q-.007-.15-.013-.3c-.023-.538-.048-1.093-.083-1.642-.026-.4-.053-.722-.085-1.021-.02-.183-.046-.407-.086-.644l.073-.008c.065-.008.143-.017.224-.031h0c.042-.008.083-.016.13-.028h0l.028-.008.015,0,.031-.01a.545.545,0,0,0,.054-.022h0a.414.414,0,0,0,.058-.031l.035-.024.017-.014a.684.684,0,0,0,.153-.185,1.09,1.09,0,0,0,.069-.143,1.908,1.908,0,0,0,.076-.246,3.32,3.32,0,0,0,.073-.452,4.051,4.051,0,0,0,.018-.446,2.894,2.894,0,0,0-.042-.466,1.408,1.408,0,0,0-.075-.269.884.884,0,0,0-.083-.16.672.672,0,0,0-.073-.092l-.013-.013,0,0c-.01-.009-.025-.024-.045-.04h0l-.024-.018-.016-.011-.033-.019-.008,0a.673.673,0,0,0-.17-.061l-.015,0-.015,0-.054-.011h-.01l-.052-.009h0c-.072-.01-.146-.019-.221-.026-.264-.025-.521-.037-.827-.048-.573-.02-1.142-.025-1.623-.027-.4,0-.814,0-1.24,0-.011-.05-.024-.1-.037-.156-.035-.14-.073-.288-.119-.451-.041-.148-.084-.3-.13-.449l.039-.01.033-.01a.4.4,0,0,0,.039-.014l.01,0,.038-.018,0,0,.007,0,0,0,0,0h0a.242.242,0,0,0,.028-.018.41.41,0,0,0,.054-.043l.021-.022a.6.6,0,0,0,.041-.053l.007-.01c.011-.018.018-.032.022-.041v0l0-.008c0-.008.009-.017.012-.025l0-.008,0-.01v0l.007-.019c0-.007,0-.013.006-.02l.01-.037c0-.005,0-.01,0-.016l.008-.035v-.007c.012-.061.019-.116.023-.159v0c.009-.09.014-.184.014-.288a4.36,4.36,0,0,0-.03-.555,1.679,1.679,0,0,0-.064-.313v0a.746.746,0,0,0-.043-.106.533.533,0,0,0-.11-.15l-.015-.014a.408.408,0,0,0-.065-.046l-.044-.023c-.023-.01-.042-.017-.055-.021h0l-.008,0c-.031-.01-.062-.018-.095-.025a2.6,2.6,0,0,0-.292-.044c-.084-.009-.166-.015-.247-.021h-.02c-.186-.013-.369-.019-.523-.023-.172-.005-.348-.007-.522-.007-.2,0-.369.006-.529.014-.075,0-.174.01-.279.022-.049.006-.1.013-.162.025h-.008a.945.945,0,0,0-.11.031h0l-.04.016-.005,0-.035.018,0,0-.008,0-.006,0,0,0-.017.011-.006,0,0,0a.532.532,0,0,0-.047.038l-.007.006-.027.028-.024.029,0,0c-.007.009-.014.019-.022.031a.765.765,0,0,0-.068.132v0c-.012.03-.022.06-.033.1s-.027.1-.04.162a2.86,2.86,0,0,0-.041.3,3.1,3.1,0,0,0,0,.59c.006.059.013.112.023.165a1.19,1.19,0,0,0,.053.2.787.787,0,0,0,.064.132l0,0a.6.6,0,0,0,.166.177.537.537,0,0,0,.08.045l.037.015.008,0,.015.006.018.006.024.007.014,0,.021,0h.007l.067.012a.03.03,0,0,0,0,.007c-.016.154-.029.31-.04.478s-.016.326-.018.481v.033l-.645.017c-.518.015-1.062.035-1.618.061-.295.014-.561.029-.812.045-.112.008-.26.018-.412.031l-.215.022h0l-.053.007h-.005l-.053.008-.033.006h-.01l-.017,0-.031.007-.037.009-.014,0-.055.02a.459.459,0,0,0-.065.031.753.753,0,0,0-.218.187,1.027,1.027,0,0,0-.106.164,1.455,1.455,0,0,0-.109.281,2.424,2.424,0,0,0-.081.494,3.094,3.094,0,0,0,.006.474,2.471,2.471,0,0,0,.09.487v0a1.517,1.517,0,0,0,.109.268.934.934,0,0,0,.245.3.735.735,0,0,0,.1.066.441.441,0,0,0,.045.023l.006,0,.009,0,.039.015.005,0a.8.8,0,0,0,.082.026h0c.025.008.046.012.062.015l.012,0h.007a2.1,2.1,0,0,0,.251.032h0c.16.011.311.012.437.011l.167,0c-.018.159-.036.328-.052.508-.028.307-.054.635-.079,1-.042.613-.075,1.23-.1,1.837l-.02.011c-.426.253-.773.474-1.091.7-.217.151-.381.275-.533.4a3.4,3.4,0,0,0-.269.244l0,.005-.017.018-.047.05-.008.01-.058.071-.01.014a.9.9,0,0,0-.133.278v0a1.757,1.757,0,0,0-.061.417,3.52,3.52,0,0,0,0,.36c.012.25.042.489.066.67.029.209.063.426.1.645s.089.46.125.634c.179.842.4,1.679.656,2.489.14.441.279.839.422,1.218.086.226.164.424.24.606s.171.4.284.617l0,0,0,0c.028.052.057.105.094.165.019.031.04.061.059.088l.011.015,0,.005h0l.016.021,0,.006.012.014,0,0,.024.026,0,0,0,0,.031.032.014.013.022.019,0,0,.044.036a.424.424,0,0,0,.041.031l.025.017,0,0,.043.028,0,0,.043.026.008,0c.06.036.116.063.166.088l.017.008.007,0a5.3,5.3,0,0,0,.663.245c.2.06.4.116.64.174.205.05.415.1.638.141.429.085.859.157,1.281.213.229.03.442.054.65.071.1.009.207.016.336.023.107,0,.216.007.322.007h.018c.415,0,.841-.019,1.3-.057a12.717,12.717,0,0,0,1.3-.17c.239-.045.453-.095.656-.152a4.435,4.435,0,0,0,.662-.24l.006,0,.115-.056.012-.006.112-.063.014-.009.11-.071.02-.014.039-.03,0,0,.038-.031.014-.011.031-.03.007-.007a1.463,1.463,0,0,0,.12-.129l.02-.023.009-.01a3.944,3.944,0,0,0,.383-.6c.093-.175.184-.365.286-.6.088-.2.171-.4.247-.6.148-.385.287-.783.424-1.216.253-.8.475-1.634.661-2.476.11-.506.181-.9.23-1.274.032-.246.052-.463.059-.664v-.007c0-.016,0-.032,0-.048C2550.5,2238.781,2550.5,2238.738,2550.5,2238.693Zm-3.168,7.188-.082.043-.091.041a3.469,3.469,0,0,1-.526.171c-.176.044-.365.082-.578.116a11.917,11.917,0,0,1-1.206.121c-.412.022-.823.028-1.223.019-.1,0-.193-.007-.289-.014-.114-.009-.208-.018-.3-.028-.181-.02-.378-.047-.6-.082-.4-.062-.8-.138-1.206-.227-.33-.074-.76-.176-1.172-.308a4.207,4.207,0,0,1-.515-.2l-.017-.009c-.027-.014-.056-.029-.074-.04l0,0-.017-.01-.016-.011h0l-.007-.011c-.016-.026-.036-.064-.054-.1-.073-.141-.146-.3-.238-.529-.069-.17-.141-.356-.22-.571-.134-.362-.268-.746-.413-1.174s-.277-.831-.389-1.186c-.069-.217-.129-.411-.184-.594s-.114-.387-.172-.6c0-.006,0-.012-.005-.018,1.052-.472,1.948-.864,2.8-1.225.615-.26,1.118-.466,1.583-.648.306-.119.559-.214.792-.3.15-.053.275-.095.393-.132s.247-.076.375-.1l.081-.015.019,0h.052l.025,0h.007l.033.008h0c.122.031.251.077.362.118.278.1.557.227.768.323.568.256,1.12.528,1.538.737.862.433,1.765.9,2.826,1.476-.026.108-.053.211-.079.311-.054.2-.11.4-.167.6-.118.4-.245.8-.378,1.185-.146.421-.289.8-.437,1.159-.076.186-.159.374-.246.56s-.183.375-.271.532a3.1,3.1,0,0,1-.3.45l-.019.02a.625.625,0,0,1-.047.049l-.008.007-.012.011h0l-.012.009,0,0-.011.009Zm2.42-7.082c0,.017,0,.034,0,.051-.007.2-.033.412-.056.586-.03.216-.07.443-.12.7-.974-.546-1.814-1-2.62-1.427-.422-.22-.979-.508-1.557-.781-.236-.111-.517-.24-.815-.359a4.588,4.588,0,0,0-.452-.156l-.067-.017c-.025-.006-.049-.011-.069-.015s-.045-.008-.062-.01l-.016,0-.019,0h-.013a.65.65,0,0,0-.084,0,1.248,1.248,0,0,0-.166.012h0c-.044.006-.087.013-.133.022-.163.032-.316.075-.458.117s-.265.08-.426.134c-.246.082-.509.175-.827.293-.477.176-.991.376-1.619.628-.823.331-1.681.687-2.677,1.112-.011-.056-.022-.11-.031-.162-.04-.218-.067-.407-.083-.58-.009-.109-.013-.2-.011-.271a.87.87,0,0,1,.021-.205l0-.01.02-.024.02-.021.017-.019a2.625,2.625,0,0,1,.194-.181c.13-.111.28-.227.47-.364.3-.214.624-.43,1.028-.678a23.965,23.965,0,0,1,2.177-1.191c.416-.2.785-.359,1.127-.49.219-.083.4-.144.566-.193.1-.03.2-.054.277-.071a2.443,2.443,0,0,1,.264-.042,1.346,1.346,0,0,1,.245.005c.1.009.2.027.271.041.175.035.362.083.573.146a11.7,11.7,0,0,1,1.146.422c.377.159.754.334,1.12.521s.721.384,1.047.582a.442.442,0,0,0,.093.057,9.755,9.755,0,0,1,.938.65,4.614,4.614,0,0,1,.434.388,2.228,2.228,0,0,1,.175.2.945.945,0,0,1,.118.193l0,.008a.323.323,0,0,1,.011.031l.005.016.011.055v0c0,.006,0,.01,0,.016s0,.02,0,.03,0,.019,0,.023a.016.016,0,0,0,0,0l0,.073c0,.012,0,.024,0,.036s0,.021,0,.031v0C2549.752,2238.74,2549.752,2238.769,2549.751,2238.8Zm-11.537-7.373a1.806,1.806,0,0,1,.063-.307l.012-.035.168-.018c.112-.011.232-.021.39-.033.275-.021.556-.039.8-.053.521-.032,1.053-.058,1.568-.083l.033,0c.48-.023,1.046-.049,1.6-.067l1.606-.057c1.026-.03,2.125-.054,3.2-.038.252,0,.521.012.781.031q.09.007.177.018l.014,0a.669.669,0,0,1,.018.078,1.869,1.869,0,0,1,.029.331,3.158,3.158,0,0,1-.017.357,2.616,2.616,0,0,1-.057.342,1.087,1.087,0,0,1-.036.12h0c-.06.01-.124.018-.174.023-.109.011-.227.021-.384.03-.1.006-.2.01-.3.015l-.206.008-.289.009c-.462.012-.955.018-1.6.019-.5,0-1.03,0-1.6-.01l-.807-.013c-.316,0-.574,0-.812,0-.476,0-.991.015-1.621.036l-.641.023c-.317.012-.645.024-.965.032-.154,0-.279.005-.39,0-.152,0-.265-.005-.367-.014a1.328,1.328,0,0,1-.143-.019h0a.48.48,0,0,1-.033-.1,1.3,1.3,0,0,1-.035-.3A2.126,2.126,0,0,1,2538.214,2231.427Zm5.644-4.079c.068,0,.143,0,.234.01.047,0,.1.007.142.013.006.031.01.066.014.1a2.628,2.628,0,0,1,0,.446c0,.069-.011.13-.018.189-.065.005-.137.009-.219.011-.147,0-.309.005-.492,0-.324,0-.661-.015-1-.03-.093,0-.172-.008-.243-.013h0l-.082-.006v0a2.64,2.64,0,0,1-.009-.432c0-.064.01-.13.019-.195.052-.008.109-.016.18-.024.145-.017.3-.031.487-.043.164-.011.331-.019.494-.024S2543.7,2227.345,2543.858,2227.349Zm-1.143,2.1c0-.153.006-.3.012-.443,0-.012,0-.024,0-.035.245,0,.51-.013.814-.032l.216-.015c.038.183.075.365.108.542.029.157.053.3.074.434l-1.115.017h-.1c0-.01,0-.019,0-.029C2542.717,2229.755,2542.715,2229.607,2542.715,2229.453Zm-1.441,4.843c-.167.019-.33.034-.483.046l-.046,0c-.008-.059-.015-.119-.021-.176-.008-.073-.014-.151-.02-.234s-.009-.157-.011-.232c0-.051,0-.1,0-.142l.177-.028c.158-.024.322-.046.487-.066.391-.047.692-.073.974-.085l.179,0c.014.066.026.138.037.219a4.188,4.188,0,0,1,.035.459c0,.019,0,.037,0,.055l-.086.016-.24.039c-.154.024-.318.047-.488.07S2541.422,2234.279,2541.274,2234.3Zm2.076-.261v0c-.008-.167-.026-.343-.055-.54h0c-.015-.1-.031-.191-.05-.275-.009-.04-.021-.092-.038-.147-.009-.031-.019-.059-.03-.087s-.013-.032-.021-.051h.041l.8.006c-.011.044-.02.09-.03.145-.015.088-.028.182-.039.3a4.7,4.7,0,0,0-.022.581,2.931,2.931,0,0,0,.024.311c.006.043.013.085.023.128l-.08-.009a2.137,2.137,0,0,0-.389-.008c-.047,0-.094.01-.139.016,0-.023.006-.044.007-.062A2.4,2.4,0,0,0,2543.35,2234.035Zm1.461.092c-.009-.064-.013-.135-.017-.2-.009-.168-.01-.332,0-.485,0-.058.006-.112.011-.162l.2-.01c.167-.006.341-.01.518-.012.406,0,.735,0,1.031.024.071,0,.141.01.209.018,0,.005,0,.01,0,.016,0,.071.006.15.005.241,0,.152-.01.314-.027.5h0c-.008.081-.019.16-.032.237,0,.006,0,.012,0,.019l-.152-.006c-.159-.008-.327-.019-.516-.035-.152-.012-.316-.028-.519-.049-.179-.018-.351-.039-.509-.061C2544.947,2234.149,2544.879,2234.139,2544.812,2234.126Zm1.6.969h.125c.087,0,.182,0,.281-.008.05,0,.1-.006.168-.015l.012,0h0a.547.547,0,0,0,.081-.019l0,0,.014,0a.35.35,0,0,0,.047-.02l0,0,.007,0,.006,0,.035-.022.009-.006a.478.478,0,0,0,.046-.039l0,0c.014-.015.025-.027.032-.036l.008-.01.005-.007a.132.132,0,0,0,.012-.017l0-.006,0,0,.014-.023.005-.01,0,0c0-.008.011-.021.017-.035s.017-.041.026-.065a1.357,1.357,0,0,0,.045-.183c.008-.047.016-.1.022-.152.011-.091.018-.179.025-.284.011-.17.016-.353.014-.558,0-.108,0-.2-.011-.288,0-.056-.01-.107-.017-.156v0a.931.931,0,0,0-.049-.2.005.005,0,0,1,0,0l.127,0,.09,0c.028.192.05.407.07.666.022.288.038.6.051.988.014.45.021.909.028,1.359q-.252-.141-.519-.279c-.365-.189-.741-.368-1.118-.532C2546.231,2235.1,2546.322,2235.1,2546.41,2235.1Zm-6.588-1.118v0c0,.09.008.181.015.269s.018.188.031.281c.008.051.017.1.028.154a1.231,1.231,0,0,0,.052.18l0,.008.008.02.005.013.01.022.006.012v0a.7.7,0,0,0,.058.093l.006.008,0,0,.021.024,0,.005.008.009.006.006.026.024a.532.532,0,0,0,.058.043l.007,0a.471.471,0,0,0,.066.034l.03.012h0l.006,0,.01,0h0l.048.012.012,0h.012l.013,0h0a.985.985,0,0,0,.112.008h.089c.1,0,.195-.012.282-.021l.148-.017-.056.026c-.357.166-.733.354-1.148.574l-.219.117c0-.439,0-.876.009-1.3.006-.361.015-.684.028-.987.009-.21.019-.4.031-.585l.271-.013v0a.392.392,0,0,0-.02.04l-.006.014-.006.014,0,.01a.307.307,0,0,0-.011.034v.008a.928.928,0,0,0-.025.108c-.011.061-.017.115-.021.163-.008.083-.012.17-.015.282C2539.82,2233.794,2539.82,2233.885,2539.822,2233.977Z" transform="translate(-2536.456 -2226.586)" fill="#e3d42d"/>
</svg>
