<svg xmlns="http://www.w3.org/2000/svg" width="21.804" height="21.877" viewBox="0 0 21.804 21.877">
  <g id="Gruppe_52" data-name="Gruppe 52" transform="translate(-202.718 -201.967)">
    <path id="Pfad_198" data-name="Pfad 198" d="M252.635,248.094a6.9,6.9,0,0,1-5.36,5.39l-.376,2.48a9.294,9.294,0,0,0,8.211-8.245Zm-5.724-10.6.375,2.48a6.905,6.905,0,0,1,5.332,5.311l2.483.376A9.293,9.293,0,0,0,246.911,237.494Zm-10.271,8.168,2.483-.376a6.9,6.9,0,0,1,5.332-5.311l.376-2.481A9.294,9.294,0,0,0,236.64,245.661Zm7.827,7.823a6.906,6.906,0,0,1-5.36-5.39l-2.476-.375a9.3,9.3,0,0,0,8.211,8.245Z" transform="translate(-32.251 -33.785)" fill="#e3d42d"/>
    <g id="Gruppe_51" data-name="Gruppe 51" transform="translate(202.718 201.967)">
      <path id="Pfad_199" data-name="Pfad 199" d="M222.907,212.661l-2.417-.366-4.515-.684,2.012-3.034-3.058,2.028-.687-4.534-.366-2.417-.256-1.687-.256,1.687L213,206.071l-.687,4.533-3.058-2.027,2.012,3.034-4.515.684-2.417.366-1.614.244,1.612.244,2.414.366,4.567.692-2.057,3.1,3.069-2.035.688,4.541.366,2.417.244,1.612.244-1.612.366-2.417.687-4.541,3.069,2.035-2.057-3.1,4.567-.692,2.414-.366,1.612-.244Zm-8.071.537a1.252,1.252,0,0,1-.923.923,1.26,1.26,0,0,1-.586,0,1.251,1.251,0,0,1-.922-.922,1.266,1.266,0,0,1-.035-.293,1.233,1.233,0,0,1,.016-.2,1.25,1.25,0,0,1,1.034-1.034,1.24,1.24,0,0,1,.4,0,1.249,1.249,0,0,1,1.034,1.034,1.248,1.248,0,0,1-.018.491Z" transform="translate(-202.718 -201.967)" fill="#e3d42d"/>
    </g>
  </g>
</svg>
