<svg xmlns="http://www.w3.org/2000/svg" width="17.719" height="13.779" viewBox="0 0 17.719 13.779">
  <path id="Icon_awesome-home" data-name="Icon awesome-home" d="M8.624,5.828,2.952,10.5v5.041a.492.492,0,0,0,.492.492l3.447-.009a.492.492,0,0,0,.49-.492V12.588a.492.492,0,0,1,.492-.492H9.842a.492.492,0,0,1,.492.492v2.942a.492.492,0,0,0,.492.494l3.446.01a.492.492,0,0,0,.492-.492V10.5L9.094,5.828A.375.375,0,0,0,8.624,5.828ZM17.582,9l-2.572-2.12V2.623a.369.369,0,0,0-.369-.369H12.919a.369.369,0,0,0-.369.369V4.856L9.8,2.59a1.477,1.477,0,0,0-1.876,0L.133,9a.369.369,0,0,0-.049.52l.784.954a.369.369,0,0,0,.52.05l7.236-5.96a.375.375,0,0,1,.471,0l7.236,5.96a.369.369,0,0,0,.52-.049l.784-.954A.369.369,0,0,0,17.582,9Z" transform="translate(0.001 -2.254)" fill="#e3d42d"/>
</svg>
