<svg xmlns="http://www.w3.org/2000/svg" width="15.748" height="12.795" viewBox="0 0 15.748 12.795">
  <path id="Icon_awesome-list-ul" data-name="Icon awesome-list-ul" d="M1.476,3.375A1.476,1.476,0,1,0,2.953,4.851,1.476,1.476,0,0,0,1.476,3.375Zm0,4.921A1.476,1.476,0,1,0,2.953,9.773,1.476,1.476,0,0,0,1.476,8.3Zm0,4.921a1.476,1.476,0,1,0,1.476,1.476,1.476,1.476,0,0,0-1.476-1.476Zm13.779.492H5.413a.492.492,0,0,0-.492.492v.984a.492.492,0,0,0,.492.492h9.842a.492.492,0,0,0,.492-.492V14.2A.492.492,0,0,0,15.256,13.71Zm0-9.842H5.413a.492.492,0,0,0-.492.492v.984a.492.492,0,0,0,.492.492h9.842a.492.492,0,0,0,.492-.492V4.359A.492.492,0,0,0,15.256,3.867Zm0,4.921H5.413a.492.492,0,0,0-.492.492v.984a.492.492,0,0,0,.492.492h9.842a.492.492,0,0,0,.492-.492V9.28A.492.492,0,0,0,15.256,8.788Z" transform="translate(0 -3.375)" fill="#e3d42d"/>
</svg>
