<svg xmlns="http://www.w3.org/2000/svg" width="17.74" height="14.756" viewBox="0 0 17.74 14.756">
  <g id="Gruppe_46" data-name="Gruppe 46" transform="translate(-3955.715 -814.305)">
    <path id="Pfad_183" data-name="Pfad 183" d="M4172.4,918.593l.052,0a.587.587,0,0,0,.534-.628.711.711,0,0,0-.04-.178.575.575,0,0,0-.1-.183.583.583,0,0,0-.387-.2.591.591,0,0,0-.442.139.6.6,0,0,0,.194,1.023A.6.6,0,0,0,4172.4,918.593Zm.017-.551a.06.06,0,0,1-.019-.021l.065-.056h0l-.02.088A.066.066,0,0,1,4172.413,918.043Zm.044-.081h0Zm0,0h0Zm.032.037a.1.1,0,0,1-.013.054h0a.088.088,0,0,1-.034,0l.021-.087.027.017A.059.059,0,0,1,4172.493,918Zm0-.018-.025-.017v0l.02,0C4172.487,917.971,4172.488,917.977,4172.49,917.983Zm0-.018-.02,0,.014-.013Zm-.007-.019h0l-.012.011.006-.025A.107.107,0,0,1,4172.479,917.946Zm-.065-.049.01-.005a.091.091,0,0,1,.039.026l.008.011-.007.032,0,0h0l-.065-.043A.089.089,0,0,1,4172.414,917.9Zm-.025.025.062.038-.072-.009A.076.076,0,0,1,4172.389,917.922Zm-.011.03.073.009.007,0-.064.056v0A.12.12,0,0,1,4172.378,917.952Z" transform="translate(-209.849 -100.116)" fill="#e3d42d"/>
    <path id="Pfad_184" data-name="Pfad 184" d="M4292.188,908.982l.048,0a.59.59,0,0,0,.543-.628.709.709,0,0,0-.04-.183.579.579,0,0,0-.108-.187.588.588,0,0,0-.394-.2.6.6,0,0,0-.233.026.6.6,0,0,0-.357.315.6.6,0,0,0-.056.241.608.608,0,0,0,.187.454A.6.6,0,0,0,4292.188,908.982Zm.007-.547a.078.078,0,0,1-.018-.021.135.135,0,0,1-.016-.049l.085-.005-.018.09A.086.086,0,0,1,4292.195,908.435Zm.1-.048a.1.1,0,0,1-.018.06l-.01,0a.092.092,0,0,1-.033,0l.021-.09h0l.037.023A.015.015,0,0,1,4292.29,908.386Zm0-.007-.033-.021.028,0A.178.178,0,0,1,4292.289,908.38Zm-.014-.051c0,.01.006.019.008.027l-.03,0,0,0,.011-.05A.092.092,0,0,1,4292.275,908.328Zm-.078-.046a.084.084,0,0,1,.019-.009.1.1,0,0,1,.041.026l-.011.054-.074-.047A.09.09,0,0,1,4292.2,908.283Zm-.026.027.076.046v0l-.086.006a.079.079,0,0,1,0-.024A.074.074,0,0,1,4292.171,908.31Z" transform="translate(-326.181 -90.776)" fill="#e3d42d"/>
    <path id="Pfad_185" data-name="Pfad 185" d="M3973.435,822.948h0a1.475,1.475,0,0,0-.09-.292,1.967,1.967,0,0,0-.129-.253,2.689,2.689,0,0,0-.322-.427,3.66,3.66,0,0,0-.375-.353c-.063-.052-.131-.1-.2-.156l-.009-.006c-.031-.022-.063-.045-.1-.068l-.05-.033-.046-.028-.016-.01a2.56,2.56,0,0,0-.489-.221,3.815,3.815,0,0,0-1-.182,5.5,5.5,0,0,0-.8.014c-.091-.109-.187-.215-.29-.318.046-.027.09-.055.133-.084a2.7,2.7,0,0,0,.484-.421,3.473,3.473,0,0,0,.373-.5c.075-.12.145-.247.212-.385a2.238,2.238,0,0,0,.8-.542,2.4,2.4,0,0,0,.54-.923,3.024,3.024,0,0,0,.115-.51,3.582,3.582,0,0,0,.03-.509,4.362,4.362,0,0,0-.033-.5,4.236,4.236,0,0,0-.091-.5,3.428,3.428,0,0,0-.159-.488,2.61,2.61,0,0,0-.248-.468,1.719,1.719,0,0,0-.178-.224,1.115,1.115,0,0,0-.119-.109.788.788,0,0,0-.165-.1h0a.6.6,0,0,0-.121-.039.487.487,0,0,0-.169-.006.458.458,0,0,0-.1.026l-.013.006-.03.015-.008,0-.03.018,0,0-.009.006a.542.542,0,0,0-.1.1.839.839,0,0,0-.1.157c-.026.049-.046.1-.062.134-.051.127-.092.251-.131.371l-.03.091c-.042.129-.093.278-.149.415a1.523,1.523,0,0,1-.18.334.31.31,0,0,1-.161.128h-.007a.15.15,0,0,1-.033,0h-.011l-.022,0-.021,0h-.009l-.016,0a.686.686,0,0,1-.149-.04.808.808,0,0,1-.271-.177,2.15,2.15,0,0,1-.254-.308l-.028-.039c-.037-.051-.078-.109-.129-.17a.939.939,0,0,0-.136-.134l-.007-.005-.043-.03-.018-.011c-.019-.01-.039-.021-.063-.032l-.013-.005-.036-.012a.376.376,0,0,0-.065-.015.451.451,0,0,0-.1-.006.616.616,0,0,0-.267.075l-.006,0a.892.892,0,0,0-.16.114l0,0a1.275,1.275,0,0,0-.213.251,1.726,1.726,0,0,0-.141.264,2.224,2.224,0,0,0-.092.267.007.007,0,0,0,0,0,2.507,2.507,0,0,0-.081.541q0,.107,0,.216a1.471,1.471,0,0,0-1.228-.6,1.47,1.47,0,0,0-1.007.434,1.454,1.454,0,0,0-.311.461,1.478,1.478,0,0,0-.115.547v.01l0,.059v.016a.581.581,0,0,0,0,.067c0,.008,0,.017,0,.025a.938.938,0,0,0,.015.108l.01.054,0,.019.014.054a1.031,1.031,0,0,0,.034.108l.008.022c.009.025.018.046.025.061l.005.011,0,.007.007.015c.007.017.015.033.023.049l0,0,.043.078.009.015.049.075.007.01.028.037.01.013a1.017,1.017,0,0,0,.073.087l.018.02.005.006a1.4,1.4,0,0,0,.154.142,8.9,8.9,0,0,0-1.372.023,1.471,1.471,0,0,0,.2-.34c.01-.022.016-.041.021-.056l0-.014,0-.008,0-.013c.006-.016.013-.039.02-.065l0-.015c.009-.036.02-.077.027-.122a1.616,1.616,0,0,0,.024-.285s0-.006,0-.01a1.678,1.678,0,0,0-.021-.22,1.566,1.566,0,0,0-.053-.215,1.516,1.516,0,0,0-.084-.206,1.554,1.554,0,0,0-.113-.187,1.486,1.486,0,0,0-2.273-.186,1.512,1.512,0,0,0-.251.342,1.451,1.451,0,0,0-.144.4,1.477,1.477,0,0,0,.614,1.512c.039.027.079.052.12.075a6.45,6.45,0,0,0-.826.337,4.724,4.724,0,0,0-.424.237l-.036-.035a2.032,2.032,0,0,1-.2-.239l-.018-.027c-.009-.013-.018-.025-.026-.038l-.043-.068-.039-.071-.02-.039-.014-.03c-.015-.032-.029-.066-.042-.1a2.5,2.5,0,0,0,.451-.653,2.343,2.343,0,0,0,.18-.545,2.473,2.473,0,0,0,.047-.566,3.014,3.014,0,0,0-.065-.55,2.569,2.569,0,0,0-.178-.538,2.239,2.239,0,0,0-.308-.493,1.707,1.707,0,0,0-.468-.4,1.2,1.2,0,0,0-.16-.075.845.845,0,0,0-.2-.051.6.6,0,0,0-.15,0,.483.483,0,0,0-.209.079l0,0a.508.508,0,0,0-.136.143l0,0a.72.72,0,0,0-.056.106,1.416,1.416,0,0,0-.055.154c-.012.041-.023.081-.034.12l0,.008c-.02.074-.041.151-.064.223a1.5,1.5,0,0,1-.16.359.731.731,0,0,1-.374.3c-.025.009-.052.018-.081.026a.463.463,0,0,1-.063.013h0a.332.332,0,0,1-.112-.005.415.415,0,0,1-.115-.046.957.957,0,0,1-.251-.23,2.811,2.811,0,0,1-.237-.355c-.052-.088-.1-.18-.151-.276l-.079-.147c-.021-.039-.044-.081-.072-.124-.015-.024-.031-.05-.05-.076l0,0a.757.757,0,0,0-.09-.1l0,0-.011-.01-.009-.007-.025-.02-.007-.005-.026-.018-.031-.018a.49.49,0,0,0-.123-.047l-.056-.01a.377.377,0,0,0-.049,0h-.028a.44.44,0,0,0-.06,0,.578.578,0,0,0-.092.018.765.765,0,0,0-.241.119l0,0a1.141,1.141,0,0,0-.268.284,1.588,1.588,0,0,0-.156.293,2.388,2.388,0,0,0-.153.576,3.472,3.472,0,0,0-.033.557,4.863,4.863,0,0,0,.039.536,3.454,3.454,0,0,0,.109.548,2.6,2.6,0,0,0,.225.539,2.308,2.308,0,0,0,.824.845,2.487,2.487,0,0,0,.256.135l.006,0a2.8,2.8,0,0,0,.265.1c.1.034.2.058.271.076h0c.1.022.19.038.276.049.1.013.194.021.277.025l.052,0v0l0,.01.014.033c.014.034.03.071.051.111l.031.061.008.014.037.062a1.978,1.978,0,0,0,.417.491,2.407,2.407,0,0,0,.528.336l.006,0,.063.028,0,.008a5,5,0,0,0-.72,0,3.483,3.483,0,0,0-1.015.222,2.549,2.549,0,0,0-.483.252,4.211,4.211,0,0,0-.406.31c-.072.061-.136.124-.191.177l0,0c-.054.056-.118.122-.177.193a2.423,2.423,0,0,0-.307.458,1.662,1.662,0,0,0-.11.276,1.135,1.135,0,0,0-.05.33.716.716,0,0,0,0,.081v.013c0,.014,0,.029.006.043v.007a.458.458,0,0,0,.012.059.674.674,0,0,0,.089.209l0,0,0,0a.405.405,0,0,0,.036.05l.022.027.016.018.005.005,0,0a.527.527,0,0,0,.047.04l.007.005.044.027.014.007a.474.474,0,0,0,.109.037.53.53,0,0,0,.159.009c.023,0,.042,0,.058-.007l.041-.008.007,0h.006a1.217,1.217,0,0,0,.158-.051c.042-.017.086-.035.128-.055.075-.035.145-.07.227-.113l.2-.1.22-.117a4.66,4.66,0,0,1,.8-.346,1.593,1.593,0,0,1,.377-.069h0c0,.008,0,.015,0,.023a4.053,4.053,0,0,0-.581.14,3.6,3.6,0,0,0-.445.176,3.244,3.244,0,0,0-.42.245,2.916,2.916,0,0,0-.691.689,2.875,2.875,0,0,0-.251.423,2.266,2.266,0,0,0-.172.479,1.5,1.5,0,0,0-.039.278,1.035,1.035,0,0,0,.006.162.776.776,0,0,0,.044.187.58.58,0,0,0,.143.218.516.516,0,0,0,.131.091.487.487,0,0,0,.177.047.526.526,0,0,0,.159-.014.663.663,0,0,0,.11-.038l0,0a.934.934,0,0,0,.15-.089,2.241,2.241,0,0,0,.2-.168l.13-.124.032-.031c.09-.087.195-.186.3-.272a1.542,1.542,0,0,1,.3-.194.833.833,0,0,1,.142-.054l.033-.008.045-.009.094-.016a2.74,2.74,0,0,1,.485-.03c.006.03.013.06.019.09a2.912,2.912,0,0,0-.552.244,2.477,2.477,0,0,0-.766.683,2.545,2.545,0,0,0-.141.217c-.014.023-.026.047-.039.07l-.019.034v0l-.036.07-.018.035,0,0a4.43,4.43,0,0,0-.2.444,3.639,3.639,0,0,0-.144.475,2.283,2.283,0,0,0-.06.525,1.236,1.236,0,0,0,.041.306s0,.009,0,.013l0,.016c.006.017.012.038.021.062l0,.007,0,.012a.53.53,0,0,0,.035.072.629.629,0,0,0,.151.183l.009.008.039.029.017.011.046.025h0a.447.447,0,0,0,.077.031l.006,0h0a.377.377,0,0,0,.068.016l.042.006h.008a.465.465,0,0,0,.052,0h.005a.533.533,0,0,0,.1-.007l.013,0h.009a.688.688,0,0,0,.211-.075,1.03,1.03,0,0,0,.141-.092,2.028,2.028,0,0,0,.2-.183c.05-.051.1-.105.164-.176l.133-.15c.055-.062.109-.124.165-.185a4.264,4.264,0,0,1,.6-.567,1.912,1.912,0,0,1,.426-.243c.04.055.08.108.121.159s.1.12.151.175l.037.041,0,0,.011.013c.011.013.025.028.043.045l.079.078.068.066.008.007.154.134.011.009.161.125.011.008.168.116.011.007.059.036.038.023.082.049.008,0,.061.033c.061.033.123.067.191.1l.09.042,0,0,.027.011.135.056c.033.014.064.025.094.035l.044.016.063.023,0,0,.048.016.018.006a4.6,4.6,0,0,0,.548.142,5.312,5.312,0,0,0,.555.081c.2.019.4.029.612.029.157,0,.32-.005.49-.016s.338-.026.538-.048l.069-.008c.064-.007.125-.014.181-.018l.263-.02c.383-.031.732-.073,1.067-.128.184-.03.363-.064.532-.1s.356-.083.528-.13a6.736,6.736,0,0,0,1.039-.377l.04-.019c.028-.013.057-.026.086-.042l.119-.061.007,0,.036-.02c.067-.037.137-.076.207-.12a3.68,3.68,0,0,0,.462-.332c.036-.029.069-.059.1-.086l.025-.023c.031-.029.064-.059.1-.091.065-.066.129-.137.195-.215.045-.054.09-.11.134-.169a1.949,1.949,0,0,1,.45.284,4.374,4.374,0,0,1,.549.565l.117.141.159.19c.045.052.1.114.157.175a1.627,1.627,0,0,0,.2.183.891.891,0,0,0,.148.09l.036.016.007,0,.011,0,.049.016h0a.661.661,0,0,0,.1.021.625.625,0,0,0,.244-.017.586.586,0,0,0,.236-.131.649.649,0,0,0,.138-.179.815.815,0,0,0,.068-.171,1.248,1.248,0,0,0,.044-.294,2.223,2.223,0,0,0-.045-.5,3.416,3.416,0,0,0-.125-.458,4.367,4.367,0,0,0-.174-.43c-.032-.069-.067-.138-.1-.206s-.079-.146-.12-.211a2.457,2.457,0,0,0-.688-.7,2.806,2.806,0,0,0-.551-.291q.016-.06.032-.119c.055,0,.11.006.165.013s.114.015.176.026l.09.018.04.009h0l.015,0,.013,0a.994.994,0,0,1,.262.127,2.17,2.17,0,0,1,.27.216c.076.069.15.143.228.222l.051.051c.046.046.1.1.161.154a1.275,1.275,0,0,0,.225.167.64.64,0,0,0,.212.076.51.51,0,0,0,.166,0,.5.5,0,0,0,.165-.059.551.551,0,0,0,.116-.089l0,0a.6.6,0,0,0,.08-.1.694.694,0,0,0,.08-.194,1.037,1.037,0,0,0,.024-.305,1.6,1.6,0,0,0-.037-.257,2.3,2.3,0,0,0-.153-.45,2.9,2.9,0,0,0-.223-.4,2.968,2.968,0,0,0-.612-.674,3.073,3.073,0,0,0-.784-.452,3.889,3.889,0,0,0-.627-.19v0l.063.009a2.1,2.1,0,0,1,.383.106,6.164,6.164,0,0,1,.8.382l.1.054c.1.057.211.116.324.173a2.421,2.421,0,0,0,.252.112.977.977,0,0,0,.176.048.615.615,0,0,0,.136.008h0a.477.477,0,0,0,.212-.065.425.425,0,0,0,.054-.039l.026-.023,0,0,.005-.005.009-.01,0,0c.013-.014.026-.03.04-.048a.668.668,0,0,0,.064-.1.736.736,0,0,0,.067-.208A.994.994,0,0,0,3973.435,822.948Zm-15.139,1.721h0l-.118.023-.028.006h-.007l-.031.007-.072.02a1.577,1.577,0,0,0-.262.106,2.271,2.271,0,0,0-.427.291c-.125.106-.241.221-.339.32l-.032.032-.063.064a1.649,1.649,0,0,1,.108-.312,2.242,2.242,0,0,1,.187-.331,2.275,2.275,0,0,1,.524-.548,2.605,2.605,0,0,1,.33-.2,2.989,2.989,0,0,1,.364-.153,3.326,3.326,0,0,1,.342-.1c0,.167,0,.333.005.5,0,.075.009.151.016.228A3.5,3.5,0,0,0,3958.3,824.668Zm.483-2.141a2.317,2.317,0,0,0-.549.1,5.347,5.347,0,0,0-.925.406l-.227.123-.188.1c-.051.028-.106.057-.161.084l0-.009a.991.991,0,0,1,.062-.16,1.723,1.723,0,0,1,.217-.329c.042-.052.09-.1.136-.152s.1-.1.153-.145a3.5,3.5,0,0,1,.337-.263,1.844,1.844,0,0,1,.352-.187,2.853,2.853,0,0,1,.819-.185c.115-.01.232-.015.352-.015-.037.094-.071.188-.1.284s-.056.18-.081.269l-.02.072A1.622,1.622,0,0,0,3958.78,822.527Zm.535,4.225a2.792,2.792,0,0,0-.437.278h0a4.961,4.961,0,0,0-.695.676c-.056.065-.112.13-.167.195l-.126.148c-.054.062-.1.112-.138.154a1.446,1.446,0,0,1-.118.113.652.652,0,0,1-.007-.082,1.316,1.316,0,0,1,.007-.178c.006-.055.015-.116.03-.189a2.953,2.953,0,0,1,.11-.388,3.576,3.576,0,0,1,.159-.38l.017-.035.029-.059.018-.034.031-.058c.031-.057.065-.111.1-.162a1.841,1.841,0,0,1,.559-.515,2.256,2.256,0,0,1,.4-.188c.059.176.124.345.2.507.027.059.054.117.082.173Zm11.478-3.13a3.111,3.111,0,0,1,.309.11,2.4,2.4,0,0,1,.607.36,2.282,2.282,0,0,1,.463.524,2.2,2.2,0,0,1,.165.307,1.72,1.72,0,0,1,.087.247l-.026-.027c-.079-.081-.159-.164-.246-.246a2.891,2.891,0,0,0-.357-.293,1.7,1.7,0,0,0-.459-.227h0l-.013,0-.05-.014-.027-.007h-.005l-.024-.005-.109-.023c-.078-.015-.151-.027-.222-.037l-.119-.013A5.028,5.028,0,0,0,3970.792,823.622Zm-1.153-3.981a2.042,2.042,0,0,1-.371.3,1.637,1.637,0,0,1-.336.162q-.149-.111-.3-.211a3.455,3.455,0,0,0,.234-.282,3.711,3.711,0,0,0,.21-.316l.025-.044a3.171,3.171,0,0,0,.43.086c.081.011.166.019.254.026l.087.005A2.658,2.658,0,0,1,3969.64,819.641Zm-1.482-2.968a1.742,1.742,0,0,1,.054-.379,1.456,1.456,0,0,1,.058-.171,1.032,1.032,0,0,1,.079-.151l.023-.035.033.044.025.034a2.748,2.748,0,0,0,.351.4,1.528,1.528,0,0,0,.516.316,1.416,1.416,0,0,0,.3.072c.023,0,.043.005.06.006h.018l.031,0,.041,0h.013a.847.847,0,0,0,.194-.02.856.856,0,0,0,.186-.064.894.894,0,0,0,.16-.1.987.987,0,0,0,.129-.118,1.184,1.184,0,0,0,.1-.124,2.221,2.221,0,0,0,.253-.49c.062-.16.11-.319.155-.467l.027-.089c.033-.111.065-.217.1-.314a1.13,1.13,0,0,1,.1.119,2.049,2.049,0,0,1,.195.352,2.813,2.813,0,0,1,.139.4,2.967,2.967,0,0,1,.081.416,3.4,3.4,0,0,1,.023.426,2.961,2.961,0,0,1-.034.42,2.313,2.313,0,0,1-.1.4,1.74,1.74,0,0,1-.408.665,1.565,1.565,0,0,1-.652.391,1.358,1.358,0,0,1-.367.059c-.03,0-.059,0-.087,0l-.107-.008c-.073-.007-.144-.016-.21-.026a2.362,2.362,0,0,1-.395-.094,1.66,1.66,0,0,1-.346-.162l-.008,0-.013-.009-.016-.011-.038-.026-.043-.033-.021-.016,0,0-.022-.018c-.017-.015-.033-.028-.044-.04l-.005-.005-.033-.032-.031-.034a1.41,1.41,0,0,1-.208-.3,1.942,1.942,0,0,1-.14-.365,2.9,2.9,0,0,1-.083-.4A2.429,2.429,0,0,1,3968.158,816.673Zm-.9,2.1a1.425,1.425,0,0,0,.336-.493,1.454,1.454,0,0,0,.076-.253c.024.054.049.107.076.157a2.147,2.147,0,0,0,.324.459,1.981,1.981,0,0,0,.38.319c-.049.076-.1.148-.153.215a2.589,2.589,0,0,1-.2.228c-.039.04-.081.08-.125.12-.116-.055-.235-.107-.355-.156a6.829,6.829,0,0,0-.861-.278l.006,0A1.506,1.506,0,0,0,3967.256,818.776Zm-1.662-1.67a.8.8,0,0,1,.9-.16.815.815,0,0,1,.255.186.8.8,0,0,1,.213.566.792.792,0,0,1-.066.293.885.885,0,0,1-.169.258.8.8,0,0,1-.249.175.778.778,0,0,1-.146.049l-.013,0-.064.01-.013,0-.065.005a.786.786,0,0,1-.3-.048l-.03-.012-.037-.016-.009,0-.038-.019-.054-.033-.011-.008-.04-.029-.009-.008-.016-.014-.018-.015-.005,0-.006-.006a.818.818,0,0,1-.186-.257l-.011-.027a.387.387,0,0,1-.017-.043l0-.009-.013-.041-.009-.042,0-.01c0-.007,0-.024-.006-.039s0-.026-.006-.038h0a.052.052,0,0,0,0-.009c0-.007,0-.014,0-.021l0-.047A.824.824,0,0,1,3965.594,817.106Zm-3.611,1.182a.8.8,0,0,1-.055-.468.808.808,0,0,1,.221-.423.791.791,0,0,1,.884-.165.8.8,0,0,1,.349.3.792.792,0,0,1,.122.435.812.812,0,0,1-.062.292l-.007.016c-.008.018-.016.036-.023.047l0,0-.012.024,0,.007v0l-.026.042,0,0,0,.006-.01.014-.015.021,0,.006h0l-.016.019c-.012.015-.024.029-.032.037l-.01.009a.744.744,0,0,1-.109.094l-.012.008c-.017.011-.033.022-.045.028l-.008,0-.021.012,0,0h0l-.044.021a.747.747,0,0,1-.289.067h-.056l-.032,0-.03,0a.737.737,0,0,1-.111-.02h0a.782.782,0,0,1-.214-.092A.8.8,0,0,1,3961.983,818.288Zm-3.1,1.012-.011,0h-.005l-.039.008c-.03.005-.062.01-.1.014a1.9,1.9,0,0,1-.207.011c-.065,0-.134,0-.211-.008h0c-.062,0-.13-.013-.21-.027-.061-.01-.128-.025-.205-.044-.06-.017-.129-.037-.2-.062l0,0c-.065-.023-.13-.053-.185-.08s-.118-.063-.172-.1l0,0a1.492,1.492,0,0,1-.3-.249,1.554,1.554,0,0,1-.223-.315,1.782,1.782,0,0,1-.144-.368l-.006-.023-.007-.023-.024-.107c0-.008,0-.016,0-.024l0-.026c-.011-.06-.019-.126-.028-.195l0-.023a4.292,4.292,0,0,1-.029-.445,2.681,2.681,0,0,1,.027-.425,1.565,1.565,0,0,1,.087-.353c.043.077.088.155.135.233a3.441,3.441,0,0,0,.324.456,2.1,2.1,0,0,0,.215.217,1.5,1.5,0,0,0,.274.19,1.173,1.173,0,0,0,.347.123,1.125,1.125,0,0,0,.376,0,1.225,1.225,0,0,0,.176-.04c.052-.016.1-.034.15-.054a1.535,1.535,0,0,0,.288-.156,1.456,1.456,0,0,0,.25-.219,1.6,1.6,0,0,0,.19-.259,2.245,2.245,0,0,0,.223-.542c.024-.085.044-.168.063-.248l0-.01.006-.025a1.074,1.074,0,0,1,.239.209,1.474,1.474,0,0,1,.217.335,2.035,2.035,0,0,1,.184.815,1.861,1.861,0,0,1-.035.412,1.638,1.638,0,0,1-.132.385,1.683,1.683,0,0,1-.222.34,2.1,2.1,0,0,1-.3.295,2.021,2.021,0,0,1-.171.124c-.058.038-.12.075-.184.108a2.1,2.1,0,0,1-.385.16Zm.45,1.022a1.276,1.276,0,0,1-.281-.307h0l.033-.01.006,0,0,0,.033-.011a2.82,2.82,0,0,0,.514-.231q.072-.041.141-.085l.013.028.044.089.006.011.049.086,0,0c.012.021.025.041.038.062l.017.027,0,0a2.7,2.7,0,0,0,.249.325,4.013,4.013,0,0,0-.289.306l-.1-.033-.106-.043A1.682,1.682,0,0,1,3959.334,820.323Zm10.426,5.189h0a5.247,5.247,0,0,1-.457.869,3.928,3.928,0,0,1-.287.386q-.079.093-.159.174c-.021.021-.044.042-.069.065l-.029.026c-.023.021-.045.041-.065.057l-.008.006a3,3,0,0,1-.384.271l0,0c-.053.033-.11.064-.171.1l-.147.075-.065.031-.043.02a6.031,6.031,0,0,1-.93.329c-.158.043-.323.082-.489.117s-.324.063-.5.09c-.317.05-.648.087-1.01.114l-.262.018c-.07.005-.137.012-.2.019l-.069.007c-.192.02-.352.033-.5.041a6.221,6.221,0,0,1-.988-.018,4.584,4.584,0,0,1-.48-.073,3.929,3.929,0,0,1-.466-.124l-.023-.008-.031-.01-.054-.02-.047-.017-.064-.025-.128-.055-.009,0-.083-.04-.005,0c-.047-.021-.094-.047-.144-.075l-.061-.033-.059-.037-.04-.024-.048-.03-.143-.1-.138-.108-.132-.117-.05-.05-.078-.077,0,0-.012-.014-.018-.02-.038-.043c-.041-.046-.08-.089-.114-.134l0,0a3.341,3.341,0,0,1-.226-.326h0v0l-.037-.061c-.04-.068-.078-.139-.115-.209s-.07-.143-.1-.218a4.987,4.987,0,0,1-.3-.924,5.7,5.7,0,0,1-.125-.971,5.84,5.84,0,0,1,.039-.978,5.227,5.227,0,0,1,.209-.949,4.213,4.213,0,0,1,.394-.871,3.52,3.52,0,0,1,.269-.387,3.171,3.171,0,0,1,.318-.343,3.287,3.287,0,0,1,.773-.527c.138-.071.288-.138.445-.2s.316-.12.466-.167.318-.095.477-.133l.141-.031c.121-.027.235-.053.352-.073a8.3,8.3,0,0,1,2-.113l.129.01.076.007.046,0,.061.006.188.025h0c.147.017.306.044.488.082a6.052,6.052,0,0,1,.95.28,5.352,5.352,0,0,1,.881.437,4.764,4.764,0,0,1,.4.278l.048.037.144.12c.057.048.115.1.179.162a3.805,3.805,0,0,1,.606.749,3.426,3.426,0,0,1,.381.876,3.736,3.736,0,0,1,.133.952,4.513,4.513,0,0,1-.094.968A5.294,5.294,0,0,1,3969.76,825.512Zm1,.455h0a1.788,1.788,0,0,1,.492.517,3.159,3.159,0,0,1,.176.342,3.625,3.625,0,0,1,.142.365,2.775,2.775,0,0,1,.095.368,1.528,1.528,0,0,1,.028.346.607.607,0,0,1-.006.062c-.021-.019-.044-.042-.069-.07-.046-.049-.092-.1-.126-.145-.05-.06-.1-.121-.148-.182l-.12-.149a5.043,5.043,0,0,0-.634-.668,2.857,2.857,0,0,0-.4-.286c-.04-.023-.079-.045-.119-.066a6.029,6.029,0,0,0,.3-.639l0-.009A2.124,2.124,0,0,1,3970.763,825.967Zm1.953-2.954c-.1-.052-.2-.108-.3-.167l-.1-.057a6.845,6.845,0,0,0-.885-.442,2.822,2.822,0,0,0-.516-.151,1.877,1.877,0,0,0-.335-.032h-.057a4.146,4.146,0,0,0-.3-.629c.113,0,.225,0,.335.013a3.222,3.222,0,0,1,.831.164,1.907,1.907,0,0,1,.36.169l.021.013.019.012.047.032c.024.016.049.035.076.055l.006.005c.059.044.116.089.168.134a3.009,3.009,0,0,1,.3.293,2.029,2.029,0,0,1,.235.323,1.085,1.085,0,0,1,.118.28Z" fill="#e3d42d"/>
    <path id="Pfad_186" data-name="Pfad 186" d="M4207.251,1080.075a.373.373,0,0,0-.512.128l-.015.025a.279.279,0,0,0-.017.033l0,0,0,0-.01.021-.019.036,0,.005c-.014.026-.027.051-.042.076a1.6,1.6,0,0,1-.1.149,1.148,1.148,0,0,1-.23.229.908.908,0,0,1-.57.166h0a1.387,1.387,0,0,1-.332-.043.868.868,0,0,1-.49-.337,1.182,1.182,0,0,1-.089-.142c-.011-.02-.022-.044-.035-.073v0l-.014-.033-.011-.028a.236.236,0,0,0-.021-.047l-.02-.035a.372.372,0,0,0-.693.218l0,.037a.019.019,0,0,0,0,.005c0,.014,0,.028,0,.04s.008.052.013.078c.01.048.022.1.037.145a1.585,1.585,0,0,0,.5.765,1.538,1.538,0,0,0,.262.177,1.722,1.722,0,0,0,.284.121l0,0a2.055,2.055,0,0,0,.577.091h.07l.073,0c.024,0,.045,0,.063,0l.017,0h.007l.018,0,.058-.007h.005l.028,0a1.212,1.212,0,0,0,.121-.024l.018,0,.055-.014.005,0,.064-.02,0,0a1.6,1.6,0,0,0,.547-.315,1.728,1.728,0,0,0,.375-.473,1.823,1.823,0,0,0,.119-.266c.016-.047.03-.092.043-.139.006-.024.012-.048.018-.074l.006-.031a.026.026,0,0,0,0-.009l.006-.036A.371.371,0,0,0,4207.251,1080.075Z" transform="translate(-241.135 -258.048)" fill="#e3d42d"/>
  </g>
</svg>
