<svg xmlns="http://www.w3.org/2000/svg" width="22.184" height="14.626" viewBox="0 0 22.184 14.626">
  <g id="Gruppe_49" data-name="Gruppe 49" transform="translate(-812.367 -1216.982)">
    <path id="Pfad_193" data-name="Pfad 193" d="M1006.008,1789.728c-.283-2.433.584-4.11,2.262-4.6a2.4,2.4,0,0,0-.566,2.383c3.79-1.464,6.189-.209,8.684.8a12.825,12.825,0,0,0,6.463,1.3c-2.426.982-5.318-.327-7.58-.9-3.526-.886-7.22-1.141-9.263,1.014Z" transform="translate(-191.78 -562.839)" fill="#e3d42d" fill-rule="evenodd"/>
    <path id="Pfad_194" data-name="Pfad 194" d="M812.367,2185.43c2.162-4.142,4.857-5.042,9.263-4.142,4.524.928,8.136,2.574,12.921.355-3.6,3.883-7.4,3.542-12.018,2.532-4.73-1.032-8.378-.9-10.166,1.255Z" transform="translate(0 -954.985)" fill="#e3d42d" fill-rule="evenodd"/>
    <path id="Pfad_195" data-name="Pfad 195" d="M1301.195,2524.8c2.121-.537,6.116.869,8.666,1.1a14.8,14.8,0,0,0,7.845-1.246,8.93,8.93,0,0,1-7.68,2.31c-3.649-.463-6.285-2.146-8.83-2.169Z" transform="translate(-484.263 -1295.461)" fill="#e3d42d" fill-rule="evenodd"/>
    <path id="Pfad_196" data-name="Pfad 196" d="M988.87,1222.9a1.431,1.431,0,0,0,1.491-1.382c.748,1.605,3.6,2.487,4.542.159.761-2.41-1.4-4.315-3.7-4.624-.041,0-.082-.014-.123-.018a8.48,8.48,0,0,0-.9-.05,7.852,7.852,0,0,0-7.863,7.839q0,.348.027.682c-.1-2.569,1.783-4.433,4.155-3.506.793.3,1.432.941,2.372.9Z" transform="translate(-168.362)" fill="#e3d42d" fill-rule="evenodd"/>
  </g>
</svg>
