<svg xmlns="http://www.w3.org/2000/svg" width="21.061" height="13.891" viewBox="0 0 21.061 13.891">
  <path id="Pfad_197" data-name="Pfad 197" d="M-658.273,422.4a2.011,2.011,0,0,0-.343.022c.007,0-.045.011-.13.146a2.265,2.265,0,0,0-.241.631,5,5,0,0,0-.125,1.057c0,.194.018.461.018.461a16.713,16.713,0,0,1,1.942-.614,13.311,13.311,0,0,1,2.637-.329,3.39,3.39,0,0,0-.57-.429,9.107,9.107,0,0,0-1.083-.49,6.765,6.765,0,0,0-2.105-.456Zm4.053,1.891c-3.176.01-6.795,1.351-8.443,3.924l-.581.907a4.453,4.453,0,0,0-1.347-2.333,4.027,4.027,0,0,0-2.424-1.042,5.392,5.392,0,0,1,1.461,3.6,5.392,5.392,0,0,1-1.461,3.6,3.836,3.836,0,0,0,2.424-1.042,3.993,3.993,0,0,0,1.347-2.333l.581.907c1.7,2.657,5.5,4,8.749,3.921a10.64,10.64,0,0,0,4.728-1.476,11.819,11.819,0,0,0,3.233-2.608l-1.012-.968,1.012-.968a11.817,11.817,0,0,0-3.233-2.607,10.64,10.64,0,0,0-4.728-1.476q-.152,0-.306,0Zm2.5,1.456c.183.007.286.181.14.425a6.256,6.256,0,0,0,.033,6.792c.188.282-.158.458-.415.192-1.89-1.842-2.115-5.583-.04-7.305a.453.453,0,0,1,.283-.1Zm2.234,1.412a.628.628,0,0,1,.628.628.628.628,0,0,1-.628.628.628.628,0,0,1-.628-.628.628.628,0,0,1,.628-.628Zm-9.611,6.815s-.02.267-.018.461a5,5,0,0,0,.125,1.057,2.264,2.264,0,0,0,.241.631c.085.135.137.147.13.146a2.02,2.02,0,0,0,.343.022,6.767,6.767,0,0,0,2.105-.456,9.08,9.08,0,0,0,1.083-.49,3.386,3.386,0,0,0,.57-.429,13.31,13.31,0,0,1-2.637-.329,16.692,16.692,0,0,1-1.942-.614Zm0,0" transform="translate(667.015 -422.4)" fill="#e3d42d"/>
</svg>
