<svg xmlns="http://www.w3.org/2000/svg" width="21.061" height="21.092" viewBox="0 0 21.061 21.092">
  <g id="Gruppe_47" data-name="Gruppe 47" transform="translate(-224.457 -2298.113)">
    <path id="Pfad_187" data-name="Pfad 187" d="M443.713,2524.9c-.044-.063-.09-.12-.135-.176l-.037-.047c-.026-.033-.052-.063-.075-.09l-.022-.025-.089-.1-.12-.127c-.025-.027-.054-.057-.085-.087l-.045-.044c-.05-.049-.1-.1-.159-.149l-.1-.089-.005,0-.108-.091c-.073-.061-.149-.12-.224-.176a5.7,5.7,0,0,0-.473-.319l-.116-.069-.187-.1-.19-.1-.011-.005-.074-.035c-.058-.027-.118-.056-.182-.082l-.041-.018-.086-.036-.129-.05c-.049-.02-.1-.036-.139-.051l-.043-.015-.089-.03-.007,0-.078-.024c-.061-.019-.124-.039-.191-.056l-.129-.035-.208-.049-.209-.042h-.006a6.643,6.643,0,0,0-1.129-.1,6.3,6.3,0,0,0-2.232.391,6.193,6.193,0,0,0-1.03.494h0a6.175,6.175,0,0,0-.92.679,5.61,5.61,0,0,0-.777.854l-.08.11c-.022.03-.041.059-.058.085l-.024.036,0,.005-.024.036c-.017.026-.037.055-.056.087l-.069.114c-.028.044-.051.087-.073.128l-.068.124-.066.133c-.022.043-.044.088-.066.138l-.054.121c-.016.034-.029.067-.04.1l-.016.041,0,.007-.016.04c-.012.029-.025.063-.037.1l-.044.126c-.018.05-.032.1-.045.142l-.04.134-.042.167c-.01.038-.02.081-.029.126a5.447,5.447,0,0,0-.12,1.147,5.374,5.374,0,0,0,.034.579c.011.1.025.192.041.286.007.044.016.086.024.127l.031.152,0,.007a5.579,5.579,0,0,0,.377,1.093,5.688,5.688,0,0,0,.6.986,6.011,6.011,0,0,0,.78.839,5.934,5.934,0,0,0,.926.671l.182.1.19.1.193.092.2.085.2.079.2.072.2.064.206.058.008,0c.162.04.355.086.551.117.075.014.147.023.217.033l.058.008c.036.006.071.009.1.011l.043,0h.006l.044,0,.1.009.079,0c.065,0,.132.009.2.01l.133,0h.146c.189,0,.379-.012.566-.031.078-.008.181-.019.283-.035l.131-.02c.036-.005.07-.012.1-.018l.042-.008c.2-.035.388-.085.551-.128l.007,0c.148-.044.342-.1.533-.179s.377-.158.516-.224l.187-.1.185-.1.124-.075a6.038,6.038,0,0,0,.906-.681c.139-.127.273-.262.4-.4l.092-.106c.022-.025.042-.05.061-.074l.028-.035,0,0,.027-.034c.02-.025.041-.05.062-.079l.081-.109a5.391,5.391,0,0,0,.572-.98c.084-.182.151-.368.206-.526l.043-.139v0l.011-.036c.01-.031.021-.067.03-.105l.018-.07c.017-.064.034-.131.048-.2a5.377,5.377,0,0,0,.124-1.124,5.291,5.291,0,0,0-.479-2.213A5.411,5.411,0,0,0,443.713,2524.9Zm.312,3.674a4.344,4.344,0,0,1-.389,1.422v0a4.685,4.685,0,0,1-.462.784l-2.2-1.916Zm-2.148,3.444q-.106.071-.212.133l-.108.064-.163.089-.167.083c-.133.062-.291.132-.453.19l0,0c-.159.06-.326.109-.469.149-.1.025-.2.051-.31.073l-.218-2.571Zm-3.913-1.672.234,2.529-.034,0-.066-.009h0l-.063-.01c-.063-.009-.123-.018-.18-.03l-.008,0c-.164-.028-.326-.069-.478-.109l-.178-.052-.176-.059-.173-.064-.171-.07-.168-.076-.147-.073Zm-4.071-3.637.045-.129c.006-.017.014-.038.023-.06l.018-.046.018-.045c.009-.022.017-.043.025-.061l.053-.119,0,0c.013-.031.029-.063.047-.1l.055-.112.063-.114c.018-.032.034-.063.051-.09l.071-.117c.01-.017.022-.035.036-.055l.026-.04.013-.02,2.1,1.756-2.84.236c.017-.143.041-.286.071-.428l0-.008c0-.025.012-.054.02-.084l.035-.14.036-.121C433.872,2526.773,433.883,2526.739,433.894,2526.709Zm2.529-2.827.008,0c.049-.025.1-.048.156-.073l.066-.03.065-.027.044-.018.041-.017.065-.026.051-.019c.064-.024.124-.046.185-.065l.048-.016.068-.022.124-.036h0c.032-.01.068-.019.105-.028l.03-.008.239,2.555-2.017-1.739q.141-.1.29-.192C436.129,2524.037,436.273,2523.954,436.422,2523.883Zm5.532.388.03.021-1.743,2.245a2.124,2.124,0,0,0-.206-.144Zm-4.344,4.421a1.2,1.2,0,0,1-.06-.109,1.129,1.129,0,0,1-.009-.961,1.254,1.254,0,0,1,.3-.407,1.414,1.414,0,0,1,.212-.155,1.282,1.282,0,0,1,.235-.111,1.46,1.46,0,0,1,.254-.067,1.536,1.536,0,0,1,.264-.02,1.449,1.449,0,0,1,.261.028,1.339,1.339,0,0,1,.247.073h0a1.369,1.369,0,0,1,.43.271,1.253,1.253,0,0,1,.288.4,1.1,1.1,0,0,1,.1.468,1.122,1.122,0,0,1-.109.462,1.266,1.266,0,0,1-.125.208,1.127,1.127,0,0,1-.075.092l0,0c-.025.028-.053.057-.086.087a1.41,1.41,0,0,1-.927.36h0a1.415,1.415,0,0,1-.948-.336,1.282,1.282,0,0,1-.172-.183l-.041-.056Zm1.866-2.865-.219-2.49c.174.012.348.033.522.061l.184.034.181.04.121.031h0c.049.012.1.027.154.043l.08.023.071.023.045.015c.037.012.075.024.108.038l.124.045.07.028.045.018h0c.047.019.1.04.147.064l.04.018Zm-.987.257-.124-2.67.321,2.648C438.622,2526.067,438.556,2526.074,438.49,2526.084Zm-3.475-1.191,2.259,1.781c-.052.05-.1.1-.147.155L435,2524.906Zm1.642,3.439-2.9.151,2.885-.34C436.646,2528.206,436.65,2528.269,436.657,2528.332Zm-.029.8-1.727,2.087a5.083,5.083,0,0,1-.329-.4,4.973,4.973,0,0,1-.495-.833,4.706,4.706,0,0,1-.231-.618Zm-1.06,2.693,1.74-2.225c.043.039.087.076.133.112l-1.858,2.124Zm3.238-1.637q.067,0,.136,0l.144,2.549-.3-2.547Zm1.535-.561c.035-.031.07-.064.1-.1l1.83,1.655Zm2.521-4.556.024.026c.019.021.037.041.052.059l0,0,.042.051c.04.049.078.094.111.14l0,0a4.673,4.673,0,0,1,.511.838,4.6,4.6,0,0,1,.24.618l-3.042.26,1.865-2.206,0,0,.107.11Zm-1.851,2.8,2.411-.138-2.4.287Q441.021,2527.95,441.011,2527.876Z" transform="translate(-203.737 -219.434)" fill="#e3d42d"/>
    <path id="Pfad_188" data-name="Pfad 188" d="M651.188,2728.956a1.234,1.234,0,0,0,.417.245,1.283,1.283,0,0,0,.422.07h.048a1.264,1.264,0,0,0,.454-.1,1.238,1.238,0,0,0,.385-.261,1.17,1.17,0,0,0,.259-.386,1.106,1.106,0,0,0,.084-.463,1.121,1.121,0,0,0-.113-.448,1.228,1.228,0,0,0-1.068-.7,1.268,1.268,0,0,0-.857.283,1.184,1.184,0,0,0-.3.38l0,0c-.013.027-.024.054-.034.077l-.008.02-.008.022c-.01.028-.019.058-.027.086l-.007.024,0,.014c-.007.034-.013.069-.019.1l0,.015-.008.108v.017a1.144,1.144,0,0,0,.1.5A1.2,1.2,0,0,0,651.188,2728.956Zm1.06-1.24a.436.436,0,0,1,.148.082.314.314,0,0,1,.09.114.32.32,0,0,1,.025.142.326.326,0,0,1-.037.137.355.355,0,0,1-.1.114.447.447,0,0,1-.3.09.465.465,0,0,1-.284-.115.313.313,0,0,1-.108-.222.3.3,0,0,1,.021-.121.371.371,0,0,1,.079-.118.446.446,0,0,1,.29-.126h.024A.48.48,0,0,1,652.248,2727.716Z" transform="translate(-416.987 -419.395)" fill="#e3d42d"/>
    <path id="Pfad_189" data-name="Pfad 189" d="M245.1,2306.832a1.661,1.661,0,0,0-.523-.41,1.577,1.577,0,0,0-.664-.163h0a1.609,1.609,0,0,0-.669.136c-.024.01-.044.021-.06.029l-.016.008-.011.006-.013.007a.672.672,0,0,0-.068.038l-.023.015a1.184,1.184,0,0,0-.115.077l-.014.011-.045.034-.1.084-.031.031-.056.059-.005.005a1.712,1.712,0,0,0-.294.45h-.007l0-.015a6.869,6.869,0,0,0-.458-1.347v0a7.128,7.128,0,0,0-.73-1.218v0a7.413,7.413,0,0,0-.864-.957l.119-.172a1.8,1.8,0,0,0,.381.06h.049l.109,0,.125-.01h.009l.036-.005.079-.014.01,0,.058-.014.016,0a1.094,1.094,0,0,0,.124-.037l.031-.01.012,0a1.612,1.612,0,0,0,.566-.363,1.566,1.566,0,0,0,.365-.567,1.671,1.671,0,0,0,.1-.656,1.758,1.758,0,0,0-.149-.636,1.84,1.84,0,0,0-.895-.917,1.76,1.76,0,0,0-.642-.167,1.686,1.686,0,0,0-.671.095,1.606,1.606,0,0,0-.583.37l0,0a1.648,1.648,0,0,0-.369.582,1.679,1.679,0,0,0-.1.665c0,.027,0,.051.006.068l0,.016v.01l0,.016c0,.02,0,.044.01.072l.016.08c0,.011,0,.022.007.034l.031.112,0,.007c.007.022.014.042.02.059l.006.018,0,.009.005.014.007.02-.256.276-.105-.06-.234-.124-.239-.116-.242-.108-.246-.1-.249-.091-.252-.082-.255-.074-.008,0c-.2-.052-.441-.111-.685-.152-.092-.018-.182-.031-.269-.043l-.078-.011-.042-.006-.139-.015-.056-.006c-.039,0-.079-.009-.121-.012l-.17-.012h0l-.026,0-.067,0-.212-.008-.085-.5a1.739,1.739,0,0,0,.333-.245l.007-.006.023-.021.079-.083.058-.07.026-.033.022-.03.045-.065.005-.008c.011-.017.021-.034.031-.051l.008-.014a1.119,1.119,0,0,0,.061-.117l.013-.028.005-.011a1.583,1.583,0,0,0,.131-.649,1.632,1.632,0,0,0-.038-.325,1.6,1.6,0,0,0-.1-.313,1.645,1.645,0,0,0-.38-.531,1.8,1.8,0,0,0-2.389-.04,1.707,1.707,0,0,0-.232.246,1.64,1.64,0,0,0-.178.292,1.6,1.6,0,0,0-.114.327,1.588,1.588,0,0,0-.039.348,1.623,1.623,0,0,0,.148.674,1.691,1.691,0,0,0,.407.543,1.735,1.735,0,0,0,.445.285l.025.557h0l-.12.022-.2.043-.059.013-.252.064-.008,0c-.2.057-.433.127-.67.218s-.473.194-.648.276l-.236.119-.233.128-.155.093a7.267,7.267,0,0,0-.893.633l-.277-.186a1.787,1.787,0,0,0,.061-.325v-.009a1.686,1.686,0,0,0-.006-.323,1.194,1.194,0,0,0-.019-.124l-.006-.031v0c-.005-.026-.011-.049-.016-.067l0-.016,0-.008,0-.013a.717.717,0,0,0-.022-.071,1.573,1.573,0,0,0-.335-.564,1.484,1.484,0,0,0-.248-.219,1.519,1.519,0,0,0-.291-.163,1.588,1.588,0,0,0-.314-.1,1.69,1.69,0,0,0-.951.084,1.79,1.79,0,0,0-.544.331,1.811,1.811,0,0,0-.4.5,1.75,1.75,0,0,0-.2.618,1.68,1.68,0,0,0,.048.663,1.571,1.571,0,0,0,.324.6l0,0a1.571,1.571,0,0,0,.554.408l.065.027a.682.682,0,0,0,.072.026l.014,0,.011,0,.016.005c.019.006.042.013.07.02l.08.019.042.009.11.016.019,0,.055,0,.035,0c.022,0,.049,0,.08,0a1.716,1.716,0,0,0,.632-.124l.192.195-.046.062a6.758,6.758,0,0,0-.727,1.226,7.054,7.054,0,0,0-.264.661l0,.007c-.012.037-.023.073-.035.11l-.017.056v0l-.015.047c-.012.039-.026.083-.037.129l-.024.09c-.022.081-.044.166-.062.255l-.036.164,0,.009c-.007.038-.013.077-.02.115l-.01.058-.021.127-.031.252c0,.023-.006.046-.008.069l-.019.261c0,.04,0,.078,0,.114l-.08.016a1.734,1.734,0,0,0-.243-.326l-.005-.006-.026-.027-.081-.076-.1-.079-.009-.006-.028-.02-.066-.045-.01-.006-.049-.029-.015-.009a1.088,1.088,0,0,0-.114-.059l-.029-.014-.012-.006a1.609,1.609,0,0,0-.631-.129h-.017a1.546,1.546,0,0,0-.331.04,1.639,1.639,0,0,0-.311.107,1.6,1.6,0,0,0-.28.168,1.645,1.645,0,0,0-.24.218,1.746,1.746,0,0,0-.334.543,1.826,1.826,0,0,0-.02,1.252,1.736,1.736,0,0,0,.324.564,1.661,1.661,0,0,0,.526.409,1.567,1.567,0,0,0,.667.161,1.634,1.634,0,0,0,.673-.139,1.668,1.668,0,0,0,.547-.4c.018-.019.032-.037.044-.051l.011-.013.006-.007.01-.012a.76.76,0,0,0,.047-.062l.045-.066.021-.032.056-.1,0-.008c.009-.018.018-.036.027-.054l.008-.018,0-.01.006-.014.012-.025h.14a6.7,6.7,0,0,0,.471,1.385,6.793,6.793,0,0,0,.734,1.22c.056.077.114.149.171.218l.048.059c.031.04.063.075.093.109l.028.031.113.128.151.158c.033.034.067.07.106.106l.054.052.018.017-.182.259a1.745,1.745,0,0,0-.39-.059H229.1l-.107,0-.089.008-.043,0-.035.006-.078.014-.011,0-.056.014-.016,0a1.093,1.093,0,0,0-.125.038l-.03.01-.012,0a1.6,1.6,0,0,0-.552.362l0,0a1.568,1.568,0,0,0-.351.559,1.6,1.6,0,0,0-.079.317,1.653,1.653,0,0,0-.016.326,1.752,1.752,0,0,0,.149.621,1.838,1.838,0,0,0,.87.9,1.737,1.737,0,0,0,.629.172,1.664,1.664,0,0,0,.666-.083,1.593,1.593,0,0,0,.586-.36l0,0a1.613,1.613,0,0,0,.377-.578,1.64,1.64,0,0,0,.094-.675,1.73,1.73,0,0,0-.122-.534l.314-.321.134.079.234.127.238.118.163.075h0l.025.011.06.027.08.033.053.022.108.044.164.062h0l.025.01.062.022.082.028.055.019.11.037.17.051.026.008.063.018.247.065.259.059.26.05h.006a8.309,8.309,0,0,0,1.018.108l.09.517a1.723,1.723,0,0,0-.329.242l-.006.005-.025.023-.077.081-.058.069-.026.032-.022.031-.044.064-.006.009c-.011.016-.02.033-.03.05l-.008.014a1.066,1.066,0,0,0-.058.109l-.015.031-.006.012a1.577,1.577,0,0,0-.135.642,1.527,1.527,0,0,0,.143.64,1.626,1.626,0,0,0,.383.519,1.8,1.8,0,0,0,1.159.46h.045a1.813,1.813,0,0,0,.585-.1,1.738,1.738,0,0,0,.567-.321,1.664,1.664,0,0,0,.414-.529,1.593,1.593,0,0,0,.162-.668v-.007l0-.095a.709.709,0,0,0-.006-.084l0-.023a1.184,1.184,0,0,0-.023-.144c-.005-.026-.011-.051-.018-.078l-.038-.119,0-.01c0-.012-.01-.025-.015-.037l-.033-.076,0-.01a1.685,1.685,0,0,0-.411-.537l0,0a1.755,1.755,0,0,0-.445-.279l.006-.542.083-.015.027,0,.065-.012.25-.052.178-.044c.056-.014.114-.028.173-.046l.162-.047c.041-.011.079-.024.116-.036l.052-.017c.1-.03.189-.064.279-.1l.054-.02c.043-.015.082-.031.12-.047l.048-.019,0,0,.052-.021c.036-.014.074-.03.113-.047l.082-.037c.077-.034.156-.069.236-.11.225-.106.438-.229.618-.335l0,0a7.891,7.891,0,0,0,.8-.56l.2.139a1.762,1.762,0,0,0-.059.4v.009c0,.011,0,.023,0,.034v0l0,.109.009.091,0,.042c0,.012,0,.024.006.037l.015.078,0,.01c0,.019.009.038.015.058l0,.016a1.152,1.152,0,0,0,.04.125l.011.03,0,.011a1.612,1.612,0,0,0,.371.554,1.562,1.562,0,0,0,.564.347,1.624,1.624,0,0,0,.644.087,1.8,1.8,0,0,0,1.685-1.641,1.663,1.663,0,0,0-.08-.664,1.6,1.6,0,0,0-.145-.311,1.571,1.571,0,0,0-.212-.274,1.61,1.61,0,0,0-.573-.377c-.025-.01-.047-.017-.065-.022l-.017-.005-.011,0-.014,0a.582.582,0,0,0-.076-.021l-.027-.006a1.2,1.2,0,0,0-.135-.025l-.016,0-.056-.007-.088-.006-.04,0h-.044l-.081,0h-.008a1.75,1.75,0,0,0-.509.107l-.123-.128c.033-.042.065-.085.1-.127l.1-.136c.021-.029.04-.057.056-.082l.1-.144c.016-.024.034-.051.052-.082l.087-.144,0,0,.013-.021c.011-.018.023-.038.035-.061l.122-.223.119-.239c.012-.023.021-.045.03-.064l.01-.023.07-.156c.014-.031.026-.06.036-.086l.065-.164c.011-.028.024-.06.035-.094l.055-.159v0l.008-.024c.007-.02.015-.042.022-.066l.073-.245.052-.205c.012-.048.025-.1.035-.152a6.757,6.757,0,0,0,.141-1.063,1.128,1.128,0,0,0,.071.1l.01.013c.011.014.023.03.038.048l.059.065.024.026.082.078.071.059.035.028.029.021.066.046.009.006.051.03.015.009a1.09,1.09,0,0,0,.117.06l.029.014.011.005a1.6,1.6,0,0,0,.657.13h0a1.56,1.56,0,0,0,.648-.157,1.648,1.648,0,0,0,.516-.4,1.8,1.8,0,0,0,.323-.545,1.916,1.916,0,0,0,.086-.3,1.82,1.82,0,0,0,.033-.314A1.8,1.8,0,0,0,245.1,2306.832Zm-.415,1.54a.872.872,0,0,1-.181.294.825.825,0,0,1-.273.2.737.737,0,0,1-.312.062.776.776,0,0,1-.306-.075l-.029-.016-.034-.019-.007,0-.022-.014-.014-.009-.037-.029-.012-.009-.048-.043-.044-.046h0l-.01-.012a.9.9,0,0,1-.166-.29l0-.007a.872.872,0,0,1-.041-.162.978.978,0,0,1,.049-.5l.021-.052,0,0,.012-.023.009-.02.006-.013.035-.059h0l.009-.013.03-.044.005-.006.015-.019.015-.019,0-.006.036-.038.009-.01.046-.042.034-.025.012-.01.031-.021.03-.02h0l.023-.012.02-.011.008,0h0a.767.767,0,0,1,.3-.074.729.729,0,0,1,.3.058.811.811,0,0,1,.267.187.907.907,0,0,1,.185.288.993.993,0,0,1,.07.347.975.975,0,0,1-.056.35Zm-3.12,1.526c-.006.035-.016.073-.026.113l-.045.18-.069.231c0,.009-.007.021-.011.034l-.011.031-.053.153,0,0c-.005.017-.013.036-.022.058l-.064.162c-.008.019-.015.037-.021.051l-.068.153-.013.03c0,.011-.01.023-.016.035l-.107.214-.117.212-.018.031-.017.028-.084.139,0,0c-.008.014-.02.032-.032.05l-.094.142c-.013.019-.025.038-.036.052l-.1.135a6.167,6.167,0,0,1-.84.924,6.8,6.8,0,0,1-1.006.747c-.172.1-.357.207-.551.3l-.008,0c-.063.032-.129.061-.2.092l-.085.038-.086.035-.055.022-.051.021c-.031.012-.06.024-.087.034l-.063.023c-.082.03-.16.058-.239.082l-.059.019-.089.028-.158.045h0c-.043.013-.09.024-.139.036l-.159.039-.234.049-.043.008-.033.005a7.061,7.061,0,0,1-1.253.112,7.415,7.415,0,0,1-1.252-.108l-.233-.045-.23-.053-.231-.061-.041-.012-.029-.009-.154-.047-.091-.031-.057-.02-.078-.027-.038-.014-.029-.011-.15-.057-.09-.037-.055-.023-.074-.031-.039-.018-.027-.012-.145-.067-.211-.106-.206-.112-.137-.081a6.148,6.148,0,0,1-.52-.345c-.083-.061-.166-.125-.248-.192l-.118-.1-.12-.106,0,0c-.056-.048-.111-.1-.169-.158l-.057-.055,0,0c-.025-.023-.05-.05-.077-.078l-.134-.14-.1-.117-.029-.033c-.024-.028-.047-.054-.067-.078l0,0-.052-.064c-.05-.062-.1-.121-.14-.18l0,0a5.909,5.909,0,0,1-.637-1.066,5.833,5.833,0,0,1-.4-1.17l-.047-.233-.013-.076c-.017-.1-.032-.207-.042-.3a5.791,5.791,0,0,1-.035-.617c0-.032,0-.065,0-.1s0-.04,0-.06,0-.04,0-.061,0-.062,0-.089l.017-.242c0-.013,0-.025,0-.038l0-.034.022-.195.018-.113.01-.061c0-.031.01-.062.015-.092l.032-.155v-.007c.012-.065.029-.132.047-.2.008-.032.017-.064.024-.1v0c.006-.025.015-.054.024-.085l.016-.053.017-.056.028-.092a5.916,5.916,0,0,1,.227-.574v0a5.869,5.869,0,0,1,.63-1.069l.1-.13c.017-.022.037-.046.057-.072l.038-.046.038-.046.062-.074c.035-.041.072-.082.1-.116.14-.154.289-.3.441-.44a6.647,6.647,0,0,1,1-.748l.136-.082.206-.114.21-.107c.168-.079.368-.17.574-.246l.005,0c.2-.079.414-.143.594-.195l.231-.06.044-.01.188-.042.093-.018.058-.011.083-.015.064-.011.168-.024c.108-.016.217-.028.309-.036.207-.019.418-.029.628-.03h.159l.243.009.04,0,.032,0,.163.011c.029,0,.06.005.093.009l.06.007.116.012.035.005.078.011c.081.011.158.022.232.036h.008c.21.034.418.085.611.134l.227.065.224.073.222.081.219.088.216.1.212.1.208.11.207.119a6.446,6.446,0,0,1,1.854,1.659,6.275,6.275,0,0,1,.642,1.068,6.031,6.031,0,0,1,.4,1.176,5.74,5.74,0,0,1,.139,1.234,5.858,5.858,0,0,1-.13,1.236Zm.779,5.2a1.007,1.007,0,0,1-.289.21.868.868,0,0,1-.336.085.826.826,0,0,1-.333-.054.733.733,0,0,1-.267-.178.764.764,0,0,1-.165-.271l-.009-.031c0-.014-.01-.032-.011-.039l0-.009-.006-.026,0-.016-.006-.048,0-.014,0-.065v-.064l0-.018a.882.882,0,0,1,.089-.323l0-.007a.931.931,0,0,1,.2-.274.941.941,0,0,1,.28-.188.884.884,0,0,1,.317-.078.812.812,0,0,1,.313.044h0a.768.768,0,0,1,.262.161.741.741,0,0,1,.172.254.811.811,0,0,1,.057.319.9.9,0,0,1-.072.333A.981.981,0,0,1,242.343,2315.1Zm-7.355,3.083a.847.847,0,0,1-.205-.273.772.772,0,0,1-.07-.322.8.8,0,0,1,.073-.318l.012-.022c.009-.017.018-.035.024-.043l0-.006.014-.023.009-.014.03-.04.009-.011.045-.051.048-.046h0l.011-.009a.912.912,0,0,1,.3-.17l.005,0a.968.968,0,0,1,.961.2.815.815,0,0,1,.182.253l.018.044.005.013.019.059.01.041,0,.015c0,.006,0,.024.006.037l.005.033h0v.005c0,.007,0,.013,0,.019l0,.047a.759.759,0,0,1-.242.556l0,0a.947.947,0,0,1-.629.257.977.977,0,0,1-.351-.054A.931.931,0,0,1,234.988,2318.184Zm-5.064-2.394-.018.045,0,.012-.028.058-.008.013-.013.022-.005.009c0,.006-.014.02-.022.031l-.02.027h0l0,0-.013.015-.031.035a.761.761,0,0,1-.566.219.917.917,0,0,1-.332-.073.975.975,0,0,1-.5-.477.9.9,0,0,1-.087-.335v0a.751.751,0,0,1,.494-.771l.032-.01.04-.012.008,0,.026-.006.017,0,.048-.007.014,0,.065,0h.083a.89.89,0,0,1,.327.089l.007,0a.932.932,0,0,1,.275.2.944.944,0,0,1,.188.285l.02.05,0,.005.008.025.007.021,0,.014.017.068.011.067v.009l0,.024c0,.008,0,.016,0,.024v.06s0,.009,0,.013l0,.062-.006.042,0,.014c0,.007,0,.024-.008.038l-.008.035v0l-.008.024-.009.028Zm-2.505-12.64a.82.82,0,0,1-.037-.323.924.924,0,0,1,.091-.329,1,1,0,0,1,.208-.284.975.975,0,0,1,.3-.192.925.925,0,0,1,.341-.069.789.789,0,0,1,.324.065.709.709,0,0,1,.256.191l0,.006a.726.726,0,0,1,.147.283.867.867,0,0,1,.02.33.959.959,0,0,1-.106.322.946.946,0,0,1-.214.265.926.926,0,0,1-.135.1,1.253,1.253,0,0,1-.158.077.977.977,0,0,1-.326.06.789.789,0,0,1-.307-.06l-.012,0-.008,0-.047-.023-.044-.027-.009-.005-.051-.037-.019-.016-.019-.017-.013-.011-.029-.03A.739.739,0,0,1,227.419,2303.15Zm6.117-3.688a.818.818,0,0,1,.186-.257.921.921,0,0,1,.282-.178.986.986,0,0,1,.683-.016.921.921,0,0,1,.3.171.829.829,0,0,1,.205.264.716.716,0,0,1,.054.152.676.676,0,0,1,.015.156.79.79,0,0,1-.075.311l-.015.029c-.007.014-.016.03-.02.037l0,.007-.014.023-.009.014-.03.039-.009.011-.044.05-.047.045-.013.01a.9.9,0,0,1-.294.167l-.006,0a.969.969,0,0,1-.953-.19.821.821,0,0,1-.187-.252.755.755,0,0,1-.067-.3A.726.726,0,0,1,233.536,2299.462Zm6.522,2.089a.737.737,0,0,1,.165-.256.745.745,0,0,1,.563-.209.9.9,0,0,1,.322.075.96.96,0,0,1,.281.189.97.97,0,0,1,.2.278.9.9,0,0,1,.086.324.8.8,0,0,1-.044.321.729.729,0,0,1-.167.264.773.773,0,0,1-.262.167l-.029.01-.037.011-.009,0-.026.006-.016,0-.047.007-.014,0-.065,0h-.082a.873.873,0,0,1-.323-.084l-.006,0a.949.949,0,0,1-.54-.8A.817.817,0,0,1,240.058,2301.551Zm-13.479,8.43-.046.042-.034.026-.011.009-.031.021-.03.02h0l-.023.012-.02.011-.008,0,0,0a.76.76,0,0,1-.3.072.732.732,0,0,1-.3-.06.806.806,0,0,1-.265-.187.965.965,0,0,1-.019-1.281.856.856,0,0,1,.125-.116.836.836,0,0,1,.147-.087.73.73,0,0,1,.307-.066h.007a.764.764,0,0,1,.308.074l.03.016.035.02.007,0,.022.014.015.01.037.029.012.009.049.045.045.047h0l.01.012a.9.9,0,0,1,.166.295l0,.005a.95.95,0,0,1,.053.337h0a.929.929,0,0,1-.067.328l-.021.049,0,.006-.013.026-.01.02-.007.013-.035.058-.008.011-.031.044h0l0,.006-.018.022-.015.018-.005.007-.036.037Z" fill="#e3d42d"/>
  </g>
</svg>
