<svg xmlns="http://www.w3.org/2000/svg" width="11.546" height="18.808" viewBox="0 0 11.546 18.808">
  <g id="Gruppe_48" data-name="Gruppe 48" transform="translate(-309.978 -211.127)">
    <path id="Pfad_191" data-name="Pfad 191" d="M322.341,218.639l.515-7.281a.209.209,0,0,0-.23-.23l-7.281.515a.294.294,0,0,0-.265.265l2.235,1.914-5.768,5.768a.426.426,0,0,0-.042.6l2.291,2.291a.426.426,0,0,0,.6-.042l5.768-5.768,1.914,2.235A.294.294,0,0,0,322.341,218.639Z" transform="translate(-1.332)" fill="#e3d42d"/>
    <path id="Pfad_192" data-name="Pfad 192" d="M317.49,336.718l-7.281.515a.209.209,0,0,1-.23-.23l.515-7.281a.294.294,0,0,1,.265-.265l1.914,2.235,5.768-5.768a.426.426,0,0,1,.6-.042l2.291,2.291a.426.426,0,0,1-.042.6l-5.768,5.768,2.235,1.914A.294.294,0,0,1,317.49,336.718Z" transform="translate(0 -107.299)" fill="#e3d42d"/>
  </g>
</svg>
